<?xml version="1.0" encoding="utf-8" standalone="no"?>
<!DOCTYPE svg PUBLIC "-//W3C//DTD SVG 1.1//EN"
  "http://www.w3.org/Graphics/SVG/1.1/DTD/svg11.dtd">
<svg xmlns:xlink="http://www.w3.org/1999/xlink" width="792pt" height="432pt" viewBox="0 0 792 432" xmlns="http://www.w3.org/2000/svg" version="1.1">
 <metadata>
  <rdf:RDF xmlns:dc="http://purl.org/dc/elements/1.1/" xmlns:cc="http://creativecommons.org/ns#" xmlns:rdf="http://www.w3.org/1999/02/22-rdf-syntax-ns#">
   <cc:Work>
    <dc:type rdf:resource="http://purl.org/dc/dcmitype/StillImage"/>
    <dc:date>2026-06-05T05:19:19.246783</dc:date>
    <dc:format>image/svg+xml</dc:format>
    <dc:creator>
     <cc:Agent>
      <dc:title>Matplotlib v3.10.9, https://matplotlib.org/</dc:title>
     </cc:Agent>
    </dc:creator>
   </cc:Work>
  </rdf:RDF>
 </metadata>
 <defs>
  <style type="text/css">*{stroke-linejoin: round; stroke-linecap: butt}</style>
 </defs>
 <g id="figure_1">
  <g id="patch_1">
   <path d="M 0 432 
L 792 432 
L 792 0 
L 0 0 
z
" style="fill: #ffffff"/>
  </g>
  <g id="axes_1">
   <g id="patch_2">
    <path d="M 47.72 390.04 
L 781.2 390.04 
L 781.2 26.88 
L 47.72 26.88 
z
" style="fill: #ffffff"/>
   </g>
   <g id="matplotlib.axis_1">
    <g id="xtick_1">
     <g id="line2d_1">
      <defs>
       <path id="m91b259b883" d="M 0 0 
L 0 3.5 
" style="stroke: #000000; stroke-width: 0.8"/>
      </defs>
      <g>
       <use xlink:href="#m91b259b883" x="81.06" y="390.04" style="stroke: #000000; stroke-width: 0.8"/>
      </g>
     </g>
     <g id="text_1">
      <!-- 2024-01 -->
      <g transform="translate(60.168594 404.638438) scale(0.1 -0.1)">
       <defs>
        <path id="DejaVuSans-32" d="M 1228 531 
L 3431 531 
L 3431 0 
L 469 0 
L 469 531 
Q 828 903 1448 1529 
Q 2069 2156 2228 2338 
Q 2531 2678 2651 2914 
Q 2772 3150 2772 3378 
Q 2772 3750 2511 3984 
Q 2250 4219 1831 4219 
Q 1534 4219 1204 4116 
Q 875 4013 500 3803 
L 500 4441 
Q 881 4594 1212 4672 
Q 1544 4750 1819 4750 
Q 2544 4750 2975 4387 
Q 3406 4025 3406 3419 
Q 3406 3131 3298 2873 
Q 3191 2616 2906 2266 
Q 2828 2175 2409 1742 
Q 1991 1309 1228 531 
z
" transform="scale(0.015625)"/>
        <path id="DejaVuSans-30" d="M 2034 4250 
Q 1547 4250 1301 3770 
Q 1056 3291 1056 2328 
Q 1056 1369 1301 889 
Q 1547 409 2034 409 
Q 2525 409 2770 889 
Q 3016 1369 3016 2328 
Q 3016 3291 2770 3770 
Q 2525 4250 2034 4250 
z
M 2034 4750 
Q 2819 4750 3233 4129 
Q 3647 3509 3647 2328 
Q 3647 1150 3233 529 
Q 2819 -91 2034 -91 
Q 1250 -91 836 529 
Q 422 1150 422 2328 
Q 422 3509 836 4129 
Q 1250 4750 2034 4750 
z
" transform="scale(0.015625)"/>
        <path id="DejaVuSans-34" d="M 2419 4116 
L 825 1625 
L 2419 1625 
L 2419 4116 
z
M 2253 4666 
L 3047 4666 
L 3047 1625 
L 3713 1625 
L 3713 1100 
L 3047 1100 
L 3047 0 
L 2419 0 
L 2419 1100 
L 313 1100 
L 313 1709 
L 2253 4666 
z
" transform="scale(0.015625)"/>
        <path id="DejaVuSans-2d" d="M 313 2009 
L 1997 2009 
L 1997 1497 
L 313 1497 
L 313 2009 
z
" transform="scale(0.015625)"/>
        <path id="DejaVuSans-31" d="M 794 531 
L 1825 531 
L 1825 4091 
L 703 3866 
L 703 4441 
L 1819 4666 
L 2450 4666 
L 2450 531 
L 3481 531 
L 3481 0 
L 794 0 
L 794 531 
z
" transform="scale(0.015625)"/>
       </defs>
       <use xlink:href="#DejaVuSans-32"/>
       <use xlink:href="#DejaVuSans-30" transform="translate(63.623047 0)"/>
       <use xlink:href="#DejaVuSans-32" transform="translate(127.246094 0)"/>
       <use xlink:href="#DejaVuSans-34" transform="translate(190.869141 0)"/>
       <use xlink:href="#DejaVuSans-2d" transform="translate(254.492188 0)"/>
       <use xlink:href="#DejaVuSans-30" transform="translate(290.576172 0)"/>
       <use xlink:href="#DejaVuSans-31" transform="translate(354.199219 0)"/>
      </g>
     </g>
    </g>
    <g id="xtick_2">
     <g id="line2d_2">
      <g>
       <use xlink:href="#m91b259b883" x="164.181644" y="390.04" style="stroke: #000000; stroke-width: 0.8"/>
      </g>
     </g>
     <g id="text_2">
      <!-- 2024-04 -->
      <g transform="translate(143.290238 404.638438) scale(0.1 -0.1)">
       <use xlink:href="#DejaVuSans-32"/>
       <use xlink:href="#DejaVuSans-30" transform="translate(63.623047 0)"/>
       <use xlink:href="#DejaVuSans-32" transform="translate(127.246094 0)"/>
       <use xlink:href="#DejaVuSans-34" transform="translate(190.869141 0)"/>
       <use xlink:href="#DejaVuSans-2d" transform="translate(254.492188 0)"/>
       <use xlink:href="#DejaVuSans-30" transform="translate(290.576172 0)"/>
       <use xlink:href="#DejaVuSans-34" transform="translate(354.199219 0)"/>
      </g>
     </g>
    </g>
    <g id="xtick_3">
     <g id="line2d_3">
      <g>
       <use xlink:href="#m91b259b883" x="247.303288" y="390.04" style="stroke: #000000; stroke-width: 0.8"/>
      </g>
     </g>
     <g id="text_3">
      <!-- 2024-07 -->
      <g transform="translate(226.411881 404.638438) scale(0.1 -0.1)">
       <defs>
        <path id="DejaVuSans-37" d="M 525 4666 
L 3525 4666 
L 3525 4397 
L 1831 0 
L 1172 0 
L 2766 4134 
L 525 4134 
L 525 4666 
z
" transform="scale(0.015625)"/>
       </defs>
       <use xlink:href="#DejaVuSans-32"/>
       <use xlink:href="#DejaVuSans-30" transform="translate(63.623047 0)"/>
       <use xlink:href="#DejaVuSans-32" transform="translate(127.246094 0)"/>
       <use xlink:href="#DejaVuSans-34" transform="translate(190.869141 0)"/>
       <use xlink:href="#DejaVuSans-2d" transform="translate(254.492188 0)"/>
       <use xlink:href="#DejaVuSans-30" transform="translate(290.576172 0)"/>
       <use xlink:href="#DejaVuSans-37" transform="translate(354.199219 0)"/>
      </g>
     </g>
    </g>
    <g id="xtick_4">
     <g id="line2d_4">
      <g>
       <use xlink:href="#m91b259b883" x="331.338356" y="390.04" style="stroke: #000000; stroke-width: 0.8"/>
      </g>
     </g>
     <g id="text_4">
      <!-- 2024-10 -->
      <g transform="translate(310.44695 404.638438) scale(0.1 -0.1)">
       <use xlink:href="#DejaVuSans-32"/>
       <use xlink:href="#DejaVuSans-30" transform="translate(63.623047 0)"/>
       <use xlink:href="#DejaVuSans-32" transform="translate(127.246094 0)"/>
       <use xlink:href="#DejaVuSans-34" transform="translate(190.869141 0)"/>
       <use xlink:href="#DejaVuSans-2d" transform="translate(254.492188 0)"/>
       <use xlink:href="#DejaVuSans-31" transform="translate(290.576172 0)"/>
       <use xlink:href="#DejaVuSans-30" transform="translate(354.199219 0)"/>
      </g>
     </g>
    </g>
    <g id="xtick_5">
     <g id="line2d_5">
      <g>
       <use xlink:href="#m91b259b883" x="415.373425" y="390.04" style="stroke: #000000; stroke-width: 0.8"/>
      </g>
     </g>
     <g id="text_5">
      <!-- 2025-01 -->
      <g transform="translate(394.482018 404.638438) scale(0.1 -0.1)">
       <defs>
        <path id="DejaVuSans-35" d="M 691 4666 
L 3169 4666 
L 3169 4134 
L 1269 4134 
L 1269 2991 
Q 1406 3038 1543 3061 
Q 1681 3084 1819 3084 
Q 2600 3084 3056 2656 
Q 3513 2228 3513 1497 
Q 3513 744 3044 326 
Q 2575 -91 1722 -91 
Q 1428 -91 1123 -41 
Q 819 9 494 109 
L 494 744 
Q 775 591 1075 516 
Q 1375 441 1709 441 
Q 2250 441 2565 725 
Q 2881 1009 2881 1497 
Q 2881 1984 2565 2268 
Q 2250 2553 1709 2553 
Q 1456 2553 1204 2497 
Q 953 2441 691 2322 
L 691 4666 
z
" transform="scale(0.015625)"/>
       </defs>
       <use xlink:href="#DejaVuSans-32"/>
       <use xlink:href="#DejaVuSans-30" transform="translate(63.623047 0)"/>
       <use xlink:href="#DejaVuSans-32" transform="translate(127.246094 0)"/>
       <use xlink:href="#DejaVuSans-35" transform="translate(190.869141 0)"/>
       <use xlink:href="#DejaVuSans-2d" transform="translate(254.492188 0)"/>
       <use xlink:href="#DejaVuSans-30" transform="translate(290.576172 0)"/>
       <use xlink:href="#DejaVuSans-31" transform="translate(354.199219 0)"/>
      </g>
     </g>
    </g>
    <g id="xtick_6">
     <g id="line2d_6">
      <g>
       <use xlink:href="#m91b259b883" x="497.581644" y="390.04" style="stroke: #000000; stroke-width: 0.8"/>
      </g>
     </g>
     <g id="text_6">
      <!-- 2025-04 -->
      <g transform="translate(476.690238 404.638438) scale(0.1 -0.1)">
       <use xlink:href="#DejaVuSans-32"/>
       <use xlink:href="#DejaVuSans-30" transform="translate(63.623047 0)"/>
       <use xlink:href="#DejaVuSans-32" transform="translate(127.246094 0)"/>
       <use xlink:href="#DejaVuSans-35" transform="translate(190.869141 0)"/>
       <use xlink:href="#DejaVuSans-2d" transform="translate(254.492188 0)"/>
       <use xlink:href="#DejaVuSans-30" transform="translate(290.576172 0)"/>
       <use xlink:href="#DejaVuSans-34" transform="translate(354.199219 0)"/>
      </g>
     </g>
    </g>
    <g id="xtick_7">
     <g id="line2d_7">
      <g>
       <use xlink:href="#m91b259b883" x="580.703288" y="390.04" style="stroke: #000000; stroke-width: 0.8"/>
      </g>
     </g>
     <g id="text_7">
      <!-- 2025-07 -->
      <g transform="translate(559.811881 404.638438) scale(0.1 -0.1)">
       <use xlink:href="#DejaVuSans-32"/>
       <use xlink:href="#DejaVuSans-30" transform="translate(63.623047 0)"/>
       <use xlink:href="#DejaVuSans-32" transform="translate(127.246094 0)"/>
       <use xlink:href="#DejaVuSans-35" transform="translate(190.869141 0)"/>
       <use xlink:href="#DejaVuSans-2d" transform="translate(254.492188 0)"/>
       <use xlink:href="#DejaVuSans-30" transform="translate(290.576172 0)"/>
       <use xlink:href="#DejaVuSans-37" transform="translate(354.199219 0)"/>
      </g>
     </g>
    </g>
    <g id="xtick_8">
     <g id="line2d_8">
      <g>
       <use xlink:href="#m91b259b883" x="664.738356" y="390.04" style="stroke: #000000; stroke-width: 0.8"/>
      </g>
     </g>
     <g id="text_8">
      <!-- 2025-10 -->
      <g transform="translate(643.84695 404.638438) scale(0.1 -0.1)">
       <use xlink:href="#DejaVuSans-32"/>
       <use xlink:href="#DejaVuSans-30" transform="translate(63.623047 0)"/>
       <use xlink:href="#DejaVuSans-32" transform="translate(127.246094 0)"/>
       <use xlink:href="#DejaVuSans-35" transform="translate(190.869141 0)"/>
       <use xlink:href="#DejaVuSans-2d" transform="translate(254.492188 0)"/>
       <use xlink:href="#DejaVuSans-31" transform="translate(290.576172 0)"/>
       <use xlink:href="#DejaVuSans-30" transform="translate(354.199219 0)"/>
      </g>
     </g>
    </g>
    <g id="xtick_9">
     <g id="line2d_9">
      <g>
       <use xlink:href="#m91b259b883" x="748.773425" y="390.04" style="stroke: #000000; stroke-width: 0.8"/>
      </g>
     </g>
     <g id="text_9">
      <!-- 2026-01 -->
      <g transform="translate(727.882018 404.638438) scale(0.1 -0.1)">
       <defs>
        <path id="DejaVuSans-36" d="M 2113 2584 
Q 1688 2584 1439 2293 
Q 1191 2003 1191 1497 
Q 1191 994 1439 701 
Q 1688 409 2113 409 
Q 2538 409 2786 701 
Q 3034 994 3034 1497 
Q 3034 2003 2786 2293 
Q 2538 2584 2113 2584 
z
M 3366 4563 
L 3366 3988 
Q 3128 4100 2886 4159 
Q 2644 4219 2406 4219 
Q 1781 4219 1451 3797 
Q 1122 3375 1075 2522 
Q 1259 2794 1537 2939 
Q 1816 3084 2150 3084 
Q 2853 3084 3261 2657 
Q 3669 2231 3669 1497 
Q 3669 778 3244 343 
Q 2819 -91 2113 -91 
Q 1303 -91 875 529 
Q 447 1150 447 2328 
Q 447 3434 972 4092 
Q 1497 4750 2381 4750 
Q 2619 4750 2861 4703 
Q 3103 4656 3366 4563 
z
" transform="scale(0.015625)"/>
       </defs>
       <use xlink:href="#DejaVuSans-32"/>
       <use xlink:href="#DejaVuSans-30" transform="translate(63.623047 0)"/>
       <use xlink:href="#DejaVuSans-32" transform="translate(127.246094 0)"/>
       <use xlink:href="#DejaVuSans-36" transform="translate(190.869141 0)"/>
       <use xlink:href="#DejaVuSans-2d" transform="translate(254.492188 0)"/>
       <use xlink:href="#DejaVuSans-30" transform="translate(290.576172 0)"/>
       <use xlink:href="#DejaVuSans-31" transform="translate(354.199219 0)"/>
      </g>
     </g>
    </g>
    <g id="text_10">
     <!-- Date -->
     <g transform="translate(402.509219 418.316562) scale(0.1 -0.1)">
      <defs>
       <path id="DejaVuSans-44" d="M 1259 4147 
L 1259 519 
L 2022 519 
Q 2988 519 3436 956 
Q 3884 1394 3884 2338 
Q 3884 3275 3436 3711 
Q 2988 4147 2022 4147 
L 1259 4147 
z
M 628 4666 
L 1925 4666 
Q 3281 4666 3915 4102 
Q 4550 3538 4550 2338 
Q 4550 1131 3912 565 
Q 3275 0 1925 0 
L 628 0 
L 628 4666 
z
" transform="scale(0.015625)"/>
       <path id="DejaVuSans-61" d="M 2194 1759 
Q 1497 1759 1228 1600 
Q 959 1441 959 1056 
Q 959 750 1161 570 
Q 1363 391 1709 391 
Q 2188 391 2477 730 
Q 2766 1069 2766 1631 
L 2766 1759 
L 2194 1759 
z
M 3341 1997 
L 3341 0 
L 2766 0 
L 2766 531 
Q 2569 213 2275 61 
Q 1981 -91 1556 -91 
Q 1019 -91 701 211 
Q 384 513 384 1019 
Q 384 1609 779 1909 
Q 1175 2209 1959 2209 
L 2766 2209 
L 2766 2266 
Q 2766 2663 2505 2880 
Q 2244 3097 1772 3097 
Q 1472 3097 1187 3025 
Q 903 2953 641 2809 
L 641 3341 
Q 956 3463 1253 3523 
Q 1550 3584 1831 3584 
Q 2591 3584 2966 3190 
Q 3341 2797 3341 1997 
z
" transform="scale(0.015625)"/>
       <path id="DejaVuSans-74" d="M 1172 4494 
L 1172 3500 
L 2356 3500 
L 2356 3053 
L 1172 3053 
L 1172 1153 
Q 1172 725 1289 603 
Q 1406 481 1766 481 
L 2356 481 
L 2356 0 
L 1766 0 
Q 1100 0 847 248 
Q 594 497 594 1153 
L 594 3053 
L 172 3053 
L 172 3500 
L 594 3500 
L 594 4494 
L 1172 4494 
z
" transform="scale(0.015625)"/>
       <path id="DejaVuSans-65" d="M 3597 1894 
L 3597 1613 
L 953 1613 
Q 991 1019 1311 708 
Q 1631 397 2203 397 
Q 2534 397 2845 478 
Q 3156 559 3463 722 
L 3463 178 
Q 3153 47 2828 -22 
Q 2503 -91 2169 -91 
Q 1331 -91 842 396 
Q 353 884 353 1716 
Q 353 2575 817 3079 
Q 1281 3584 2069 3584 
Q 2775 3584 3186 3129 
Q 3597 2675 3597 1894 
z
M 3022 2063 
Q 3016 2534 2758 2815 
Q 2500 3097 2075 3097 
Q 1594 3097 1305 2825 
Q 1016 2553 972 2059 
L 3022 2063 
z
" transform="scale(0.015625)"/>
      </defs>
      <use xlink:href="#DejaVuSans-44"/>
      <use xlink:href="#DejaVuSans-61" transform="translate(77.001953 0)"/>
      <use xlink:href="#DejaVuSans-74" transform="translate(138.28125 0)"/>
      <use xlink:href="#DejaVuSans-65" transform="translate(177.490234 0)"/>
     </g>
    </g>
   </g>
   <g id="matplotlib.axis_2">
    <g id="ytick_1">
     <g id="line2d_10">
      <defs>
       <path id="mc1210b3648" d="M 0 0 
L -3.5 0 
" style="stroke: #000000; stroke-width: 0.8"/>
      </defs>
      <g>
       <use xlink:href="#mc1210b3648" x="47.72" y="367.902315" style="stroke: #000000; stroke-width: 0.8"/>
      </g>
     </g>
     <g id="text_11">
      <!-- 1.0 -->
      <g transform="translate(24.816875 371.701534) scale(0.1 -0.1)">
       <defs>
        <path id="DejaVuSans-2e" d="M 684 794 
L 1344 794 
L 1344 0 
L 684 0 
L 684 794 
z
" transform="scale(0.015625)"/>
       </defs>
       <use xlink:href="#DejaVuSans-31"/>
       <use xlink:href="#DejaVuSans-2e" transform="translate(63.623047 0)"/>
       <use xlink:href="#DejaVuSans-30" transform="translate(95.410156 0)"/>
      </g>
     </g>
    </g>
    <g id="ytick_2">
     <g id="line2d_11">
      <g>
       <use xlink:href="#mc1210b3648" x="47.72" y="304.588098" style="stroke: #000000; stroke-width: 0.8"/>
      </g>
     </g>
     <g id="text_12">
      <!-- 1.5 -->
      <g transform="translate(24.816875 308.387316) scale(0.1 -0.1)">
       <use xlink:href="#DejaVuSans-31"/>
       <use xlink:href="#DejaVuSans-2e" transform="translate(63.623047 0)"/>
       <use xlink:href="#DejaVuSans-35" transform="translate(95.410156 0)"/>
      </g>
     </g>
    </g>
    <g id="ytick_3">
     <g id="line2d_12">
      <g>
       <use xlink:href="#mc1210b3648" x="47.72" y="241.27388" style="stroke: #000000; stroke-width: 0.8"/>
      </g>
     </g>
     <g id="text_13">
      <!-- 2.0 -->
      <g transform="translate(24.816875 245.073099) scale(0.1 -0.1)">
       <use xlink:href="#DejaVuSans-32"/>
       <use xlink:href="#DejaVuSans-2e" transform="translate(63.623047 0)"/>
       <use xlink:href="#DejaVuSans-30" transform="translate(95.410156 0)"/>
      </g>
     </g>
    </g>
    <g id="ytick_4">
     <g id="line2d_13">
      <g>
       <use xlink:href="#mc1210b3648" x="47.72" y="177.959662" style="stroke: #000000; stroke-width: 0.8"/>
      </g>
     </g>
     <g id="text_14">
      <!-- 2.5 -->
      <g transform="translate(24.816875 181.758881) scale(0.1 -0.1)">
       <use xlink:href="#DejaVuSans-32"/>
       <use xlink:href="#DejaVuSans-2e" transform="translate(63.623047 0)"/>
       <use xlink:href="#DejaVuSans-35" transform="translate(95.410156 0)"/>
      </g>
     </g>
    </g>
    <g id="ytick_5">
     <g id="line2d_14">
      <g>
       <use xlink:href="#mc1210b3648" x="47.72" y="114.645445" style="stroke: #000000; stroke-width: 0.8"/>
      </g>
     </g>
     <g id="text_15">
      <!-- 3.0 -->
      <g transform="translate(24.816875 118.444664) scale(0.1 -0.1)">
       <defs>
        <path id="DejaVuSans-33" d="M 2597 2516 
Q 3050 2419 3304 2112 
Q 3559 1806 3559 1356 
Q 3559 666 3084 287 
Q 2609 -91 1734 -91 
Q 1441 -91 1130 -33 
Q 819 25 488 141 
L 488 750 
Q 750 597 1062 519 
Q 1375 441 1716 441 
Q 2309 441 2620 675 
Q 2931 909 2931 1356 
Q 2931 1769 2642 2001 
Q 2353 2234 1838 2234 
L 1294 2234 
L 1294 2753 
L 1863 2753 
Q 2328 2753 2575 2939 
Q 2822 3125 2822 3475 
Q 2822 3834 2567 4026 
Q 2313 4219 1838 4219 
Q 1578 4219 1281 4162 
Q 984 4106 628 3988 
L 628 4550 
Q 988 4650 1302 4700 
Q 1616 4750 1894 4750 
Q 2613 4750 3031 4423 
Q 3450 4097 3450 3541 
Q 3450 3153 3228 2886 
Q 3006 2619 2597 2516 
z
" transform="scale(0.015625)"/>
       </defs>
       <use xlink:href="#DejaVuSans-33"/>
       <use xlink:href="#DejaVuSans-2e" transform="translate(63.623047 0)"/>
       <use xlink:href="#DejaVuSans-30" transform="translate(95.410156 0)"/>
      </g>
     </g>
    </g>
    <g id="ytick_6">
     <g id="line2d_15">
      <g>
       <use xlink:href="#mc1210b3648" x="47.72" y="51.331227" style="stroke: #000000; stroke-width: 0.8"/>
      </g>
     </g>
     <g id="text_16">
      <!-- 3.5 -->
      <g transform="translate(24.816875 55.130446) scale(0.1 -0.1)">
       <use xlink:href="#DejaVuSans-33"/>
       <use xlink:href="#DejaVuSans-2e" transform="translate(63.623047 0)"/>
       <use xlink:href="#DejaVuSans-35" transform="translate(95.410156 0)"/>
      </g>
     </g>
    </g>
    <g id="text_17">
     <!-- Portfolio value (USD) -->
     <g transform="translate(18.737188 260.446719) rotate(-90) scale(0.1 -0.1)">
      <defs>
       <path id="DejaVuSans-50" d="M 1259 4147 
L 1259 2394 
L 2053 2394 
Q 2494 2394 2734 2622 
Q 2975 2850 2975 3272 
Q 2975 3691 2734 3919 
Q 2494 4147 2053 4147 
L 1259 4147 
z
M 628 4666 
L 2053 4666 
Q 2838 4666 3239 4311 
Q 3641 3956 3641 3272 
Q 3641 2581 3239 2228 
Q 2838 1875 2053 1875 
L 1259 1875 
L 1259 0 
L 628 0 
L 628 4666 
z
" transform="scale(0.015625)"/>
       <path id="DejaVuSans-6f" d="M 1959 3097 
Q 1497 3097 1228 2736 
Q 959 2375 959 1747 
Q 959 1119 1226 758 
Q 1494 397 1959 397 
Q 2419 397 2687 759 
Q 2956 1122 2956 1747 
Q 2956 2369 2687 2733 
Q 2419 3097 1959 3097 
z
M 1959 3584 
Q 2709 3584 3137 3096 
Q 3566 2609 3566 1747 
Q 3566 888 3137 398 
Q 2709 -91 1959 -91 
Q 1206 -91 779 398 
Q 353 888 353 1747 
Q 353 2609 779 3096 
Q 1206 3584 1959 3584 
z
" transform="scale(0.015625)"/>
       <path id="DejaVuSans-72" d="M 2631 2963 
Q 2534 3019 2420 3045 
Q 2306 3072 2169 3072 
Q 1681 3072 1420 2755 
Q 1159 2438 1159 1844 
L 1159 0 
L 581 0 
L 581 3500 
L 1159 3500 
L 1159 2956 
Q 1341 3275 1631 3429 
Q 1922 3584 2338 3584 
Q 2397 3584 2469 3576 
Q 2541 3569 2628 3553 
L 2631 2963 
z
" transform="scale(0.015625)"/>
       <path id="DejaVuSans-66" d="M 2375 4863 
L 2375 4384 
L 1825 4384 
Q 1516 4384 1395 4259 
Q 1275 4134 1275 3809 
L 1275 3500 
L 2222 3500 
L 2222 3053 
L 1275 3053 
L 1275 0 
L 697 0 
L 697 3053 
L 147 3053 
L 147 3500 
L 697 3500 
L 697 3744 
Q 697 4328 969 4595 
Q 1241 4863 1831 4863 
L 2375 4863 
z
" transform="scale(0.015625)"/>
       <path id="DejaVuSans-6c" d="M 603 4863 
L 1178 4863 
L 1178 0 
L 603 0 
L 603 4863 
z
" transform="scale(0.015625)"/>
       <path id="DejaVuSans-69" d="M 603 3500 
L 1178 3500 
L 1178 0 
L 603 0 
L 603 3500 
z
M 603 4863 
L 1178 4863 
L 1178 4134 
L 603 4134 
L 603 4863 
z
" transform="scale(0.015625)"/>
       <path id="DejaVuSans-20" transform="scale(0.015625)"/>
       <path id="DejaVuSans-76" d="M 191 3500 
L 800 3500 
L 1894 563 
L 2988 3500 
L 3597 3500 
L 2284 0 
L 1503 0 
L 191 3500 
z
" transform="scale(0.015625)"/>
       <path id="DejaVuSans-75" d="M 544 1381 
L 544 3500 
L 1119 3500 
L 1119 1403 
Q 1119 906 1312 657 
Q 1506 409 1894 409 
Q 2359 409 2629 706 
Q 2900 1003 2900 1516 
L 2900 3500 
L 3475 3500 
L 3475 0 
L 2900 0 
L 2900 538 
Q 2691 219 2414 64 
Q 2138 -91 1772 -91 
Q 1169 -91 856 284 
Q 544 659 544 1381 
z
M 1991 3584 
L 1991 3584 
z
" transform="scale(0.015625)"/>
       <path id="DejaVuSans-28" d="M 1984 4856 
Q 1566 4138 1362 3434 
Q 1159 2731 1159 2009 
Q 1159 1288 1364 580 
Q 1569 -128 1984 -844 
L 1484 -844 
Q 1016 -109 783 600 
Q 550 1309 550 2009 
Q 550 2706 781 3412 
Q 1013 4119 1484 4856 
L 1984 4856 
z
" transform="scale(0.015625)"/>
       <path id="DejaVuSans-55" d="M 556 4666 
L 1191 4666 
L 1191 1831 
Q 1191 1081 1462 751 
Q 1734 422 2344 422 
Q 2950 422 3222 751 
Q 3494 1081 3494 1831 
L 3494 4666 
L 4128 4666 
L 4128 1753 
Q 4128 841 3676 375 
Q 3225 -91 2344 -91 
Q 1459 -91 1007 375 
Q 556 841 556 1753 
L 556 4666 
z
" transform="scale(0.015625)"/>
       <path id="DejaVuSans-53" d="M 3425 4513 
L 3425 3897 
Q 3066 4069 2747 4153 
Q 2428 4238 2131 4238 
Q 1616 4238 1336 4038 
Q 1056 3838 1056 3469 
Q 1056 3159 1242 3001 
Q 1428 2844 1947 2747 
L 2328 2669 
Q 3034 2534 3370 2195 
Q 3706 1856 3706 1288 
Q 3706 609 3251 259 
Q 2797 -91 1919 -91 
Q 1588 -91 1214 -16 
Q 841 59 441 206 
L 441 856 
Q 825 641 1194 531 
Q 1563 422 1919 422 
Q 2459 422 2753 634 
Q 3047 847 3047 1241 
Q 3047 1584 2836 1778 
Q 2625 1972 2144 2069 
L 1759 2144 
Q 1053 2284 737 2584 
Q 422 2884 422 3419 
Q 422 4038 858 4394 
Q 1294 4750 2059 4750 
Q 2388 4750 2728 4690 
Q 3069 4631 3425 4513 
z
" transform="scale(0.015625)"/>
       <path id="DejaVuSans-29" d="M 513 4856 
L 1013 4856 
Q 1481 4119 1714 3412 
Q 1947 2706 1947 2009 
Q 1947 1309 1714 600 
Q 1481 -109 1013 -844 
L 513 -844 
Q 928 -128 1133 580 
Q 1338 1288 1338 2009 
Q 1338 2731 1133 3434 
Q 928 4138 513 4856 
z
" transform="scale(0.015625)"/>
      </defs>
      <use xlink:href="#DejaVuSans-50"/>
      <use xlink:href="#DejaVuSans-6f" transform="translate(56.677734 0)"/>
      <use xlink:href="#DejaVuSans-72" transform="translate(117.859375 0)"/>
      <use xlink:href="#DejaVuSans-74" transform="translate(158.972656 0)"/>
      <use xlink:href="#DejaVuSans-66" transform="translate(198.181641 0)"/>
      <use xlink:href="#DejaVuSans-6f" transform="translate(233.386719 0)"/>
      <use xlink:href="#DejaVuSans-6c" transform="translate(294.568359 0)"/>
      <use xlink:href="#DejaVuSans-69" transform="translate(322.351562 0)"/>
      <use xlink:href="#DejaVuSans-6f" transform="translate(350.134766 0)"/>
      <use xlink:href="#DejaVuSans-20" transform="translate(411.316406 0)"/>
      <use xlink:href="#DejaVuSans-76" transform="translate(443.103516 0)"/>
      <use xlink:href="#DejaVuSans-61" transform="translate(502.283203 0)"/>
      <use xlink:href="#DejaVuSans-6c" transform="translate(563.5625 0)"/>
      <use xlink:href="#DejaVuSans-75" transform="translate(591.345703 0)"/>
      <use xlink:href="#DejaVuSans-65" transform="translate(654.724609 0)"/>
      <use xlink:href="#DejaVuSans-20" transform="translate(716.248047 0)"/>
      <use xlink:href="#DejaVuSans-28" transform="translate(748.035156 0)"/>
      <use xlink:href="#DejaVuSans-55" transform="translate(787.048828 0)"/>
      <use xlink:href="#DejaVuSans-53" transform="translate(860.242188 0)"/>
      <use xlink:href="#DejaVuSans-44" transform="translate(923.71875 0)"/>
      <use xlink:href="#DejaVuSans-29" transform="translate(1000.720703 0)"/>
     </g>
    </g>
   </g>
   <g id="line2d_16">
    <path d="M 81.06 367.902315 
L 81.06 367.679987 
L 81.973425 367.654991 
L 82.886849 366.971819 
L 84.713699 366.446925 
L 88.367397 366.481543 
L 89.280822 366.151273 
L 90.194247 365.986527 
L 91.107671 365.98911 
L 93.847945 365.868581 
L 94.76137 366.349222 
L 95.674795 365.636813 
L 96.588219 365.443218 
L 97.501644 364.906428 
L 102.068767 364.653771 
L 103.895616 364.186133 
L 106.63589 364.073161 
L 107.549315 363.651105 
L 108.46274 363.693751 
L 109.376164 363.173603 
L 110.289589 363.023322 
L 113.029863 362.205699 
L 113.943288 361.804909 
L 114.856712 361.243846 
L 116.683562 360.988278 
L 120.33726 360.194402 
L 122.16411 358.657391 
L 123.077534 358.563824 
L 126.731233 358.483602 
L 134.952055 357.649548 
L 135.865479 357.022315 
L 139.519178 356.522408 
L 140.432603 356.211954 
L 141.346027 355.385373 
L 142.259452 354.898897 
L 144.999726 354.00811 
L 146.826575 353.936537 
L 147.74 353.613645 
L 148.653425 353.019557 
L 152.307123 352.838137 
L 153.220548 352.59163 
L 154.133973 351.698496 
L 155.047397 350.984476 
L 158.701096 349.93669 
L 159.614521 350.051432 
L 161.44137 349.766063 
L 164.181644 349.793536 
L 167.835342 347.792624 
L 170.575616 347.843669 
L 171.489041 347.325774 
L 172.402466 346.941701 
L 173.31589 345.689198 
L 174.229315 345.064761 
L 176.969589 344.504725 
L 178.796438 344.879861 
L 179.709863 344.624187 
L 180.623288 344.607035 
L 183.363562 344.766243 
L 184.276986 344.204871 
L 185.190411 343.893773 
L 189.757534 343.395481 
L 190.670959 341.99743 
L 191.584384 341.056378 
L 192.497808 340.52487 
L 193.411233 338.558614 
L 197.064932 337.737789 
L 198.891781 337.622321 
L 199.805205 336.960707 
L 202.545479 336.856979 
L 204.372329 336.519318 
L 205.285753 335.460408 
L 206.199178 335.386692 
L 209.852877 334.894452 
L 210.766301 334.937353 
L 211.679726 334.564773 
L 218.073699 334.556536 
L 218.987123 333.867879 
L 221.727397 333.695509 
L 222.640822 333.262216 
L 223.554247 332.201772 
L 224.467671 331.950814 
L 225.381096 331.866964 
L 229.034795 330.606789 
L 229.948219 330.584593 
L 230.861644 329.812327 
L 231.775068 329.423 
L 235.428767 329.173946 
L 236.342192 328.51324 
L 240.909315 328.368247 
L 241.82274 328.208258 
L 244.563014 328.259475 
L 247.303288 327.790655 
L 248.216712 327.752559 
L 249.130137 327.527273 
L 250.043562 327.027342 
L 250.956986 326.975819 
L 253.69726 326.534884 
L 255.52411 326.514119 
L 256.437534 326.196815 
L 257.350959 323.402427 
L 260.091233 323.404288 
L 261.918082 322.994822 
L 262.831507 320.806126 
L 263.744932 320.585796 
L 266.485205 320.451366 
L 267.39863 319.733195 
L 268.312055 318.312826 
L 269.225479 316.451122 
L 272.879178 315.900136 
L 273.792603 316.032036 
L 274.706027 314.899735 
L 275.619452 312.403837 
L 276.532877 311.744655 
L 279.273151 309.532411 
L 280.186575 310.016219 
L 281.1 310.188155 
L 282.013425 309.897424 
L 282.926849 307.719231 
L 286.580548 306.848688 
L 287.493973 306.055813 
L 288.407397 305.960138 
L 289.320822 305.047539 
L 292.061096 304.275513 
L 292.974521 303.877967 
L 293.887945 302.840385 
L 294.80137 302.715451 
L 295.714795 302.367259 
L 298.455068 301.470435 
L 299.368493 301.343789 
L 300.281918 301.060915 
L 301.195342 300.911601 
L 302.108767 300.309382 
L 304.849041 299.891491 
L 305.762466 299.505115 
L 307.589315 295.516454 
L 308.50274 295.38031 
L 311.243014 293.767569 
L 312.156438 293.780796 
L 313.069863 292.55312 
L 313.983288 291.685184 
L 314.896712 290.988904 
L 317.636986 290.247767 
L 318.550411 289.785513 
L 319.463836 289.748913 
L 320.37726 289.565707 
L 321.290685 288.805655 
L 324.030959 288.52659 
L 324.944384 288.091656 
L 325.857808 287.981428 
L 326.771233 286.751792 
L 327.684658 285.332484 
L 330.424932 282.52908 
L 331.338356 282.195953 
L 332.251781 282.097725 
L 334.07863 281.176524 
L 336.818904 280.517571 
L 337.732329 279.460196 
L 339.559178 279.156862 
L 340.472603 278.593745 
L 343.212877 278.641434 
L 344.126301 278.333305 
L 345.039726 277.278409 
L 345.953151 277.339229 
L 346.866575 276.107017 
L 350.520274 275.675626 
L 351.433699 274.612377 
L 352.347123 274.411098 
L 353.260548 273.670146 
L 356.914247 273.403544 
L 358.741096 273.002129 
L 359.654521 271.415088 
L 363.308219 271.182925 
L 364.221644 270.405577 
L 365.135068 267.730739 
L 366.048493 265.426203 
L 368.788767 264.013592 
L 369.702192 263.765879 
L 375.18274 258.960397 
L 376.096164 258.566169 
L 377.009589 257.685747 
L 377.923014 257.605562 
L 378.836438 255.669548 
L 381.576712 255.474749 
L 382.490137 254.727767 
L 384.316986 251.762554 
L 385.230411 251.863553 
L 387.970685 250.00591 
L 388.88411 248.774397 
L 389.797534 248.83157 
L 390.710959 248.191718 
L 391.624384 248.059493 
L 394.364658 247.154331 
L 395.278082 245.556241 
L 397.104932 244.570535 
L 398.018356 244.212709 
L 400.75863 244.263255 
L 401.672055 243.705061 
L 402.585479 242.66067 
L 403.498904 240.297073 
L 404.412329 239.575739 
L 407.152603 238.789546 
L 408.066027 238.276272 
L 410.806301 238.093895 
L 413.546575 237.794629 
L 414.46 236.433956 
L 416.286849 236.859315 
L 417.200274 235.789779 
L 419.940548 235.283001 
L 420.853973 235.255675 
L 421.767397 234.862273 
L 422.680822 235.069489 
L 427.247945 233.449169 
L 428.16137 233.27409 
L 429.074795 231.002693 
L 429.988219 229.412527 
L 432.728493 229.454568 
L 433.641918 228.810379 
L 434.555342 228.538547 
L 435.468767 228.676608 
L 436.382192 228.480979 
L 439.122466 228.359746 
L 440.03589 226.928768 
L 441.86274 226.619106 
L 442.776164 224.287957 
L 445.516438 224.437661 
L 446.429863 226.065369 
L 447.343288 225.8071 
L 448.256712 223.953813 
L 449.170137 224.495287 
L 451.910411 224.434543 
L 452.823836 223.86379 
L 453.73726 222.928691 
L 454.650685 222.910016 
L 455.56411 222.558374 
L 459.217808 221.847255 
L 460.131233 222.247542 
L 461.044658 220.680627 
L 461.958082 220.365291 
L 466.525205 219.679531 
L 467.43863 219.035955 
L 468.352055 217.245745 
L 471.092329 217.031207 
L 472.919178 215.725778 
L 473.832603 214.283365 
L 474.746027 213.364031 
L 477.486301 213.026803 
L 478.399726 211.874976 
L 479.313151 211.280094 
L 481.14 209.191548 
L 483.880274 207.590043 
L 484.793699 205.909766 
L 485.707123 205.903029 
L 486.620548 204.346517 
L 487.533973 203.48029 
L 490.274247 203.313434 
L 491.187671 202.944967 
L 492.101096 202.285142 
L 493.014521 202.258317 
L 493.927945 201.782752 
L 496.668219 199.63016 
L 497.581644 199.412198 
L 498.495068 199.597788 
L 499.408493 201.891428 
L 500.321918 200.808683 
L 503.062192 198.110625 
L 503.975616 197.802558 
L 504.889041 194.900546 
L 505.802466 186.605705 
L 506.71589 184.149203 
L 510.369589 183.252828 
L 511.283014 182.416159 
L 512.196438 181.21033 
L 515.850137 181.21033 
L 516.763562 180.728555 
L 517.676986 178.200515 
L 518.590411 177.999573 
L 519.503836 176.87595 
L 522.24411 176.576792 
L 523.157534 174.703793 
L 524.984384 173.848302 
L 525.897808 172.493048 
L 528.638082 170.49888 
L 529.551507 168.832473 
L 530.464932 168.499635 
L 531.378356 167.506306 
L 532.291781 165.97233 
L 535.032055 165.810298 
L 537.772329 159.033958 
L 538.685753 157.380796 
L 541.426027 157.49885 
L 542.339452 156.013343 
L 543.252877 155.125363 
L 544.166301 155.215727 
L 547.82 155.044482 
L 550.560274 154.070595 
L 551.473699 151.806515 
L 554.213973 151.90447 
L 555.127397 150.926593 
L 556.040822 150.140731 
L 556.954247 148.572462 
L 557.867671 148.135371 
L 560.607945 147.650628 
L 561.52137 147.029469 
L 562.434795 146.759502 
L 563.348219 145.983174 
L 564.261644 144.653607 
L 567.001918 144.692326 
L 567.915342 143.951876 
L 568.828767 142.304582 
L 569.742192 141.410606 
L 570.655616 140.795186 
L 573.39589 140.496558 
L 576.136164 138.94671 
L 577.049589 138.562506 
L 579.789863 138.639207 
L 580.703288 137.600457 
L 581.616712 137.106226 
L 582.530137 136.879187 
L 583.443562 136.209021 
L 586.183836 135.593208 
L 587.09726 134.932813 
L 588.010685 133.644563 
L 588.92411 133.448108 
L 589.837534 130.345836 
L 592.577808 130.385542 
L 593.491233 130.960721 
L 594.404658 130.261018 
L 595.318082 128.927321 
L 596.231507 128.505557 
L 598.971781 128.549779 
L 599.885205 127.319161 
L 600.79863 127.053182 
L 601.712055 125.314119 
L 602.625479 124.917084 
L 605.365753 124.093266 
L 606.279178 121.908043 
L 607.192603 121.286464 
L 608.106027 119.128276 
L 609.019452 118.91077 
L 611.759726 113.317625 
L 612.673151 113.217075 
L 613.586575 112.947547 
L 614.5 112.403107 
L 615.413425 112.05931 
L 619.067123 111.713154 
L 619.980548 111.294808 
L 620.893973 111.151356 
L 621.807397 109.727765 
L 625.461096 109.787063 
L 626.374521 108.657411 
L 627.287945 107.760711 
L 628.20137 107.571092 
L 634.595342 104.575325 
L 637.335616 104.2533 
L 638.249041 103.778595 
L 639.162466 103.922774 
L 640.07589 103.102626 
L 640.989315 102.869451 
L 643.729589 103.459474 
L 645.556438 102.59443 
L 647.383288 99.140731 
L 650.123562 99.056011 
L 651.036986 98.826489 
L 653.77726 96.094903 
L 658.344384 95.17415 
L 659.257808 95.113595 
L 660.171233 94.072987 
L 662.911507 93.560233 
L 664.738356 91.219951 
L 665.651781 89.144416 
L 666.565205 89.002854 
L 669.305479 88.227558 
L 670.218904 87.479905 
L 671.132329 87.071848 
L 672.045753 86.926406 
L 672.959178 85.441223 
L 675.699452 84.473502 
L 676.612877 85.022413 
L 677.526301 83.196038 
L 678.439726 82.716452 
L 679.353151 81.713976 
L 682.093425 80.190513 
L 683.006849 79.350389 
L 683.920274 78.223081 
L 684.833699 78.180246 
L 685.747123 76.77577 
L 689.400822 76.667203 
L 690.314247 77.427796 
L 691.227671 76.098689 
L 692.141096 75.941267 
L 694.88137 75.997482 
L 695.794795 75.460463 
L 696.708219 72.856281 
L 697.621644 71.570122 
L 698.535068 69.703389 
L 701.275342 69.338941 
L 702.188767 67.825199 
L 703.102192 67.603749 
L 704.015616 67.541489 
L 704.929041 67.245665 
L 707.669315 67.050583 
L 708.58274 66.405007 
L 709.496164 65.519086 
L 710.409589 63.771497 
L 714.063288 61.369826 
L 715.890137 61.140902 
L 716.803562 59.104479 
L 717.716986 58.49188 
L 720.45726 58.026748 
L 721.370685 56.841158 
L 722.28411 55.408317 
L 723.197534 54.895625 
L 724.110959 54.217272 
L 726.851233 52.900724 
L 727.764658 52.78138 
L 728.678082 52.31744 
L 729.591507 52.103568 
L 730.504932 50.757475 
L 733.245205 50.734222 
L 734.15863 48.71998 
L 735.072055 48.383947 
L 735.985479 48.352589 
L 736.898904 47.756055 
L 739.639178 47.001682 
L 741.466027 44.347846 
L 746.033151 44.441034 
L 746.946575 43.387273 
L 747.86 43.541264 
L 747.86 43.541264 
" clip-path="url(#p66723d64a1)" style="fill: none; stroke: #1f77b4; stroke-width: 1.5; stroke-linecap: square"/>
   </g>
   <g id="line2d_17">
    <path d="M 81.06 367.902315 
L 747.86 367.902315 
L 747.86 367.902315 
" clip-path="url(#p66723d64a1)" style="fill: none; stroke-dasharray: 5.55,2.4; stroke-dashoffset: 0; stroke: #ff7f0e; stroke-width: 1.5"/>
   </g>
   <g id="line2d_18">
    <path d="M 81.06 367.902315 
L 81.06 367.651558 
L 81.973425 367.728593 
L 82.886849 368.17283 
L 83.800274 367.843223 
L 84.713699 367.730308 
L 87.453973 367.92194 
L 88.367397 367.680377 
L 89.280822 368.016583 
L 90.194247 367.638011 
L 91.107671 367.963995 
L 94.76137 368.232539 
L 95.674795 368.313743 
L 96.588219 368.56587 
L 97.501644 369.165161 
L 100.241918 369.333943 
L 101.155342 369.103218 
L 102.068767 369.417 
L 102.982192 368.606992 
L 103.895616 369.10249 
L 107.549315 368.544669 
L 108.46274 368.559122 
L 109.376164 368.447735 
L 110.289589 368.209678 
L 113.943288 368.726492 
L 114.856712 368.974707 
L 115.770137 369.562184 
L 116.683562 369.308213 
L 120.33726 369.482785 
L 121.250685 370.343429 
L 122.16411 370.252332 
L 123.077534 369.933209 
L 127.644658 370.21919 
L 128.558082 369.914484 
L 129.471507 370.04782 
L 132.211781 370.192711 
L 134.952055 369.623806 
L 135.865479 370.322681 
L 138.605753 370.3643 
L 139.519178 370.53467 
L 140.432603 370.372601 
L 141.346027 370.607507 
L 142.259452 370.512799 
L 144.999726 370.70102 
L 146.826575 370.46352 
L 148.653425 370.974346 
L 151.393699 370.738063 
L 152.307123 371.186773 
L 153.220548 370.974431 
L 154.133973 371.122842 
L 155.047397 372.108059 
L 157.787671 371.683132 
L 159.614521 372.560348 
L 160.527945 372.699674 
L 161.44137 372.187756 
L 165.095068 372.350865 
L 166.008493 372.8282 
L 167.835342 372.471992 
L 170.575616 372.498875 
L 171.489041 372.908597 
L 172.402466 372.742283 
L 173.31589 373.058817 
L 174.229315 372.729783 
L 176.969589 372.728293 
L 177.883014 372.217883 
L 179.709863 372.142747 
L 180.623288 372.228278 
L 183.363562 372.069068 
L 184.276986 372.221121 
L 186.103836 372.771529 
L 190.670959 372.585205 
L 191.584384 372.9906 
L 192.497808 373.148584 
L 193.411233 372.818265 
L 196.151507 372.416129 
L 197.064932 372.59198 
L 199.805205 372.324648 
L 202.545479 372.268654 
L 203.458904 372.50545 
L 205.285753 372.426855 
L 206.199178 372.852106 
L 208.939452 373.220323 
L 210.766301 373.292843 
L 211.679726 373.495651 
L 212.593151 373.251684 
L 216.246849 373.532727 
L 218.073699 373.030182 
L 218.987123 372.174024 
L 221.727397 372.074156 
L 222.640822 371.648758 
L 223.554247 370.894517 
L 224.467671 371.140976 
L 225.381096 370.910788 
L 229.034795 371.090252 
L 229.948219 371.215385 
L 230.861644 371.176475 
L 231.775068 370.828658 
L 235.428767 370.039522 
L 236.342192 369.60067 
L 237.255616 369.67529 
L 238.169041 370.305079 
L 241.82274 370.523846 
L 242.736164 370.700532 
L 243.649589 370.619128 
L 244.563014 370.914222 
L 248.216712 371.399087 
L 249.130137 371.628104 
L 250.043562 371.549587 
L 250.956986 371.606821 
L 253.69726 371.175245 
L 254.610685 371.485749 
L 255.52411 371.320578 
L 256.437534 371.646235 
L 257.350959 371.805662 
L 260.091233 371.961828 
L 261.004658 371.761294 
L 261.918082 371.413223 
L 262.831507 370.428971 
L 263.744932 370.685944 
L 267.39863 370.692232 
L 268.312055 370.859936 
L 270.138904 369.572845 
L 273.792603 370.110286 
L 274.706027 369.692885 
L 275.619452 369.674976 
L 276.532877 368.607854 
L 279.273151 367.28742 
L 280.186575 367.375551 
L 281.1 366.967828 
L 282.013425 367.672727 
L 282.926849 368.762587 
L 286.580548 368.600651 
L 287.493973 369.057476 
L 288.407397 368.908383 
L 289.320822 369.58 
L 292.974521 369.367482 
L 293.887945 368.558647 
L 295.714795 368.18241 
L 298.455068 368.432642 
L 299.368493 368.298483 
L 300.281918 367.814256 
L 301.195342 367.57685 
L 302.108767 368.181917 
L 305.762466 368.436092 
L 306.67589 368.103325 
L 308.50274 367.860805 
L 311.243014 367.661447 
L 312.156438 368.069873 
L 313.069863 367.711679 
L 313.983288 368.481968 
L 314.896712 368.585002 
L 317.636986 368.422815 
L 318.550411 368.240824 
L 320.37726 368.374729 
L 321.290685 368.776582 
L 324.030959 369.126249 
L 324.944384 368.770748 
L 325.857808 368.627353 
L 326.771233 369.133294 
L 330.424932 368.405375 
L 331.338356 368.832552 
L 332.251781 368.667742 
L 333.165205 368.779396 
L 334.07863 368.666135 
L 336.818904 369.158363 
L 337.732329 368.503326 
L 338.645753 368.713036 
L 339.559178 368.754818 
L 340.472603 368.292052 
L 343.212877 368.392007 
L 344.126301 368.756652 
L 345.039726 368.689006 
L 345.953151 368.855702 
L 349.606849 369.000177 
L 350.520274 368.57183 
L 351.433699 368.590534 
L 352.347123 368.317306 
L 353.260548 368.443062 
L 356.000822 368.461876 
L 356.914247 367.969465 
L 357.827671 368.235409 
L 358.741096 368.178127 
L 359.654521 367.88583 
L 362.394795 368.471474 
L 363.308219 368.090593 
L 364.221644 368.352672 
L 366.048493 369.170668 
L 368.788767 369.062261 
L 369.702192 369.30784 
L 370.615616 369.000454 
L 372.442466 369.323233 
L 375.18274 369.218154 
L 376.096164 368.876281 
L 377.009589 368.918537 
L 377.923014 368.823453 
L 378.836438 369.133379 
L 381.576712 369.713261 
L 382.490137 368.992657 
L 384.316986 368.96471 
L 385.230411 369.101429 
L 387.970685 369.161407 
L 388.88411 369.446356 
L 389.797534 369.45177 
L 390.710959 368.97488 
L 391.624384 368.632603 
L 395.278082 368.27223 
L 396.191507 368.594173 
L 397.104932 368.602401 
L 398.018356 369.385865 
L 400.75863 369.211409 
L 401.672055 369.514752 
L 402.585479 369.194105 
L 403.498904 369.31067 
L 404.412329 368.728104 
L 407.152603 368.395732 
L 408.066027 368.875616 
L 408.979452 369.105785 
L 409.892877 369.018288 
L 410.806301 368.79493 
L 416.286849 369.715663 
L 417.200274 369.946063 
L 420.853973 369.528356 
L 421.767397 369.860897 
L 423.594247 369.730075 
L 427.247945 370.160228 
L 428.16137 369.742899 
L 429.074795 370.03982 
L 429.988219 369.877805 
L 433.641918 369.888754 
L 434.555342 369.896561 
L 435.468767 369.738498 
L 436.382192 369.972641 
L 439.122466 370.253491 
L 440.03589 369.859095 
L 440.949315 369.739973 
L 441.86274 370.187479 
L 442.776164 370.396813 
L 445.516438 370.150684 
L 446.429863 370.506951 
L 448.256712 369.861149 
L 449.170137 370.318619 
L 452.823836 370.688319 
L 453.73726 371.110209 
L 454.650685 370.987527 
L 455.56411 370.391077 
L 458.304384 370.325866 
L 460.131233 370.711012 
L 461.958082 370.622943 
L 464.698356 370.500028 
L 466.525205 369.765214 
L 471.092329 370.018992 
L 472.919178 369.302227 
L 473.832603 370.151637 
L 474.746027 369.346737 
L 477.486301 368.69524 
L 478.399726 368.803857 
L 479.313151 369.358748 
L 481.14 369.234146 
L 483.880274 369.508901 
L 484.793699 369.416899 
L 485.707123 368.856086 
L 486.620548 368.866783 
L 487.533973 369.154807 
L 490.274247 369.098839 
L 491.187671 368.910977 
L 492.101096 369.088169 
L 493.927945 368.798849 
L 496.668219 368.828126 
L 498.495068 369.089748 
L 499.408493 368.803811 
L 500.321918 367.283555 
L 503.062192 364.979594 
L 503.975616 365.438385 
L 504.889041 363.747448 
L 505.802466 365.513333 
L 506.71589 362.344975 
L 509.456164 362.56018 
L 510.369589 362.396786 
L 511.283014 363.060682 
L 512.196438 362.576361 
L 516.763562 362.563618 
L 517.676986 364.219124 
L 518.590411 364.624233 
L 519.503836 364.77301 
L 522.24411 364.466983 
L 523.157534 364.077001 
L 524.984384 364.445243 
L 525.897808 364.365198 
L 529.551507 363.825094 
L 530.464932 364.842196 
L 531.378356 364.11344 
L 532.291781 364.546827 
L 535.032055 364.95342 
L 535.945479 365.744816 
L 536.858904 365.678641 
L 537.772329 365.797994 
L 538.685753 365.055057 
L 541.426027 365.203703 
L 542.339452 365.419635 
L 543.252877 364.443422 
L 544.166301 364.48391 
L 545.079726 364.796994 
L 547.82 364.730116 
L 548.733425 364.487564 
L 549.646849 364.950374 
L 550.560274 365.152944 
L 551.473699 364.3101 
L 554.213973 364.360404 
L 555.127397 364.04251 
L 556.040822 364.636311 
L 556.954247 364.261951 
L 557.867671 364.555293 
L 560.607945 364.504663 
L 562.434795 364.698341 
L 563.348219 364.3849 
L 564.261644 363.509526 
L 567.001918 363.686716 
L 567.915342 363.871165 
L 568.828767 363.75823 
L 569.742192 364.132613 
L 570.655616 363.80882 
L 573.39589 363.66143 
L 574.309315 363.351603 
L 575.22274 362.572998 
L 576.136164 362.643999 
L 579.789863 362.064517 
L 580.703288 361.662981 
L 581.616712 361.419806 
L 582.530137 361.467594 
L 583.443562 361.700589 
L 587.09726 361.590272 
L 588.92411 360.939879 
L 589.837534 361.612338 
L 593.491233 361.205885 
L 595.318082 361.503882 
L 596.231507 361.600825 
L 599.885205 361.369707 
L 600.79863 361.048556 
L 602.625479 361.327254 
L 605.365753 361.088471 
L 606.279178 361.592357 
L 607.192603 361.793009 
L 608.106027 362.289275 
L 609.019452 362.009895 
L 611.759726 361.477865 
L 612.673151 362.09436 
L 613.586575 361.958632 
L 615.413425 362.375724 
L 618.153699 362.444277 
L 619.067123 362.907931 
L 619.980548 362.373686 
L 620.893973 362.476769 
L 621.807397 362.438614 
L 624.547671 362.495933 
L 626.374521 362.225535 
L 627.287945 361.696115 
L 628.20137 362.045271 
L 630.941644 361.770141 
L 631.855068 362.057676 
L 633.681918 361.710351 
L 634.595342 361.930979 
L 638.249041 361.900073 
L 640.07589 362.006238 
L 640.989315 362.06924 
L 643.729589 361.430897 
L 644.643014 360.926265 
L 645.556438 361.372038 
L 646.469863 361.667313 
L 647.383288 361.537741 
L 651.036986 361.485548 
L 651.950411 360.612556 
L 656.517534 361.223544 
L 657.430959 360.831279 
L 658.344384 360.710627 
L 659.257808 360.727581 
L 660.171233 360.945399 
L 662.911507 360.824381 
L 663.824932 361.072178 
L 664.738356 361.071583 
L 665.651781 361.314784 
L 669.305479 360.896941 
L 670.218904 360.623197 
L 671.132329 360.715179 
L 672.959178 361.299675 
L 675.699452 360.859006 
L 676.612877 361.03412 
L 679.353151 359.652406 
L 682.093425 359.819681 
L 683.006849 359.645515 
L 683.920274 359.991948 
L 685.747123 359.741764 
L 689.400822 359.871743 
L 690.314247 359.802758 
L 691.227671 360.512767 
L 692.141096 360.43754 
L 694.88137 360.70055 
L 695.794795 360.967985 
L 696.708219 361.064724 
L 697.621644 361.047037 
L 698.535068 360.743014 
L 701.275342 360.943749 
L 702.188767 360.789205 
L 703.102192 360.107047 
L 704.015616 359.667776 
L 704.929041 359.055881 
L 708.58274 359.271724 
L 709.496164 359.923869 
L 710.409589 360.246736 
L 711.323014 360.072623 
L 714.063288 360.616518 
L 714.976712 360.613735 
L 715.890137 360.791472 
L 716.803562 360.536661 
L 717.716986 360.72959 
L 720.45726 360.693704 
L 721.370685 360.84023 
L 723.197534 360.673576 
L 724.110959 361.164884 
L 727.764658 361.693375 
L 728.678082 361.490053 
L 730.504932 360.428451 
L 735.072055 360.615849 
L 735.985479 360.346056 
L 736.898904 360.195493 
L 739.639178 360.178567 
L 741.466027 359.779882 
L 743.292877 359.884547 
L 746.946575 359.984306 
L 747.86 360.316477 
L 747.86 360.316477 
" clip-path="url(#p66723d64a1)" style="fill: none; stroke-dasharray: 5.55,2.4; stroke-dashoffset: 0; stroke: #2ca02c; stroke-width: 1.5"/>
   </g>
   <g id="patch_3">
    <path d="M 47.72 390.04 
L 47.72 26.88 
" style="fill: none; stroke: #000000; stroke-width: 0.8; stroke-linejoin: miter; stroke-linecap: square"/>
   </g>
   <g id="patch_4">
    <path d="M 781.2 390.04 
L 781.2 26.88 
" style="fill: none; stroke: #000000; stroke-width: 0.8; stroke-linejoin: miter; stroke-linecap: square"/>
   </g>
   <g id="patch_5">
    <path d="M 47.72 390.04 
L 781.2 390.04 
" style="fill: none; stroke: #000000; stroke-width: 0.8; stroke-linejoin: miter; stroke-linecap: square"/>
   </g>
   <g id="patch_6">
    <path d="M 47.72 26.88 
L 781.2 26.88 
" style="fill: none; stroke: #000000; stroke-width: 0.8; stroke-linejoin: miter; stroke-linecap: square"/>
   </g>
   <g id="text_18">
    <!-- Backtest portfolio values -->
    <g transform="translate(339.955 20.88) scale(0.12 -0.12)">
     <defs>
      <path id="DejaVuSans-42" d="M 1259 2228 
L 1259 519 
L 2272 519 
Q 2781 519 3026 730 
Q 3272 941 3272 1375 
Q 3272 1813 3026 2020 
Q 2781 2228 2272 2228 
L 1259 2228 
z
M 1259 4147 
L 1259 2741 
L 2194 2741 
Q 2656 2741 2882 2914 
Q 3109 3088 3109 3444 
Q 3109 3797 2882 3972 
Q 2656 4147 2194 4147 
L 1259 4147 
z
M 628 4666 
L 2241 4666 
Q 2963 4666 3353 4366 
Q 3744 4066 3744 3513 
Q 3744 3084 3544 2831 
Q 3344 2578 2956 2516 
Q 3422 2416 3680 2098 
Q 3938 1781 3938 1306 
Q 3938 681 3513 340 
Q 3088 0 2303 0 
L 628 0 
L 628 4666 
z
" transform="scale(0.015625)"/>
      <path id="DejaVuSans-63" d="M 3122 3366 
L 3122 2828 
Q 2878 2963 2633 3030 
Q 2388 3097 2138 3097 
Q 1578 3097 1268 2742 
Q 959 2388 959 1747 
Q 959 1106 1268 751 
Q 1578 397 2138 397 
Q 2388 397 2633 464 
Q 2878 531 3122 666 
L 3122 134 
Q 2881 22 2623 -34 
Q 2366 -91 2075 -91 
Q 1284 -91 818 406 
Q 353 903 353 1747 
Q 353 2603 823 3093 
Q 1294 3584 2113 3584 
Q 2378 3584 2631 3529 
Q 2884 3475 3122 3366 
z
" transform="scale(0.015625)"/>
      <path id="DejaVuSans-6b" d="M 581 4863 
L 1159 4863 
L 1159 1991 
L 2875 3500 
L 3609 3500 
L 1753 1863 
L 3688 0 
L 2938 0 
L 1159 1709 
L 1159 0 
L 581 0 
L 581 4863 
z
" transform="scale(0.015625)"/>
      <path id="DejaVuSans-73" d="M 2834 3397 
L 2834 2853 
Q 2591 2978 2328 3040 
Q 2066 3103 1784 3103 
Q 1356 3103 1142 2972 
Q 928 2841 928 2578 
Q 928 2378 1081 2264 
Q 1234 2150 1697 2047 
L 1894 2003 
Q 2506 1872 2764 1633 
Q 3022 1394 3022 966 
Q 3022 478 2636 193 
Q 2250 -91 1575 -91 
Q 1294 -91 989 -36 
Q 684 19 347 128 
L 347 722 
Q 666 556 975 473 
Q 1284 391 1588 391 
Q 1994 391 2212 530 
Q 2431 669 2431 922 
Q 2431 1156 2273 1281 
Q 2116 1406 1581 1522 
L 1381 1569 
Q 847 1681 609 1914 
Q 372 2147 372 2553 
Q 372 3047 722 3315 
Q 1072 3584 1716 3584 
Q 2034 3584 2315 3537 
Q 2597 3491 2834 3397 
z
" transform="scale(0.015625)"/>
      <path id="DejaVuSans-70" d="M 1159 525 
L 1159 -1331 
L 581 -1331 
L 581 3500 
L 1159 3500 
L 1159 2969 
Q 1341 3281 1617 3432 
Q 1894 3584 2278 3584 
Q 2916 3584 3314 3078 
Q 3713 2572 3713 1747 
Q 3713 922 3314 415 
Q 2916 -91 2278 -91 
Q 1894 -91 1617 61 
Q 1341 213 1159 525 
z
M 3116 1747 
Q 3116 2381 2855 2742 
Q 2594 3103 2138 3103 
Q 1681 3103 1420 2742 
Q 1159 2381 1159 1747 
Q 1159 1113 1420 752 
Q 1681 391 2138 391 
Q 2594 391 2855 752 
Q 3116 1113 3116 1747 
z
" transform="scale(0.015625)"/>
     </defs>
     <use xlink:href="#DejaVuSans-42"/>
     <use xlink:href="#DejaVuSans-61" transform="translate(68.603516 0)"/>
     <use xlink:href="#DejaVuSans-63" transform="translate(129.882812 0)"/>
     <use xlink:href="#DejaVuSans-6b" transform="translate(184.863281 0)"/>
     <use xlink:href="#DejaVuSans-74" transform="translate(242.773438 0)"/>
     <use xlink:href="#DejaVuSans-65" transform="translate(281.982422 0)"/>
     <use xlink:href="#DejaVuSans-73" transform="translate(343.505859 0)"/>
     <use xlink:href="#DejaVuSans-74" transform="translate(395.605469 0)"/>
     <use xlink:href="#DejaVuSans-20" transform="translate(434.814453 0)"/>
     <use xlink:href="#DejaVuSans-70" transform="translate(466.601562 0)"/>
     <use xlink:href="#DejaVuSans-6f" transform="translate(530.078125 0)"/>
     <use xlink:href="#DejaVuSans-72" transform="translate(591.259766 0)"/>
     <use xlink:href="#DejaVuSans-74" transform="translate(632.373047 0)"/>
     <use xlink:href="#DejaVuSans-66" transform="translate(671.582031 0)"/>
     <use xlink:href="#DejaVuSans-6f" transform="translate(706.787109 0)"/>
     <use xlink:href="#DejaVuSans-6c" transform="translate(767.96875 0)"/>
     <use xlink:href="#DejaVuSans-69" transform="translate(795.751953 0)"/>
     <use xlink:href="#DejaVuSans-6f" transform="translate(823.535156 0)"/>
     <use xlink:href="#DejaVuSans-20" transform="translate(884.716797 0)"/>
     <use xlink:href="#DejaVuSans-76" transform="translate(916.503906 0)"/>
     <use xlink:href="#DejaVuSans-61" transform="translate(975.683594 0)"/>
     <use xlink:href="#DejaVuSans-6c" transform="translate(1036.962891 0)"/>
     <use xlink:href="#DejaVuSans-75" transform="translate(1064.746094 0)"/>
     <use xlink:href="#DejaVuSans-65" transform="translate(1128.125 0)"/>
     <use xlink:href="#DejaVuSans-73" transform="translate(1189.648438 0)"/>
    </g>
   </g>
   <g id="legend_1">
    <g id="patch_7">
     <path d="M 54.72 79.470625 
L 239.629375 79.470625 
Q 241.629375 79.470625 241.629375 77.470625 
L 241.629375 33.88 
Q 241.629375 31.88 239.629375 31.88 
L 54.72 31.88 
Q 52.72 31.88 52.72 33.88 
L 52.72 77.470625 
Q 52.72 79.470625 54.72 79.470625 
z
" style="fill: #ffffff; opacity: 0.8; stroke: #cccccc; stroke-linejoin: miter"/>
    </g>
    <g id="line2d_19">
     <path d="M 56.72 39.978437 
L 66.72 39.978437 
L 76.72 39.978437 
" style="fill: none; stroke: #1f77b4; stroke-width: 1.5; stroke-linecap: square"/>
    </g>
    <g id="text_19">
     <!-- HTGNN:full_rebalancing -->
     <g transform="translate(84.72 43.478437) scale(0.1 -0.1)">
      <defs>
       <path id="DejaVuSans-48" d="M 628 4666 
L 1259 4666 
L 1259 2753 
L 3553 2753 
L 3553 4666 
L 4184 4666 
L 4184 0 
L 3553 0 
L 3553 2222 
L 1259 2222 
L 1259 0 
L 628 0 
L 628 4666 
z
" transform="scale(0.015625)"/>
       <path id="DejaVuSans-54" d="M -19 4666 
L 3928 4666 
L 3928 4134 
L 2272 4134 
L 2272 0 
L 1638 0 
L 1638 4134 
L -19 4134 
L -19 4666 
z
" transform="scale(0.015625)"/>
       <path id="DejaVuSans-47" d="M 3809 666 
L 3809 1919 
L 2778 1919 
L 2778 2438 
L 4434 2438 
L 4434 434 
Q 4069 175 3628 42 
Q 3188 -91 2688 -91 
Q 1594 -91 976 548 
Q 359 1188 359 2328 
Q 359 3472 976 4111 
Q 1594 4750 2688 4750 
Q 3144 4750 3555 4637 
Q 3966 4525 4313 4306 
L 4313 3634 
Q 3963 3931 3569 4081 
Q 3175 4231 2741 4231 
Q 1884 4231 1454 3753 
Q 1025 3275 1025 2328 
Q 1025 1384 1454 906 
Q 1884 428 2741 428 
Q 3075 428 3337 486 
Q 3600 544 3809 666 
z
" transform="scale(0.015625)"/>
       <path id="DejaVuSans-4e" d="M 628 4666 
L 1478 4666 
L 3547 763 
L 3547 4666 
L 4159 4666 
L 4159 0 
L 3309 0 
L 1241 3903 
L 1241 0 
L 628 0 
L 628 4666 
z
" transform="scale(0.015625)"/>
       <path id="DejaVuSans-3a" d="M 750 794 
L 1409 794 
L 1409 0 
L 750 0 
L 750 794 
z
M 750 3309 
L 1409 3309 
L 1409 2516 
L 750 2516 
L 750 3309 
z
" transform="scale(0.015625)"/>
       <path id="DejaVuSans-5f" d="M 3263 -1063 
L 3263 -1509 
L -63 -1509 
L -63 -1063 
L 3263 -1063 
z
" transform="scale(0.015625)"/>
       <path id="DejaVuSans-62" d="M 3116 1747 
Q 3116 2381 2855 2742 
Q 2594 3103 2138 3103 
Q 1681 3103 1420 2742 
Q 1159 2381 1159 1747 
Q 1159 1113 1420 752 
Q 1681 391 2138 391 
Q 2594 391 2855 752 
Q 3116 1113 3116 1747 
z
M 1159 2969 
Q 1341 3281 1617 3432 
Q 1894 3584 2278 3584 
Q 2916 3584 3314 3078 
Q 3713 2572 3713 1747 
Q 3713 922 3314 415 
Q 2916 -91 2278 -91 
Q 1894 -91 1617 61 
Q 1341 213 1159 525 
L 1159 0 
L 581 0 
L 581 4863 
L 1159 4863 
L 1159 2969 
z
" transform="scale(0.015625)"/>
       <path id="DejaVuSans-6e" d="M 3513 2113 
L 3513 0 
L 2938 0 
L 2938 2094 
Q 2938 2591 2744 2837 
Q 2550 3084 2163 3084 
Q 1697 3084 1428 2787 
Q 1159 2491 1159 1978 
L 1159 0 
L 581 0 
L 581 3500 
L 1159 3500 
L 1159 2956 
Q 1366 3272 1645 3428 
Q 1925 3584 2291 3584 
Q 2894 3584 3203 3211 
Q 3513 2838 3513 2113 
z
" transform="scale(0.015625)"/>
       <path id="DejaVuSans-67" d="M 2906 1791 
Q 2906 2416 2648 2759 
Q 2391 3103 1925 3103 
Q 1463 3103 1205 2759 
Q 947 2416 947 1791 
Q 947 1169 1205 825 
Q 1463 481 1925 481 
Q 2391 481 2648 825 
Q 2906 1169 2906 1791 
z
M 3481 434 
Q 3481 -459 3084 -895 
Q 2688 -1331 1869 -1331 
Q 1566 -1331 1297 -1286 
Q 1028 -1241 775 -1147 
L 775 -588 
Q 1028 -725 1275 -790 
Q 1522 -856 1778 -856 
Q 2344 -856 2625 -561 
Q 2906 -266 2906 331 
L 2906 616 
Q 2728 306 2450 153 
Q 2172 0 1784 0 
Q 1141 0 747 490 
Q 353 981 353 1791 
Q 353 2603 747 3093 
Q 1141 3584 1784 3584 
Q 2172 3584 2450 3431 
Q 2728 3278 2906 2969 
L 2906 3500 
L 3481 3500 
L 3481 434 
z
" transform="scale(0.015625)"/>
      </defs>
      <use xlink:href="#DejaVuSans-48"/>
      <use xlink:href="#DejaVuSans-54" transform="translate(75.195312 0)"/>
      <use xlink:href="#DejaVuSans-47" transform="translate(136.279297 0)"/>
      <use xlink:href="#DejaVuSans-4e" transform="translate(213.769531 0)"/>
      <use xlink:href="#DejaVuSans-4e" transform="translate(288.574219 0)"/>
      <use xlink:href="#DejaVuSans-3a" transform="translate(363.378906 0)"/>
      <use xlink:href="#DejaVuSans-66" transform="translate(397.070312 0)"/>
      <use xlink:href="#DejaVuSans-75" transform="translate(432.275391 0)"/>
      <use xlink:href="#DejaVuSans-6c" transform="translate(495.654297 0)"/>
      <use xlink:href="#DejaVuSans-6c" transform="translate(523.4375 0)"/>
      <use xlink:href="#DejaVuSans-5f" transform="translate(551.220703 0)"/>
      <use xlink:href="#DejaVuSans-72" transform="translate(601.220703 0)"/>
      <use xlink:href="#DejaVuSans-65" transform="translate(640.083984 0)"/>
      <use xlink:href="#DejaVuSans-62" transform="translate(701.607422 0)"/>
      <use xlink:href="#DejaVuSans-61" transform="translate(765.083984 0)"/>
      <use xlink:href="#DejaVuSans-6c" transform="translate(826.363281 0)"/>
      <use xlink:href="#DejaVuSans-61" transform="translate(854.146484 0)"/>
      <use xlink:href="#DejaVuSans-6e" transform="translate(915.425781 0)"/>
      <use xlink:href="#DejaVuSans-63" transform="translate(978.804688 0)"/>
      <use xlink:href="#DejaVuSans-69" transform="translate(1033.785156 0)"/>
      <use xlink:href="#DejaVuSans-6e" transform="translate(1061.568359 0)"/>
      <use xlink:href="#DejaVuSans-67" transform="translate(1124.947266 0)"/>
     </g>
    </g>
    <g id="line2d_20">
     <path d="M 56.72 54.934687 
L 66.72 54.934687 
L 76.72 54.934687 
" style="fill: none; stroke-dasharray: 5.55,2.4; stroke-dashoffset: 0; stroke: #ff7f0e; stroke-width: 1.5"/>
    </g>
    <g id="text_20">
     <!-- benchmark:USD -->
     <g transform="translate(84.72 58.434687) scale(0.1 -0.1)">
      <defs>
       <path id="DejaVuSans-68" d="M 3513 2113 
L 3513 0 
L 2938 0 
L 2938 2094 
Q 2938 2591 2744 2837 
Q 2550 3084 2163 3084 
Q 1697 3084 1428 2787 
Q 1159 2491 1159 1978 
L 1159 0 
L 581 0 
L 581 4863 
L 1159 4863 
L 1159 2956 
Q 1366 3272 1645 3428 
Q 1925 3584 2291 3584 
Q 2894 3584 3203 3211 
Q 3513 2838 3513 2113 
z
" transform="scale(0.015625)"/>
       <path id="DejaVuSans-6d" d="M 3328 2828 
Q 3544 3216 3844 3400 
Q 4144 3584 4550 3584 
Q 5097 3584 5394 3201 
Q 5691 2819 5691 2113 
L 5691 0 
L 5113 0 
L 5113 2094 
Q 5113 2597 4934 2840 
Q 4756 3084 4391 3084 
Q 3944 3084 3684 2787 
Q 3425 2491 3425 1978 
L 3425 0 
L 2847 0 
L 2847 2094 
Q 2847 2600 2669 2842 
Q 2491 3084 2119 3084 
Q 1678 3084 1418 2786 
Q 1159 2488 1159 1978 
L 1159 0 
L 581 0 
L 581 3500 
L 1159 3500 
L 1159 2956 
Q 1356 3278 1631 3431 
Q 1906 3584 2284 3584 
Q 2666 3584 2933 3390 
Q 3200 3197 3328 2828 
z
" transform="scale(0.015625)"/>
      </defs>
      <use xlink:href="#DejaVuSans-62"/>
      <use xlink:href="#DejaVuSans-65" transform="translate(63.476562 0)"/>
      <use xlink:href="#DejaVuSans-6e" transform="translate(125 0)"/>
      <use xlink:href="#DejaVuSans-63" transform="translate(188.378906 0)"/>
      <use xlink:href="#DejaVuSans-68" transform="translate(243.359375 0)"/>
      <use xlink:href="#DejaVuSans-6d" transform="translate(306.738281 0)"/>
      <use xlink:href="#DejaVuSans-61" transform="translate(404.150391 0)"/>
      <use xlink:href="#DejaVuSans-72" transform="translate(465.429688 0)"/>
      <use xlink:href="#DejaVuSans-6b" transform="translate(506.542969 0)"/>
      <use xlink:href="#DejaVuSans-3a" transform="translate(564.453125 0)"/>
      <use xlink:href="#DejaVuSans-55" transform="translate(598.144531 0)"/>
      <use xlink:href="#DejaVuSans-53" transform="translate(671.337891 0)"/>
      <use xlink:href="#DejaVuSans-44" transform="translate(734.814453 0)"/>
     </g>
    </g>
    <g id="line2d_21">
     <path d="M 56.72 69.612812 
L 66.72 69.612812 
L 76.72 69.612812 
" style="fill: none; stroke-dasharray: 5.55,2.4; stroke-dashoffset: 0; stroke: #2ca02c; stroke-width: 1.5"/>
    </g>
    <g id="text_21">
     <!-- benchmark:best_currency:CHF -->
     <g transform="translate(84.72 73.112812) scale(0.1 -0.1)">
      <defs>
       <path id="DejaVuSans-79" d="M 2059 -325 
Q 1816 -950 1584 -1140 
Q 1353 -1331 966 -1331 
L 506 -1331 
L 506 -850 
L 844 -850 
Q 1081 -850 1212 -737 
Q 1344 -625 1503 -206 
L 1606 56 
L 191 3500 
L 800 3500 
L 1894 763 
L 2988 3500 
L 3597 3500 
L 2059 -325 
z
" transform="scale(0.015625)"/>
       <path id="DejaVuSans-43" d="M 4122 4306 
L 4122 3641 
Q 3803 3938 3442 4084 
Q 3081 4231 2675 4231 
Q 1875 4231 1450 3742 
Q 1025 3253 1025 2328 
Q 1025 1406 1450 917 
Q 1875 428 2675 428 
Q 3081 428 3442 575 
Q 3803 722 4122 1019 
L 4122 359 
Q 3791 134 3420 21 
Q 3050 -91 2638 -91 
Q 1578 -91 968 557 
Q 359 1206 359 2328 
Q 359 3453 968 4101 
Q 1578 4750 2638 4750 
Q 3056 4750 3426 4639 
Q 3797 4528 4122 4306 
z
" transform="scale(0.015625)"/>
       <path id="DejaVuSans-46" d="M 628 4666 
L 3309 4666 
L 3309 4134 
L 1259 4134 
L 1259 2759 
L 3109 2759 
L 3109 2228 
L 1259 2228 
L 1259 0 
L 628 0 
L 628 4666 
z
" transform="scale(0.015625)"/>
      </defs>
      <use xlink:href="#DejaVuSans-62"/>
      <use xlink:href="#DejaVuSans-65" transform="translate(63.476562 0)"/>
      <use xlink:href="#DejaVuSans-6e" transform="translate(125 0)"/>
      <use xlink:href="#DejaVuSans-63" transform="translate(188.378906 0)"/>
      <use xlink:href="#DejaVuSans-68" transform="translate(243.359375 0)"/>
      <use xlink:href="#DejaVuSans-6d" transform="translate(306.738281 0)"/>
      <use xlink:href="#DejaVuSans-61" transform="translate(404.150391 0)"/>
      <use xlink:href="#DejaVuSans-72" transform="translate(465.429688 0)"/>
      <use xlink:href="#DejaVuSans-6b" transform="translate(506.542969 0)"/>
      <use xlink:href="#DejaVuSans-3a" transform="translate(564.453125 0)"/>
      <use xlink:href="#DejaVuSans-62" transform="translate(598.144531 0)"/>
      <use xlink:href="#DejaVuSans-65" transform="translate(661.621094 0)"/>
      <use xlink:href="#DejaVuSans-73" transform="translate(723.144531 0)"/>
      <use xlink:href="#DejaVuSans-74" transform="translate(775.244141 0)"/>
      <use xlink:href="#DejaVuSans-5f" transform="translate(814.453125 0)"/>
      <use xlink:href="#DejaVuSans-63" transform="translate(864.453125 0)"/>
      <use xlink:href="#DejaVuSans-75" transform="translate(919.433594 0)"/>
      <use xlink:href="#DejaVuSans-72" transform="translate(982.8125 0)"/>
      <use xlink:href="#DejaVuSans-72" transform="translate(1022.175781 0)"/>
      <use xlink:href="#DejaVuSans-65" transform="translate(1061.039062 0)"/>
      <use xlink:href="#DejaVuSans-6e" transform="translate(1122.5625 0)"/>
      <use xlink:href="#DejaVuSans-63" transform="translate(1185.941406 0)"/>
      <use xlink:href="#DejaVuSans-79" transform="translate(1240.921875 0)"/>
      <use xlink:href="#DejaVuSans-3a" transform="translate(1292.851562 0)"/>
      <use xlink:href="#DejaVuSans-43" transform="translate(1326.542969 0)"/>
      <use xlink:href="#DejaVuSans-48" transform="translate(1396.367188 0)"/>
      <use xlink:href="#DejaVuSans-46" transform="translate(1471.5625 0)"/>
     </g>
    </g>
   </g>
  </g>
 </g>
 <defs>
  <clipPath id="p66723d64a1">
   <rect x="47.72" y="26.88" width="733.48" height="363.16"/>
  </clipPath>
 </defs>
</svg>
