<?xml version="1.0" encoding="utf-8" standalone="no"?>
<!DOCTYPE svg PUBLIC "-//W3C//DTD SVG 1.1//EN"
  "http://www.w3.org/Graphics/SVG/1.1/DTD/svg11.dtd">
<svg xmlns:xlink="http://www.w3.org/1999/xlink" width="792pt" height="432pt" viewBox="0 0 792 432" xmlns="http://www.w3.org/2000/svg" version="1.1">
 <metadata>
  <rdf:RDF xmlns:dc="http://purl.org/dc/elements/1.1/" xmlns:cc="http://creativecommons.org/ns#" xmlns:rdf="http://www.w3.org/1999/02/22-rdf-syntax-ns#">
   <cc:Work>
    <dc:type rdf:resource="http://purl.org/dc/dcmitype/StillImage"/>
    <dc:date>2026-05-07T17:41:46.023091</dc:date>
    <dc:format>image/svg+xml</dc:format>
    <dc:creator>
     <cc:Agent>
      <dc:title>Matplotlib v3.10.9, https://matplotlib.org/</dc:title>
     </cc:Agent>
    </dc:creator>
   </cc:Work>
  </rdf:RDF>
 </metadata>
 <defs>
  <style type="text/css">*{stroke-linejoin: round; stroke-linecap: butt}</style>
 </defs>
 <g id="figure_1">
  <g id="patch_1">
   <path d="M 0 432 
L 792 432 
L 792 0 
L 0 0 
z
" style="fill: #ffffff"/>
  </g>
  <g id="axes_1">
   <g id="patch_2">
    <path d="M 47.72 390.04 
L 781.2 390.04 
L 781.2 26.88 
L 47.72 26.88 
z
" style="fill: #ffffff"/>
   </g>
   <g id="matplotlib.axis_1">
    <g id="xtick_1">
     <g id="line2d_1">
      <defs>
       <path id="m733234811d" d="M 0 0 
L 0 3.5 
" style="stroke: #000000; stroke-width: 0.8"/>
      </defs>
      <g>
       <use xlink:href="#m733234811d" x="81.06" y="390.04" style="stroke: #000000; stroke-width: 0.8"/>
      </g>
     </g>
     <g id="text_1">
      <!-- 2024-01 -->
      <g transform="translate(60.168594 404.638438) scale(0.1 -0.1)">
       <defs>
        <path id="DejaVuSans-32" d="M 1228 531 
L 3431 531 
L 3431 0 
L 469 0 
L 469 531 
Q 828 903 1448 1529 
Q 2069 2156 2228 2338 
Q 2531 2678 2651 2914 
Q 2772 3150 2772 3378 
Q 2772 3750 2511 3984 
Q 2250 4219 1831 4219 
Q 1534 4219 1204 4116 
Q 875 4013 500 3803 
L 500 4441 
Q 881 4594 1212 4672 
Q 1544 4750 1819 4750 
Q 2544 4750 2975 4387 
Q 3406 4025 3406 3419 
Q 3406 3131 3298 2873 
Q 3191 2616 2906 2266 
Q 2828 2175 2409 1742 
Q 1991 1309 1228 531 
z
" transform="scale(0.015625)"/>
        <path id="DejaVuSans-30" d="M 2034 4250 
Q 1547 4250 1301 3770 
Q 1056 3291 1056 2328 
Q 1056 1369 1301 889 
Q 1547 409 2034 409 
Q 2525 409 2770 889 
Q 3016 1369 3016 2328 
Q 3016 3291 2770 3770 
Q 2525 4250 2034 4250 
z
M 2034 4750 
Q 2819 4750 3233 4129 
Q 3647 3509 3647 2328 
Q 3647 1150 3233 529 
Q 2819 -91 2034 -91 
Q 1250 -91 836 529 
Q 422 1150 422 2328 
Q 422 3509 836 4129 
Q 1250 4750 2034 4750 
z
" transform="scale(0.015625)"/>
        <path id="DejaVuSans-34" d="M 2419 4116 
L 825 1625 
L 2419 1625 
L 2419 4116 
z
M 2253 4666 
L 3047 4666 
L 3047 1625 
L 3713 1625 
L 3713 1100 
L 3047 1100 
L 3047 0 
L 2419 0 
L 2419 1100 
L 313 1100 
L 313 1709 
L 2253 4666 
z
" transform="scale(0.015625)"/>
        <path id="DejaVuSans-2d" d="M 313 2009 
L 1997 2009 
L 1997 1497 
L 313 1497 
L 313 2009 
z
" transform="scale(0.015625)"/>
        <path id="DejaVuSans-31" d="M 794 531 
L 1825 531 
L 1825 4091 
L 703 3866 
L 703 4441 
L 1819 4666 
L 2450 4666 
L 2450 531 
L 3481 531 
L 3481 0 
L 794 0 
L 794 531 
z
" transform="scale(0.015625)"/>
       </defs>
       <use xlink:href="#DejaVuSans-32"/>
       <use xlink:href="#DejaVuSans-30" transform="translate(63.623047 0)"/>
       <use xlink:href="#DejaVuSans-32" transform="translate(127.246094 0)"/>
       <use xlink:href="#DejaVuSans-34" transform="translate(190.869141 0)"/>
       <use xlink:href="#DejaVuSans-2d" transform="translate(254.492188 0)"/>
       <use xlink:href="#DejaVuSans-30" transform="translate(290.576172 0)"/>
       <use xlink:href="#DejaVuSans-31" transform="translate(354.199219 0)"/>
      </g>
     </g>
    </g>
    <g id="xtick_2">
     <g id="line2d_2">
      <g>
       <use xlink:href="#m733234811d" x="164.181644" y="390.04" style="stroke: #000000; stroke-width: 0.8"/>
      </g>
     </g>
     <g id="text_2">
      <!-- 2024-04 -->
      <g transform="translate(143.290238 404.638438) scale(0.1 -0.1)">
       <use xlink:href="#DejaVuSans-32"/>
       <use xlink:href="#DejaVuSans-30" transform="translate(63.623047 0)"/>
       <use xlink:href="#DejaVuSans-32" transform="translate(127.246094 0)"/>
       <use xlink:href="#DejaVuSans-34" transform="translate(190.869141 0)"/>
       <use xlink:href="#DejaVuSans-2d" transform="translate(254.492188 0)"/>
       <use xlink:href="#DejaVuSans-30" transform="translate(290.576172 0)"/>
       <use xlink:href="#DejaVuSans-34" transform="translate(354.199219 0)"/>
      </g>
     </g>
    </g>
    <g id="xtick_3">
     <g id="line2d_3">
      <g>
       <use xlink:href="#m733234811d" x="247.303288" y="390.04" style="stroke: #000000; stroke-width: 0.8"/>
      </g>
     </g>
     <g id="text_3">
      <!-- 2024-07 -->
      <g transform="translate(226.411881 404.638438) scale(0.1 -0.1)">
       <defs>
        <path id="DejaVuSans-37" d="M 525 4666 
L 3525 4666 
L 3525 4397 
L 1831 0 
L 1172 0 
L 2766 4134 
L 525 4134 
L 525 4666 
z
" transform="scale(0.015625)"/>
       </defs>
       <use xlink:href="#DejaVuSans-32"/>
       <use xlink:href="#DejaVuSans-30" transform="translate(63.623047 0)"/>
       <use xlink:href="#DejaVuSans-32" transform="translate(127.246094 0)"/>
       <use xlink:href="#DejaVuSans-34" transform="translate(190.869141 0)"/>
       <use xlink:href="#DejaVuSans-2d" transform="translate(254.492188 0)"/>
       <use xlink:href="#DejaVuSans-30" transform="translate(290.576172 0)"/>
       <use xlink:href="#DejaVuSans-37" transform="translate(354.199219 0)"/>
      </g>
     </g>
    </g>
    <g id="xtick_4">
     <g id="line2d_4">
      <g>
       <use xlink:href="#m733234811d" x="331.338356" y="390.04" style="stroke: #000000; stroke-width: 0.8"/>
      </g>
     </g>
     <g id="text_4">
      <!-- 2024-10 -->
      <g transform="translate(310.44695 404.638438) scale(0.1 -0.1)">
       <use xlink:href="#DejaVuSans-32"/>
       <use xlink:href="#DejaVuSans-30" transform="translate(63.623047 0)"/>
       <use xlink:href="#DejaVuSans-32" transform="translate(127.246094 0)"/>
       <use xlink:href="#DejaVuSans-34" transform="translate(190.869141 0)"/>
       <use xlink:href="#DejaVuSans-2d" transform="translate(254.492188 0)"/>
       <use xlink:href="#DejaVuSans-31" transform="translate(290.576172 0)"/>
       <use xlink:href="#DejaVuSans-30" transform="translate(354.199219 0)"/>
      </g>
     </g>
    </g>
    <g id="xtick_5">
     <g id="line2d_5">
      <g>
       <use xlink:href="#m733234811d" x="415.373425" y="390.04" style="stroke: #000000; stroke-width: 0.8"/>
      </g>
     </g>
     <g id="text_5">
      <!-- 2025-01 -->
      <g transform="translate(394.482018 404.638438) scale(0.1 -0.1)">
       <defs>
        <path id="DejaVuSans-35" d="M 691 4666 
L 3169 4666 
L 3169 4134 
L 1269 4134 
L 1269 2991 
Q 1406 3038 1543 3061 
Q 1681 3084 1819 3084 
Q 2600 3084 3056 2656 
Q 3513 2228 3513 1497 
Q 3513 744 3044 326 
Q 2575 -91 1722 -91 
Q 1428 -91 1123 -41 
Q 819 9 494 109 
L 494 744 
Q 775 591 1075 516 
Q 1375 441 1709 441 
Q 2250 441 2565 725 
Q 2881 1009 2881 1497 
Q 2881 1984 2565 2268 
Q 2250 2553 1709 2553 
Q 1456 2553 1204 2497 
Q 953 2441 691 2322 
L 691 4666 
z
" transform="scale(0.015625)"/>
       </defs>
       <use xlink:href="#DejaVuSans-32"/>
       <use xlink:href="#DejaVuSans-30" transform="translate(63.623047 0)"/>
       <use xlink:href="#DejaVuSans-32" transform="translate(127.246094 0)"/>
       <use xlink:href="#DejaVuSans-35" transform="translate(190.869141 0)"/>
       <use xlink:href="#DejaVuSans-2d" transform="translate(254.492188 0)"/>
       <use xlink:href="#DejaVuSans-30" transform="translate(290.576172 0)"/>
       <use xlink:href="#DejaVuSans-31" transform="translate(354.199219 0)"/>
      </g>
     </g>
    </g>
    <g id="xtick_6">
     <g id="line2d_6">
      <g>
       <use xlink:href="#m733234811d" x="497.581644" y="390.04" style="stroke: #000000; stroke-width: 0.8"/>
      </g>
     </g>
     <g id="text_6">
      <!-- 2025-04 -->
      <g transform="translate(476.690238 404.638438) scale(0.1 -0.1)">
       <use xlink:href="#DejaVuSans-32"/>
       <use xlink:href="#DejaVuSans-30" transform="translate(63.623047 0)"/>
       <use xlink:href="#DejaVuSans-32" transform="translate(127.246094 0)"/>
       <use xlink:href="#DejaVuSans-35" transform="translate(190.869141 0)"/>
       <use xlink:href="#DejaVuSans-2d" transform="translate(254.492188 0)"/>
       <use xlink:href="#DejaVuSans-30" transform="translate(290.576172 0)"/>
       <use xlink:href="#DejaVuSans-34" transform="translate(354.199219 0)"/>
      </g>
     </g>
    </g>
    <g id="xtick_7">
     <g id="line2d_7">
      <g>
       <use xlink:href="#m733234811d" x="580.703288" y="390.04" style="stroke: #000000; stroke-width: 0.8"/>
      </g>
     </g>
     <g id="text_7">
      <!-- 2025-07 -->
      <g transform="translate(559.811881 404.638438) scale(0.1 -0.1)">
       <use xlink:href="#DejaVuSans-32"/>
       <use xlink:href="#DejaVuSans-30" transform="translate(63.623047 0)"/>
       <use xlink:href="#DejaVuSans-32" transform="translate(127.246094 0)"/>
       <use xlink:href="#DejaVuSans-35" transform="translate(190.869141 0)"/>
       <use xlink:href="#DejaVuSans-2d" transform="translate(254.492188 0)"/>
       <use xlink:href="#DejaVuSans-30" transform="translate(290.576172 0)"/>
       <use xlink:href="#DejaVuSans-37" transform="translate(354.199219 0)"/>
      </g>
     </g>
    </g>
    <g id="xtick_8">
     <g id="line2d_8">
      <g>
       <use xlink:href="#m733234811d" x="664.738356" y="390.04" style="stroke: #000000; stroke-width: 0.8"/>
      </g>
     </g>
     <g id="text_8">
      <!-- 2025-10 -->
      <g transform="translate(643.84695 404.638438) scale(0.1 -0.1)">
       <use xlink:href="#DejaVuSans-32"/>
       <use xlink:href="#DejaVuSans-30" transform="translate(63.623047 0)"/>
       <use xlink:href="#DejaVuSans-32" transform="translate(127.246094 0)"/>
       <use xlink:href="#DejaVuSans-35" transform="translate(190.869141 0)"/>
       <use xlink:href="#DejaVuSans-2d" transform="translate(254.492188 0)"/>
       <use xlink:href="#DejaVuSans-31" transform="translate(290.576172 0)"/>
       <use xlink:href="#DejaVuSans-30" transform="translate(354.199219 0)"/>
      </g>
     </g>
    </g>
    <g id="xtick_9">
     <g id="line2d_9">
      <g>
       <use xlink:href="#m733234811d" x="748.773425" y="390.04" style="stroke: #000000; stroke-width: 0.8"/>
      </g>
     </g>
     <g id="text_9">
      <!-- 2026-01 -->
      <g transform="translate(727.882018 404.638438) scale(0.1 -0.1)">
       <defs>
        <path id="DejaVuSans-36" d="M 2113 2584 
Q 1688 2584 1439 2293 
Q 1191 2003 1191 1497 
Q 1191 994 1439 701 
Q 1688 409 2113 409 
Q 2538 409 2786 701 
Q 3034 994 3034 1497 
Q 3034 2003 2786 2293 
Q 2538 2584 2113 2584 
z
M 3366 4563 
L 3366 3988 
Q 3128 4100 2886 4159 
Q 2644 4219 2406 4219 
Q 1781 4219 1451 3797 
Q 1122 3375 1075 2522 
Q 1259 2794 1537 2939 
Q 1816 3084 2150 3084 
Q 2853 3084 3261 2657 
Q 3669 2231 3669 1497 
Q 3669 778 3244 343 
Q 2819 -91 2113 -91 
Q 1303 -91 875 529 
Q 447 1150 447 2328 
Q 447 3434 972 4092 
Q 1497 4750 2381 4750 
Q 2619 4750 2861 4703 
Q 3103 4656 3366 4563 
z
" transform="scale(0.015625)"/>
       </defs>
       <use xlink:href="#DejaVuSans-32"/>
       <use xlink:href="#DejaVuSans-30" transform="translate(63.623047 0)"/>
       <use xlink:href="#DejaVuSans-32" transform="translate(127.246094 0)"/>
       <use xlink:href="#DejaVuSans-36" transform="translate(190.869141 0)"/>
       <use xlink:href="#DejaVuSans-2d" transform="translate(254.492188 0)"/>
       <use xlink:href="#DejaVuSans-30" transform="translate(290.576172 0)"/>
       <use xlink:href="#DejaVuSans-31" transform="translate(354.199219 0)"/>
      </g>
     </g>
    </g>
    <g id="text_10">
     <!-- Date -->
     <g transform="translate(402.509219 418.316562) scale(0.1 -0.1)">
      <defs>
       <path id="DejaVuSans-44" d="M 1259 4147 
L 1259 519 
L 2022 519 
Q 2988 519 3436 956 
Q 3884 1394 3884 2338 
Q 3884 3275 3436 3711 
Q 2988 4147 2022 4147 
L 1259 4147 
z
M 628 4666 
L 1925 4666 
Q 3281 4666 3915 4102 
Q 4550 3538 4550 2338 
Q 4550 1131 3912 565 
Q 3275 0 1925 0 
L 628 0 
L 628 4666 
z
" transform="scale(0.015625)"/>
       <path id="DejaVuSans-61" d="M 2194 1759 
Q 1497 1759 1228 1600 
Q 959 1441 959 1056 
Q 959 750 1161 570 
Q 1363 391 1709 391 
Q 2188 391 2477 730 
Q 2766 1069 2766 1631 
L 2766 1759 
L 2194 1759 
z
M 3341 1997 
L 3341 0 
L 2766 0 
L 2766 531 
Q 2569 213 2275 61 
Q 1981 -91 1556 -91 
Q 1019 -91 701 211 
Q 384 513 384 1019 
Q 384 1609 779 1909 
Q 1175 2209 1959 2209 
L 2766 2209 
L 2766 2266 
Q 2766 2663 2505 2880 
Q 2244 3097 1772 3097 
Q 1472 3097 1187 3025 
Q 903 2953 641 2809 
L 641 3341 
Q 956 3463 1253 3523 
Q 1550 3584 1831 3584 
Q 2591 3584 2966 3190 
Q 3341 2797 3341 1997 
z
" transform="scale(0.015625)"/>
       <path id="DejaVuSans-74" d="M 1172 4494 
L 1172 3500 
L 2356 3500 
L 2356 3053 
L 1172 3053 
L 1172 1153 
Q 1172 725 1289 603 
Q 1406 481 1766 481 
L 2356 481 
L 2356 0 
L 1766 0 
Q 1100 0 847 248 
Q 594 497 594 1153 
L 594 3053 
L 172 3053 
L 172 3500 
L 594 3500 
L 594 4494 
L 1172 4494 
z
" transform="scale(0.015625)"/>
       <path id="DejaVuSans-65" d="M 3597 1894 
L 3597 1613 
L 953 1613 
Q 991 1019 1311 708 
Q 1631 397 2203 397 
Q 2534 397 2845 478 
Q 3156 559 3463 722 
L 3463 178 
Q 3153 47 2828 -22 
Q 2503 -91 2169 -91 
Q 1331 -91 842 396 
Q 353 884 353 1716 
Q 353 2575 817 3079 
Q 1281 3584 2069 3584 
Q 2775 3584 3186 3129 
Q 3597 2675 3597 1894 
z
M 3022 2063 
Q 3016 2534 2758 2815 
Q 2500 3097 2075 3097 
Q 1594 3097 1305 2825 
Q 1016 2553 972 2059 
L 3022 2063 
z
" transform="scale(0.015625)"/>
      </defs>
      <use xlink:href="#DejaVuSans-44"/>
      <use xlink:href="#DejaVuSans-61" transform="translate(77.001953 0)"/>
      <use xlink:href="#DejaVuSans-74" transform="translate(138.28125 0)"/>
      <use xlink:href="#DejaVuSans-65" transform="translate(177.490234 0)"/>
     </g>
    </g>
   </g>
   <g id="matplotlib.axis_2">
    <g id="ytick_1">
     <g id="line2d_10">
      <defs>
       <path id="m89e42e2310" d="M 0 0 
L -3.5 0 
" style="stroke: #000000; stroke-width: 0.8"/>
      </defs>
      <g>
       <use xlink:href="#m89e42e2310" x="47.72" y="363.562633" style="stroke: #000000; stroke-width: 0.8"/>
      </g>
     </g>
     <g id="text_11">
      <!-- 1.0 -->
      <g transform="translate(24.816875 367.361852) scale(0.1 -0.1)">
       <defs>
        <path id="DejaVuSans-2e" d="M 684 794 
L 1344 794 
L 1344 0 
L 684 0 
L 684 794 
z
" transform="scale(0.015625)"/>
       </defs>
       <use xlink:href="#DejaVuSans-31"/>
       <use xlink:href="#DejaVuSans-2e" transform="translate(63.623047 0)"/>
       <use xlink:href="#DejaVuSans-30" transform="translate(95.410156 0)"/>
      </g>
     </g>
    </g>
    <g id="ytick_2">
     <g id="line2d_11">
      <g>
       <use xlink:href="#m89e42e2310" x="47.72" y="303.353746" style="stroke: #000000; stroke-width: 0.8"/>
      </g>
     </g>
     <g id="text_12">
      <!-- 1.5 -->
      <g transform="translate(24.816875 307.152965) scale(0.1 -0.1)">
       <use xlink:href="#DejaVuSans-31"/>
       <use xlink:href="#DejaVuSans-2e" transform="translate(63.623047 0)"/>
       <use xlink:href="#DejaVuSans-35" transform="translate(95.410156 0)"/>
      </g>
     </g>
    </g>
    <g id="ytick_3">
     <g id="line2d_12">
      <g>
       <use xlink:href="#m89e42e2310" x="47.72" y="243.144859" style="stroke: #000000; stroke-width: 0.8"/>
      </g>
     </g>
     <g id="text_13">
      <!-- 2.0 -->
      <g transform="translate(24.816875 246.944078) scale(0.1 -0.1)">
       <use xlink:href="#DejaVuSans-32"/>
       <use xlink:href="#DejaVuSans-2e" transform="translate(63.623047 0)"/>
       <use xlink:href="#DejaVuSans-30" transform="translate(95.410156 0)"/>
      </g>
     </g>
    </g>
    <g id="ytick_4">
     <g id="line2d_13">
      <g>
       <use xlink:href="#m89e42e2310" x="47.72" y="182.935972" style="stroke: #000000; stroke-width: 0.8"/>
      </g>
     </g>
     <g id="text_14">
      <!-- 2.5 -->
      <g transform="translate(24.816875 186.73519) scale(0.1 -0.1)">
       <use xlink:href="#DejaVuSans-32"/>
       <use xlink:href="#DejaVuSans-2e" transform="translate(63.623047 0)"/>
       <use xlink:href="#DejaVuSans-35" transform="translate(95.410156 0)"/>
      </g>
     </g>
    </g>
    <g id="ytick_5">
     <g id="line2d_14">
      <g>
       <use xlink:href="#m89e42e2310" x="47.72" y="122.727085" style="stroke: #000000; stroke-width: 0.8"/>
      </g>
     </g>
     <g id="text_15">
      <!-- 3.0 -->
      <g transform="translate(24.816875 126.526303) scale(0.1 -0.1)">
       <defs>
        <path id="DejaVuSans-33" d="M 2597 2516 
Q 3050 2419 3304 2112 
Q 3559 1806 3559 1356 
Q 3559 666 3084 287 
Q 2609 -91 1734 -91 
Q 1441 -91 1130 -33 
Q 819 25 488 141 
L 488 750 
Q 750 597 1062 519 
Q 1375 441 1716 441 
Q 2309 441 2620 675 
Q 2931 909 2931 1356 
Q 2931 1769 2642 2001 
Q 2353 2234 1838 2234 
L 1294 2234 
L 1294 2753 
L 1863 2753 
Q 2328 2753 2575 2939 
Q 2822 3125 2822 3475 
Q 2822 3834 2567 4026 
Q 2313 4219 1838 4219 
Q 1578 4219 1281 4162 
Q 984 4106 628 3988 
L 628 4550 
Q 988 4650 1302 4700 
Q 1616 4750 1894 4750 
Q 2613 4750 3031 4423 
Q 3450 4097 3450 3541 
Q 3450 3153 3228 2886 
Q 3006 2619 2597 2516 
z
" transform="scale(0.015625)"/>
       </defs>
       <use xlink:href="#DejaVuSans-33"/>
       <use xlink:href="#DejaVuSans-2e" transform="translate(63.623047 0)"/>
       <use xlink:href="#DejaVuSans-30" transform="translate(95.410156 0)"/>
      </g>
     </g>
    </g>
    <g id="ytick_6">
     <g id="line2d_15">
      <g>
       <use xlink:href="#m89e42e2310" x="47.72" y="62.518197" style="stroke: #000000; stroke-width: 0.8"/>
      </g>
     </g>
     <g id="text_16">
      <!-- 3.5 -->
      <g transform="translate(24.816875 66.317416) scale(0.1 -0.1)">
       <use xlink:href="#DejaVuSans-33"/>
       <use xlink:href="#DejaVuSans-2e" transform="translate(63.623047 0)"/>
       <use xlink:href="#DejaVuSans-35" transform="translate(95.410156 0)"/>
      </g>
     </g>
    </g>
    <g id="text_17">
     <!-- Portfolio value (USD) -->
     <g transform="translate(18.737188 260.446719) rotate(-90) scale(0.1 -0.1)">
      <defs>
       <path id="DejaVuSans-50" d="M 1259 4147 
L 1259 2394 
L 2053 2394 
Q 2494 2394 2734 2622 
Q 2975 2850 2975 3272 
Q 2975 3691 2734 3919 
Q 2494 4147 2053 4147 
L 1259 4147 
z
M 628 4666 
L 2053 4666 
Q 2838 4666 3239 4311 
Q 3641 3956 3641 3272 
Q 3641 2581 3239 2228 
Q 2838 1875 2053 1875 
L 1259 1875 
L 1259 0 
L 628 0 
L 628 4666 
z
" transform="scale(0.015625)"/>
       <path id="DejaVuSans-6f" d="M 1959 3097 
Q 1497 3097 1228 2736 
Q 959 2375 959 1747 
Q 959 1119 1226 758 
Q 1494 397 1959 397 
Q 2419 397 2687 759 
Q 2956 1122 2956 1747 
Q 2956 2369 2687 2733 
Q 2419 3097 1959 3097 
z
M 1959 3584 
Q 2709 3584 3137 3096 
Q 3566 2609 3566 1747 
Q 3566 888 3137 398 
Q 2709 -91 1959 -91 
Q 1206 -91 779 398 
Q 353 888 353 1747 
Q 353 2609 779 3096 
Q 1206 3584 1959 3584 
z
" transform="scale(0.015625)"/>
       <path id="DejaVuSans-72" d="M 2631 2963 
Q 2534 3019 2420 3045 
Q 2306 3072 2169 3072 
Q 1681 3072 1420 2755 
Q 1159 2438 1159 1844 
L 1159 0 
L 581 0 
L 581 3500 
L 1159 3500 
L 1159 2956 
Q 1341 3275 1631 3429 
Q 1922 3584 2338 3584 
Q 2397 3584 2469 3576 
Q 2541 3569 2628 3553 
L 2631 2963 
z
" transform="scale(0.015625)"/>
       <path id="DejaVuSans-66" d="M 2375 4863 
L 2375 4384 
L 1825 4384 
Q 1516 4384 1395 4259 
Q 1275 4134 1275 3809 
L 1275 3500 
L 2222 3500 
L 2222 3053 
L 1275 3053 
L 1275 0 
L 697 0 
L 697 3053 
L 147 3053 
L 147 3500 
L 697 3500 
L 697 3744 
Q 697 4328 969 4595 
Q 1241 4863 1831 4863 
L 2375 4863 
z
" transform="scale(0.015625)"/>
       <path id="DejaVuSans-6c" d="M 603 4863 
L 1178 4863 
L 1178 0 
L 603 0 
L 603 4863 
z
" transform="scale(0.015625)"/>
       <path id="DejaVuSans-69" d="M 603 3500 
L 1178 3500 
L 1178 0 
L 603 0 
L 603 3500 
z
M 603 4863 
L 1178 4863 
L 1178 4134 
L 603 4134 
L 603 4863 
z
" transform="scale(0.015625)"/>
       <path id="DejaVuSans-20" transform="scale(0.015625)"/>
       <path id="DejaVuSans-76" d="M 191 3500 
L 800 3500 
L 1894 563 
L 2988 3500 
L 3597 3500 
L 2284 0 
L 1503 0 
L 191 3500 
z
" transform="scale(0.015625)"/>
       <path id="DejaVuSans-75" d="M 544 1381 
L 544 3500 
L 1119 3500 
L 1119 1403 
Q 1119 906 1312 657 
Q 1506 409 1894 409 
Q 2359 409 2629 706 
Q 2900 1003 2900 1516 
L 2900 3500 
L 3475 3500 
L 3475 0 
L 2900 0 
L 2900 538 
Q 2691 219 2414 64 
Q 2138 -91 1772 -91 
Q 1169 -91 856 284 
Q 544 659 544 1381 
z
M 1991 3584 
L 1991 3584 
z
" transform="scale(0.015625)"/>
       <path id="DejaVuSans-28" d="M 1984 4856 
Q 1566 4138 1362 3434 
Q 1159 2731 1159 2009 
Q 1159 1288 1364 580 
Q 1569 -128 1984 -844 
L 1484 -844 
Q 1016 -109 783 600 
Q 550 1309 550 2009 
Q 550 2706 781 3412 
Q 1013 4119 1484 4856 
L 1984 4856 
z
" transform="scale(0.015625)"/>
       <path id="DejaVuSans-55" d="M 556 4666 
L 1191 4666 
L 1191 1831 
Q 1191 1081 1462 751 
Q 1734 422 2344 422 
Q 2950 422 3222 751 
Q 3494 1081 3494 1831 
L 3494 4666 
L 4128 4666 
L 4128 1753 
Q 4128 841 3676 375 
Q 3225 -91 2344 -91 
Q 1459 -91 1007 375 
Q 556 841 556 1753 
L 556 4666 
z
" transform="scale(0.015625)"/>
       <path id="DejaVuSans-53" d="M 3425 4513 
L 3425 3897 
Q 3066 4069 2747 4153 
Q 2428 4238 2131 4238 
Q 1616 4238 1336 4038 
Q 1056 3838 1056 3469 
Q 1056 3159 1242 3001 
Q 1428 2844 1947 2747 
L 2328 2669 
Q 3034 2534 3370 2195 
Q 3706 1856 3706 1288 
Q 3706 609 3251 259 
Q 2797 -91 1919 -91 
Q 1588 -91 1214 -16 
Q 841 59 441 206 
L 441 856 
Q 825 641 1194 531 
Q 1563 422 1919 422 
Q 2459 422 2753 634 
Q 3047 847 3047 1241 
Q 3047 1584 2836 1778 
Q 2625 1972 2144 2069 
L 1759 2144 
Q 1053 2284 737 2584 
Q 422 2884 422 3419 
Q 422 4038 858 4394 
Q 1294 4750 2059 4750 
Q 2388 4750 2728 4690 
Q 3069 4631 3425 4513 
z
" transform="scale(0.015625)"/>
       <path id="DejaVuSans-29" d="M 513 4856 
L 1013 4856 
Q 1481 4119 1714 3412 
Q 1947 2706 1947 2009 
Q 1947 1309 1714 600 
Q 1481 -109 1013 -844 
L 513 -844 
Q 928 -128 1133 580 
Q 1338 1288 1338 2009 
Q 1338 2731 1133 3434 
Q 928 4138 513 4856 
z
" transform="scale(0.015625)"/>
      </defs>
      <use xlink:href="#DejaVuSans-50"/>
      <use xlink:href="#DejaVuSans-6f" transform="translate(56.677734 0)"/>
      <use xlink:href="#DejaVuSans-72" transform="translate(117.859375 0)"/>
      <use xlink:href="#DejaVuSans-74" transform="translate(158.972656 0)"/>
      <use xlink:href="#DejaVuSans-66" transform="translate(198.181641 0)"/>
      <use xlink:href="#DejaVuSans-6f" transform="translate(233.386719 0)"/>
      <use xlink:href="#DejaVuSans-6c" transform="translate(294.568359 0)"/>
      <use xlink:href="#DejaVuSans-69" transform="translate(322.351562 0)"/>
      <use xlink:href="#DejaVuSans-6f" transform="translate(350.134766 0)"/>
      <use xlink:href="#DejaVuSans-20" transform="translate(411.316406 0)"/>
      <use xlink:href="#DejaVuSans-76" transform="translate(443.103516 0)"/>
      <use xlink:href="#DejaVuSans-61" transform="translate(502.283203 0)"/>
      <use xlink:href="#DejaVuSans-6c" transform="translate(563.5625 0)"/>
      <use xlink:href="#DejaVuSans-75" transform="translate(591.345703 0)"/>
      <use xlink:href="#DejaVuSans-65" transform="translate(654.724609 0)"/>
      <use xlink:href="#DejaVuSans-20" transform="translate(716.248047 0)"/>
      <use xlink:href="#DejaVuSans-28" transform="translate(748.035156 0)"/>
      <use xlink:href="#DejaVuSans-55" transform="translate(787.048828 0)"/>
      <use xlink:href="#DejaVuSans-53" transform="translate(860.242188 0)"/>
      <use xlink:href="#DejaVuSans-44" transform="translate(923.71875 0)"/>
      <use xlink:href="#DejaVuSans-29" transform="translate(1000.720703 0)"/>
     </g>
    </g>
   </g>
   <g id="line2d_16">
    <path d="M 81.06 363.562633 
L 81.06 363.353203 
L 82.886849 363.410955 
L 84.713699 363.386556 
L 90.194247 363.273791 
L 91.107671 362.375737 
L 93.847945 362.462037 
L 94.76137 363.153678 
L 97.501644 363.157951 
L 100.241918 362.92752 
L 101.155342 363.112653 
L 102.982192 362.591219 
L 103.895616 362.490295 
L 106.63589 362.424624 
L 107.549315 361.820055 
L 108.46274 361.884848 
L 109.376164 361.575933 
L 110.289589 360.982503 
L 113.943288 360.983407 
L 114.856712 360.04802 
L 116.683562 360.040848 
L 119.423836 359.508306 
L 121.250685 359.50246 
L 122.16411 358.63425 
L 123.077534 358.0952 
L 125.817808 358.006699 
L 126.731233 358.383064 
L 127.644658 358.105881 
L 129.471507 357.831298 
L 133.125205 357.659768 
L 134.03863 357.606775 
L 134.952055 357.667446 
L 135.865479 357.195551 
L 138.605753 356.622866 
L 139.519178 356.634326 
L 141.346027 355.858025 
L 142.259452 354.644494 
L 144.999726 353.68093 
L 145.913151 353.659535 
L 146.826575 353.762281 
L 147.74 353.382675 
L 152.307123 353.455417 
L 153.220548 353.748705 
L 154.133973 352.334191 
L 157.787671 352.333233 
L 158.701096 352.015919 
L 159.614521 352.064957 
L 160.527945 352.24966 
L 161.44137 352.014491 
L 165.095068 351.96071 
L 166.008493 351.435176 
L 166.921918 350.327376 
L 167.835342 350.073167 
L 170.575616 350.334838 
L 172.402466 349.348614 
L 173.31589 349.348805 
L 174.229315 348.719335 
L 176.969589 348.72124 
L 178.796438 349.066943 
L 179.709863 348.691698 
L 180.623288 348.821183 
L 183.363562 348.921554 
L 185.190411 347.693436 
L 186.103836 347.800462 
L 187.01726 347.416391 
L 189.757534 347.253561 
L 190.670959 345.584044 
L 191.584384 345.584162 
L 192.497808 344.474097 
L 193.411233 342.16413 
L 197.064932 341.069209 
L 198.891781 341.101598 
L 199.805205 340.144398 
L 202.545479 340.216946 
L 204.372329 339.694631 
L 205.285753 337.636785 
L 206.199178 337.954867 
L 208.939452 337.660437 
L 210.766301 337.89008 
L 212.593151 337.891524 
L 215.333425 337.475867 
L 216.246849 337.217419 
L 217.160274 337.343624 
L 218.073699 337.346021 
L 218.987123 336.403187 
L 221.727397 335.969772 
L 223.554247 334.161538 
L 224.467671 334.20931 
L 225.381096 334.00995 
L 229.948219 333.930294 
L 230.861644 332.678426 
L 231.775068 332.68734 
L 234.515342 332.909193 
L 235.428767 332.63488 
L 236.342192 331.918777 
L 238.169041 331.872715 
L 240.909315 331.873734 
L 241.82274 331.464167 
L 243.649589 331.813064 
L 244.563014 331.730312 
L 247.303288 331.612162 
L 248.216712 331.830151 
L 249.130137 331.423694 
L 250.043562 330.452236 
L 250.956986 330.306539 
L 253.69726 329.683017 
L 255.52411 329.859586 
L 256.437534 329.617496 
L 257.350959 326.294837 
L 260.091233 326.225618 
L 261.004658 326.396643 
L 261.918082 326.314275 
L 262.831507 323.616792 
L 263.744932 323.616796 
L 267.39863 323.867653 
L 268.312055 322.713707 
L 269.225479 320.749214 
L 270.138904 320.60773 
L 272.879178 320.606716 
L 273.792603 320.823005 
L 274.706027 319.581012 
L 275.619452 316.373711 
L 276.532877 316.705124 
L 279.273151 313.865662 
L 280.186575 313.78471 
L 281.1 314.40347 
L 282.013425 314.425159 
L 282.926849 312.450426 
L 285.667123 312.45736 
L 286.580548 312.165919 
L 287.493973 311.331691 
L 288.407397 311.091568 
L 289.320822 311.090203 
L 292.061096 309.533942 
L 292.974521 308.388483 
L 293.887945 306.755529 
L 294.80137 306.340364 
L 295.714795 306.340802 
L 298.455068 304.236761 
L 299.368493 304.239605 
L 300.281918 303.531842 
L 301.195342 303.532264 
L 302.108767 303.070667 
L 304.849041 303.07044 
L 305.762466 302.887743 
L 306.67589 301.182797 
L 307.589315 298.608232 
L 308.50274 298.00708 
L 311.243014 297.412643 
L 312.156438 297.890595 
L 313.069863 296.657198 
L 313.983288 296.516184 
L 314.896712 295.11661 
L 317.636986 294.191127 
L 318.550411 293.254544 
L 319.463836 293.415293 
L 320.37726 293.453201 
L 321.290685 292.685901 
L 324.030959 292.56775 
L 324.944384 291.905261 
L 325.857808 290.694113 
L 326.771233 290.694307 
L 327.684658 288.714597 
L 330.424932 285.579656 
L 331.338356 285.580592 
L 333.165205 286.109795 
L 336.818904 286.103101 
L 337.732329 285.203709 
L 338.645753 285.646325 
L 339.559178 285.649783 
L 340.472603 284.961288 
L 344.126301 285.263748 
L 345.039726 284.503357 
L 345.953151 284.897295 
L 346.866575 283.883477 
L 349.606849 283.214791 
L 350.520274 283.829459 
L 351.433699 282.851149 
L 352.347123 283.345087 
L 353.260548 282.043523 
L 356.000822 282.444763 
L 356.914247 282.195821 
L 357.827671 282.190968 
L 358.741096 281.897274 
L 359.654521 280.27008 
L 362.394795 280.270772 
L 363.308219 279.8913 
L 364.221644 278.326403 
L 365.135068 278.326822 
L 366.048493 274.896411 
L 372.442466 274.898365 
L 375.18274 272.460339 
L 377.009589 270.253843 
L 377.923014 270.350169 
L 378.836438 268.860058 
L 381.576712 268.866682 
L 382.490137 269.493445 
L 384.316986 265.744197 
L 385.230411 265.646323 
L 387.970685 263.788706 
L 388.88411 263.790643 
L 389.797534 264.019332 
L 390.710959 263.641907 
L 391.624384 262.736951 
L 394.364658 262.51165 
L 395.278082 261.219241 
L 396.191507 260.9654 
L 398.018356 260.995586 
L 400.75863 261.220819 
L 401.672055 261.036456 
L 402.585479 260.290497 
L 403.498904 260.2909 
L 404.412329 259.714614 
L 407.152603 258.143813 
L 408.066027 258.227867 
L 409.892877 258.01083 
L 410.806301 258.454654 
L 413.546575 258.284989 
L 414.46 257.024197 
L 416.286849 257.631703 
L 417.200274 257.614469 
L 419.940548 257.14985 
L 420.853973 256.423602 
L 422.680822 256.818733 
L 423.594247 257.57337 
L 426.334521 257.364998 
L 427.247945 256.320283 
L 428.16137 256.331591 
L 429.074795 253.721011 
L 429.988219 252.389129 
L 432.728493 252.347557 
L 433.641918 250.65168 
L 435.468767 251.179454 
L 436.382192 251.207439 
L 439.122466 250.310107 
L 440.03589 249.057847 
L 440.949315 249.195179 
L 441.86274 246.629494 
L 442.776164 244.977687 
L 445.516438 245.390591 
L 446.429863 245.260685 
L 447.343288 243.966767 
L 448.256712 241.568435 
L 449.170137 239.520253 
L 452.823836 239.565335 
L 453.73726 238.485736 
L 454.650685 238.786648 
L 455.56411 236.979567 
L 458.304384 235.61621 
L 459.217808 235.377574 
L 460.131233 235.378688 
L 461.044658 234.211231 
L 461.958082 231.805732 
L 464.698356 231.805055 
L 465.611781 232.190004 
L 466.525205 231.43215 
L 467.43863 231.731535 
L 471.092329 231.656614 
L 472.005753 230.238676 
L 472.919178 228.273695 
L 473.832603 225.524824 
L 474.746027 223.977294 
L 477.486301 223.240652 
L 478.399726 223.653179 
L 479.313151 222.908031 
L 480.226575 221.834746 
L 481.14 221.250337 
L 483.880274 219.641601 
L 484.793699 217.535366 
L 485.707123 216.989521 
L 486.620548 216.601113 
L 491.187671 216.580876 
L 492.101096 215.152356 
L 493.014521 215.152535 
L 496.668219 212.157843 
L 497.581644 212.716871 
L 499.408493 212.099561 
L 500.321918 208.210266 
L 503.975616 208.144865 
L 504.889041 204.470697 
L 505.802466 196.114841 
L 506.71589 188.803203 
L 509.456164 188.17947 
L 510.369589 187.222449 
L 511.283014 187.14208 
L 512.196438 184.523563 
L 515.850137 184.523563 
L 516.763562 182.381768 
L 517.676986 182.382385 
L 518.590411 182.008945 
L 519.503836 180.205689 
L 522.24411 180.676596 
L 523.157534 177.134993 
L 525.897808 177.123155 
L 528.638082 174.328425 
L 529.551507 172.238036 
L 530.464932 170.922026 
L 532.291781 170.952448 
L 535.032055 170.589458 
L 535.945479 170.589716 
L 536.858904 166.028282 
L 537.772329 165.487756 
L 538.685753 163.270102 
L 541.426027 163.370401 
L 542.339452 162.105374 
L 544.166301 160.68604 
L 545.079726 161.136134 
L 547.82 158.447438 
L 548.733425 157.937039 
L 549.646849 158.715866 
L 550.560274 159.963191 
L 551.473699 155.664948 
L 554.213973 155.691452 
L 555.127397 152.959865 
L 556.040822 152.96012 
L 556.954247 151.105204 
L 557.867671 150.222841 
L 560.607945 150.290622 
L 561.52137 149.465989 
L 562.434795 149.037661 
L 563.348219 147.589348 
L 564.261644 145.086234 
L 567.001918 145.91234 
L 567.915342 145.341512 
L 568.828767 145.344656 
L 569.742192 144.350127 
L 570.655616 143.800935 
L 573.39589 144.409171 
L 574.309315 142.507212 
L 575.22274 141.332648 
L 577.049589 139.245782 
L 579.789863 139.248553 
L 580.703288 136.884702 
L 581.616712 136.626975 
L 582.530137 136.579502 
L 583.443562 136.385358 
L 586.183836 136.007051 
L 587.09726 136.119559 
L 588.010685 135.140735 
L 588.92411 134.532547 
L 589.837534 131.433214 
L 592.577808 131.431532 
L 593.491233 132.15002 
L 594.404658 132.150224 
L 595.318082 130.348635 
L 596.231507 130.50227 
L 598.971781 130.300591 
L 599.885205 127.849334 
L 600.79863 126.315478 
L 601.712055 123.762435 
L 602.625479 124.108792 
L 606.279178 124.113505 
L 607.192603 124.590669 
L 608.106027 124.59114 
L 609.019452 125.474275 
L 611.759726 117.132371 
L 613.586575 117.192503 
L 614.5 116.287861 
L 615.413425 115.545578 
L 618.153699 115.989534 
L 619.067123 116.292924 
L 620.893973 113.959997 
L 621.807397 113.960634 
L 624.547671 113.416663 
L 625.461096 113.872847 
L 626.374521 113.409591 
L 627.287945 112.367095 
L 628.20137 113.120073 
L 630.941644 109.702468 
L 632.768493 108.245217 
L 633.681918 107.347738 
L 634.595342 107.093732 
L 637.335616 106.688692 
L 638.249041 106.113487 
L 639.162466 106.116338 
L 640.07589 104.605245 
L 640.989315 104.890276 
L 643.729589 104.701666 
L 644.643014 102.130798 
L 645.556438 102.128965 
L 646.469863 102.005143 
L 647.383288 99.815206 
L 650.123562 100.192113 
L 651.036986 98.891341 
L 651.950411 96.226617 
L 652.863836 95.97117 
L 656.517534 95.981254 
L 657.430959 94.886685 
L 658.344384 94.654808 
L 659.257808 95.390166 
L 660.171233 95.540701 
L 662.911507 94.213605 
L 663.824932 92.105774 
L 665.651781 88.665955 
L 666.565205 88.804872 
L 669.305479 89.005804 
L 670.218904 88.573928 
L 671.132329 89.37193 
L 672.045753 89.75815 
L 672.959178 89.758927 
L 675.699452 88.173082 
L 676.612877 89.149906 
L 678.439726 85.421927 
L 679.353151 83.204392 
L 682.093425 82.528027 
L 683.006849 81.632845 
L 684.833699 81.551885 
L 685.747123 80.210863 
L 688.487397 80.092454 
L 690.314247 77.379696 
L 691.227671 77.379925 
L 692.141096 78.404854 
L 694.88137 79.300196 
L 695.794795 79.857681 
L 697.621644 76.774692 
L 698.535068 74.068098 
L 701.275342 73.454584 
L 702.188767 71.40836 
L 703.102192 70.683151 
L 704.015616 70.620659 
L 704.929041 69.722101 
L 709.496164 69.358159 
L 711.323014 69.457738 
L 714.063288 67.657332 
L 714.976712 67.451076 
L 715.890137 66.51177 
L 716.803562 62.997433 
L 717.716986 62.859612 
L 720.45726 61.861431 
L 721.370685 60.939136 
L 723.197534 56.992642 
L 724.110959 56.90793 
L 726.851233 55.01323 
L 727.764658 55.293006 
L 728.678082 54.614888 
L 729.591507 52.44583 
L 730.504932 51.355814 
L 733.245205 51.633642 
L 734.15863 49.249453 
L 735.072055 48.59577 
L 735.985479 49.64457 
L 736.898904 48.908763 
L 739.639178 49.207799 
L 740.552603 46.049256 
L 741.466027 43.818464 
L 746.033151 43.894184 
L 746.946575 43.387273 
L 747.86 43.621855 
L 747.86 43.621855 
" clip-path="url(#p0af33ac2b4)" style="fill: none; stroke: #1f77b4; stroke-width: 1.5; stroke-linecap: square"/>
   </g>
   <g id="line2d_17">
    <path d="M 81.06 363.562633 
L 81.06 363.414698 
L 81.973425 363.513027 
L 82.886849 364.294327 
L 83.800274 364.377823 
L 84.713699 364.634846 
L 87.453973 364.538756 
L 88.367397 364.333247 
L 89.280822 364.672687 
L 90.194247 364.765409 
L 91.107671 364.499792 
L 93.847945 364.646147 
L 94.76137 364.904988 
L 95.674795 365.571444 
L 96.588219 365.627349 
L 100.241918 365.498973 
L 101.155342 365.794064 
L 102.068767 365.566787 
L 102.982192 365.476799 
L 103.895616 365.527879 
L 106.63589 365.531778 
L 107.549315 365.249469 
L 109.376164 365.468271 
L 110.289589 365.042689 
L 113.943288 366.384106 
L 114.856712 366.024916 
L 115.770137 366.103542 
L 116.683562 366.316033 
L 120.33726 366.449756 
L 121.250685 367.234334 
L 122.16411 367.103157 
L 123.077534 366.689819 
L 125.817808 366.577175 
L 126.731233 366.861628 
L 127.644658 366.684354 
L 129.471507 366.607402 
L 134.03863 366.700103 
L 134.952055 366.980067 
L 135.865479 367.082178 
L 138.605753 366.836322 
L 139.519178 366.930424 
L 140.432603 366.912404 
L 141.346027 366.512806 
L 142.259452 365.881816 
L 145.913151 365.868798 
L 146.826575 366.017744 
L 147.74 365.948035 
L 148.653425 366.477173 
L 152.307123 366.738195 
L 153.220548 367.126598 
L 154.133973 366.576153 
L 155.047397 367.298749 
L 157.787671 367.698899 
L 158.701096 367.539789 
L 160.527945 367.802098 
L 161.44137 367.71713 
L 164.181644 367.635284 
L 165.095068 368.063921 
L 166.008493 367.963424 
L 166.921918 367.52968 
L 167.835342 367.505855 
L 170.575616 367.705131 
L 172.402466 367.41654 
L 173.31589 368.420298 
L 174.229315 368.276077 
L 178.796438 369.154677 
L 179.709863 368.865497 
L 180.623288 368.999 
L 183.363562 369.042571 
L 184.276986 368.937576 
L 185.190411 368.610199 
L 186.103836 368.742587 
L 187.01726 368.5147 
L 189.757534 368.811208 
L 190.670959 368.465326 
L 191.584384 369.237707 
L 193.411233 368.100684 
L 197.064932 367.866728 
L 197.978356 368.157738 
L 198.891781 368.275373 
L 199.805205 367.999876 
L 203.458904 368.088882 
L 204.372329 367.98006 
L 205.285753 367.151477 
L 206.199178 367.45425 
L 208.939452 367.447535 
L 209.852877 367.682315 
L 210.766301 367.748712 
L 211.679726 368.107219 
L 212.593151 368.27223 
L 215.333425 368.041798 
L 216.246849 367.830835 
L 217.160274 367.932147 
L 218.073699 368.24832 
L 218.987123 367.816192 
L 221.727397 367.667756 
L 222.640822 367.212518 
L 223.554247 367.190784 
L 224.467671 367.294848 
L 225.381096 367.143609 
L 228.12137 367.885097 
L 229.948219 367.903982 
L 230.861644 367.503027 
L 231.775068 367.778969 
L 234.515342 367.970907 
L 236.342192 367.67194 
L 237.255616 367.594192 
L 238.169041 367.953233 
L 240.909315 368.203951 
L 241.82274 367.967664 
L 242.736164 368.061696 
L 243.649589 368.275837 
L 247.303288 368.147938 
L 248.216712 368.358207 
L 249.130137 368.218275 
L 250.043562 367.890778 
L 250.956986 367.769088 
L 253.69726 367.527176 
L 256.437534 367.585079 
L 257.350959 367.016399 
L 261.918082 367.087844 
L 262.831507 366.568015 
L 263.744932 366.974016 
L 266.485205 367.075675 
L 267.39863 367.37401 
L 268.312055 367.47383 
L 270.138904 367.43567 
L 273.792603 367.618456 
L 274.706027 367.407885 
L 275.619452 366.910944 
L 276.532877 367.113197 
L 279.273151 366.025431 
L 280.186575 365.788102 
L 281.1 365.865471 
L 282.013425 366.223024 
L 282.926849 366.34365 
L 286.580548 366.261333 
L 287.493973 365.832955 
L 288.407397 365.939782 
L 289.320822 366.35993 
L 292.061096 365.749652 
L 292.974521 365.122997 
L 293.887945 364.6519 
L 294.80137 364.460996 
L 295.714795 364.780075 
L 298.455068 363.7965 
L 299.368493 363.895347 
L 300.281918 363.554158 
L 302.108767 363.877898 
L 305.762466 364.261995 
L 306.67589 364.330134 
L 307.589315 363.84879 
L 308.50274 363.607874 
L 311.243014 363.828769 
L 312.156438 364.223018 
L 313.069863 364.170185 
L 313.983288 364.271588 
L 314.896712 363.765943 
L 317.636986 363.593255 
L 318.550411 363.348191 
L 319.463836 363.55838 
L 320.37726 363.645507 
L 321.290685 363.34575 
L 324.030959 363.486786 
L 324.944384 363.277244 
L 325.857808 362.583149 
L 326.771233 363.433139 
L 327.684658 363.021732 
L 330.424932 362.712065 
L 333.165205 363.790702 
L 334.07863 364.250258 
L 338.645753 365.087626 
L 339.559178 365.491799 
L 340.472603 365.371605 
L 344.126301 365.695229 
L 345.039726 365.781902 
L 345.953151 366.091501 
L 346.866575 366.11448 
L 349.606849 365.871789 
L 350.520274 366.311588 
L 351.433699 366.159266 
L 352.347123 366.574216 
L 353.260548 366.368921 
L 357.827671 366.913585 
L 359.654521 366.784973 
L 363.308219 366.711637 
L 364.221644 366.20679 
L 365.135068 367.569883 
L 366.048493 366.721904 
L 368.788767 367.252967 
L 369.702192 367.584939 
L 371.529041 368.472749 
L 372.442466 368.89688 
L 375.18274 368.727437 
L 376.096164 368.350631 
L 377.009589 368.097762 
L 377.923014 368.390284 
L 378.836438 368.515677 
L 381.576712 368.473026 
L 382.490137 368.930746 
L 383.403562 368.609989 
L 384.316986 368.051776 
L 385.230411 367.96767 
L 387.970685 367.891545 
L 388.88411 368.142622 
L 389.797534 368.129166 
L 390.710959 368.277979 
L 391.624384 367.902328 
L 395.278082 368.376351 
L 396.191507 368.592772 
L 397.104932 368.631852 
L 398.018356 369.021102 
L 402.585479 369.358628 
L 403.498904 370.435696 
L 404.412329 370.682318 
L 407.152603 370.237041 
L 408.066027 370.489538 
L 414.46 370.517053 
L 417.200274 371.068828 
L 419.940548 370.934018 
L 420.853973 370.50999 
L 423.594247 371.174897 
L 426.334521 371.491095 
L 427.247945 371.17449 
L 428.16137 371.143923 
L 429.074795 370.808957 
L 429.988219 370.847506 
L 432.728493 371.171137 
L 433.641918 370.173819 
L 435.468767 370.357753 
L 440.03589 369.814669 
L 440.949315 369.936104 
L 441.86274 369.81217 
L 442.776164 370.00078 
L 445.516438 370.950775 
L 446.429863 370.137593 
L 447.343288 369.596848 
L 448.256712 369.379558 
L 449.170137 369.381759 
L 452.823836 369.811247 
L 453.73726 369.625713 
L 454.650685 369.8461 
L 455.56411 369.037787 
L 459.217808 368.574654 
L 461.044658 368.887198 
L 461.958082 368.140718 
L 464.698356 368.305259 
L 465.611781 368.562375 
L 466.525205 368.270538 
L 467.43863 368.469694 
L 468.352055 369.212625 
L 471.092329 369.330539 
L 472.005753 368.99829 
L 473.832603 367.730775 
L 474.746027 367.522025 
L 477.486301 367.377435 
L 478.399726 367.633855 
L 479.313151 367.537171 
L 480.226575 367.263538 
L 481.14 367.515317 
L 483.880274 367.497718 
L 484.793699 367.144183 
L 486.620548 367.029975 
L 487.533973 367.440798 
L 491.187671 367.842691 
L 492.101096 367.636444 
L 493.014521 367.905344 
L 493.927945 367.766607 
L 496.668219 367.764503 
L 497.581644 368.022728 
L 498.495068 367.813972 
L 499.408493 367.204366 
L 500.321918 366.252107 
L 503.062192 367.196234 
L 503.975616 368.104873 
L 504.889041 367.627454 
L 505.802466 367.415274 
L 506.71589 365.33491 
L 510.369589 364.630074 
L 511.283014 364.613624 
L 512.196438 363.994194 
L 515.850137 363.994194 
L 516.763562 363.267492 
L 517.676986 364.277216 
L 518.590411 364.419674 
L 519.503836 364.12505 
L 522.24411 364.372113 
L 523.157534 363.662448 
L 524.984384 364.037229 
L 525.897808 364.642498 
L 529.551507 364.066974 
L 530.464932 363.645492 
L 531.378356 364.081606 
L 532.291781 364.877616 
L 535.032055 364.761767 
L 535.945479 365.631648 
L 536.858904 364.93728 
L 537.772329 365.088506 
L 538.685753 364.786681 
L 541.426027 364.768522 
L 544.166301 364.08531 
L 545.079726 364.23558 
L 547.82 363.357639 
L 548.733425 363.320461 
L 550.560274 364.422636 
L 551.473699 363.630999 
L 554.213973 363.65259 
L 555.127397 362.971165 
L 556.040822 363.449091 
L 556.954247 363.078028 
L 557.867671 362.990486 
L 560.607945 363.271711 
L 561.52137 363.173293 
L 562.434795 363.266066 
L 563.348219 363.030396 
L 564.261644 362.430427 
L 567.915342 362.839701 
L 568.828767 363.444103 
L 569.742192 363.410408 
L 570.655616 363.242847 
L 573.39589 363.598992 
L 575.22274 362.6838 
L 577.049589 362.106607 
L 579.789863 362.132471 
L 580.703288 361.586938 
L 581.616712 361.49 
L 582.530137 361.531345 
L 583.443562 361.73738 
L 586.183836 361.852267 
L 587.09726 362.307553 
L 588.010685 362.359987 
L 589.837534 361.987669 
L 592.577808 362.267608 
L 594.404658 362.910116 
L 595.318082 362.729934 
L 596.231507 362.929146 
L 598.971781 362.88028 
L 600.79863 362.066924 
L 601.712055 361.741217 
L 602.625479 362.01324 
L 605.365753 362.305676 
L 606.279178 363.032333 
L 607.192603 363.2102 
L 608.106027 363.988369 
L 609.019452 364.399965 
L 611.759726 363.350932 
L 612.673151 363.261744 
L 613.586575 363.350224 
L 615.413425 362.80862 
L 618.153699 363.003251 
L 619.067123 363.204946 
L 620.893973 362.504514 
L 621.807397 362.969573 
L 624.547671 362.787825 
L 626.374521 363.212994 
L 627.287945 363.204356 
L 628.20137 363.519753 
L 630.941644 362.780776 
L 631.855068 363.077396 
L 634.595342 362.467297 
L 637.335616 362.360439 
L 638.249041 362.201296 
L 639.162466 362.821947 
L 640.07589 362.621536 
L 640.989315 362.766053 
L 643.729589 362.450532 
L 644.643014 361.938171 
L 645.556438 362.20415 
L 646.469863 362.102161 
L 647.383288 361.725923 
L 650.123562 361.892535 
L 651.036986 361.579699 
L 651.950411 361.027379 
L 652.863836 361.382266 
L 653.77726 361.879351 
L 656.517534 362.154669 
L 657.430959 361.906708 
L 658.344384 361.875838 
L 659.257808 362.349294 
L 660.171233 362.968316 
L 662.911507 362.639444 
L 663.824932 362.365045 
L 665.651781 362.076704 
L 666.565205 362.211332 
L 669.305479 362.395863 
L 670.218904 362.244909 
L 671.132329 362.723317 
L 672.045753 362.911155 
L 672.959178 363.334374 
L 675.699452 363.210939 
L 676.612877 363.36045 
L 677.526301 363.37802 
L 678.439726 363.016126 
L 679.353151 362.800545 
L 683.006849 362.820596 
L 683.920274 363.181565 
L 685.747123 363.214059 
L 688.487397 363.202022 
L 690.314247 362.749275 
L 692.141096 363.482288 
L 694.88137 363.731132 
L 696.708219 364.191088 
L 697.621644 364.125804 
L 698.535068 363.692858 
L 701.275342 363.679866 
L 703.102192 363.434719 
L 707.669315 363.215154 
L 708.58274 363.490893 
L 709.496164 363.505766 
L 710.409589 364.02847 
L 711.323014 364.165754 
L 714.976712 364.152049 
L 715.890137 363.907488 
L 716.803562 363.417211 
L 721.370685 363.274295 
L 722.28411 363.088152 
L 723.197534 362.658451 
L 724.110959 362.801513 
L 726.851233 362.621858 
L 728.678082 362.884964 
L 729.591507 362.335553 
L 730.504932 362.191541 
L 733.245205 362.322577 
L 735.072055 362.098177 
L 735.985479 362.344474 
L 736.898904 362.29285 
L 739.639178 362.623625 
L 741.466027 361.593735 
L 746.946575 361.687674 
L 747.86 361.852079 
L 747.86 361.852079 
" clip-path="url(#p0af33ac2b4)" style="fill: none; stroke: #ff7f0e; stroke-width: 1.5; stroke-linecap: square"/>
   </g>
   <g id="line2d_18">
    <path d="M 81.06 363.562633 
L 747.86 363.562633 
L 747.86 363.562633 
" clip-path="url(#p0af33ac2b4)" style="fill: none; stroke-dasharray: 5.55,2.4; stroke-dashoffset: 0; stroke: #2ca02c; stroke-width: 1.5"/>
   </g>
   <g id="line2d_19">
    <path d="M 81.06 363.562633 
L 81.06 363.190101 
L 81.973425 363.352371 
L 82.886849 364.520174 
L 83.800274 364.348493 
L 84.713699 364.503311 
L 87.453973 364.605829 
L 88.367397 364.207394 
L 89.280822 364.835515 
L 90.194247 364.573545 
L 93.847945 364.968156 
L 94.76137 365.337989 
L 95.674795 366.07081 
L 97.501644 366.991728 
L 101.155342 367.131716 
L 102.068767 367.196213 
L 102.982192 366.305806 
L 103.895616 366.832487 
L 106.63589 366.458318 
L 107.549315 366.073552 
L 109.376164 366.213009 
L 110.289589 365.564868 
L 113.943288 367.343753 
L 114.856712 367.18278 
L 115.770137 367.772178 
L 116.683562 367.710973 
L 119.423836 367.80541 
L 120.33726 368.022959 
L 121.250685 369.540028 
L 122.16411 369.241356 
L 123.077534 368.550159 
L 125.817808 368.661567 
L 126.731233 368.935513 
L 127.644658 368.813269 
L 128.558082 368.477949 
L 132.211781 368.740087 
L 134.03863 368.418803 
L 134.952055 368.406966 
L 135.865479 369.150541 
L 138.605753 369.012745 
L 139.519178 369.25432 
L 141.346027 368.851129 
L 142.259452 368.194823 
L 147.74 368.36355 
L 148.653425 369.13366 
L 151.393699 369.045271 
L 152.307123 369.552925 
L 153.220548 369.685573 
L 154.133973 369.299664 
L 155.047397 370.849295 
L 157.787671 370.841738 
L 158.701096 371.074431 
L 159.614521 371.5967 
L 160.527945 371.826309 
L 161.44137 371.274918 
L 164.181644 371.391124 
L 166.008493 372.112926 
L 166.921918 371.502108 
L 167.835342 371.329926 
L 170.575616 371.536973 
L 171.489041 371.765585 
L 172.402466 371.513319 
L 173.31589 372.752491 
L 174.229315 372.360063 
L 176.969589 372.841354 
L 177.883014 372.576792 
L 178.796438 372.693986 
L 179.709863 372.429948 
L 180.623288 372.637865 
L 183.363562 372.501343 
L 184.276986 372.612218 
L 185.190411 372.552348 
L 186.103836 372.922779 
L 187.01726 372.689108 
L 189.757534 372.831378 
L 190.670959 372.469146 
L 191.584384 373.532727 
L 192.497808 373.155477 
L 193.411233 372.352706 
L 196.151507 371.880781 
L 197.064932 371.974746 
L 197.978356 372.194197 
L 198.891781 372.13387 
L 199.805205 371.869643 
L 202.545479 371.943849 
L 203.458904 372.122782 
L 204.372329 371.974746 
L 205.285753 371.207332 
L 206.199178 371.886969 
L 210.766301 372.522995 
L 211.679726 372.990754 
L 212.593151 372.909421 
L 215.333425 372.917921 
L 217.160274 372.661049 
L 218.073699 372.72325 
L 218.987123 371.554402 
L 221.727397 371.306177 
L 223.554247 369.866651 
L 224.467671 370.192691 
L 225.381096 369.837157 
L 228.12137 370.649823 
L 229.948219 370.861898 
L 230.861644 370.416638 
L 231.775068 370.374719 
L 234.515342 369.966584 
L 235.428767 369.65469 
L 236.342192 369.121969 
L 237.255616 369.137553 
L 238.169041 370.063777 
L 240.909315 370.396318 
L 241.82274 370.280599 
L 244.563014 370.955059 
L 247.303288 371.165995 
L 248.216712 371.535727 
L 249.130137 371.601674 
L 250.043562 371.23613 
L 250.956986 371.172262 
L 253.69726 370.539688 
L 254.610685 370.865676 
L 255.52411 370.814001 
L 256.437534 371.040536 
L 257.350959 370.640972 
L 260.091233 370.749647 
L 261.918082 370.284415 
L 262.831507 368.883754 
L 263.744932 369.525845 
L 266.485205 369.617357 
L 268.312055 370.067615 
L 269.225479 369.230986 
L 270.138904 368.660255 
L 273.792603 369.370842 
L 275.619452 368.331948 
L 276.532877 367.637717 
L 279.273151 365.354625 
L 280.186575 365.178386 
L 281.1 364.86067 
L 282.926849 366.825729 
L 286.580548 366.538506 
L 288.407397 366.548827 
L 289.320822 367.583043 
L 292.061096 366.924302 
L 292.974521 366.217111 
L 293.887945 365.001614 
L 294.80137 364.657729 
L 295.714795 364.741785 
L 298.455068 364.125414 
L 299.368493 364.094287 
L 300.281918 363.328009 
L 301.195342 363.342343 
L 302.108767 364.071633 
L 305.762466 364.695563 
L 306.67589 364.493465 
L 307.589315 363.944081 
L 308.50274 363.626853 
L 311.243014 363.645392 
L 312.156438 364.425947 
L 313.069863 364.026316 
L 313.983288 364.867649 
L 314.896712 364.486435 
L 317.636986 364.179139 
L 318.550411 363.736575 
L 320.37726 364.122581 
L 321.290685 364.190442 
L 324.030959 364.629678 
L 324.944384 364.125414 
L 325.857808 363.297902 
L 326.771233 364.583377 
L 327.684658 363.972446 
L 330.424932 363.152881 
L 331.338356 363.840413 
L 332.251781 363.986628 
L 333.165205 364.490658 
L 334.07863 364.757179 
L 336.818904 365.712426 
L 337.732329 365.143625 
L 339.559178 365.957076 
L 340.472603 365.41694 
L 343.212877 365.65868 
L 344.126301 366.180228 
L 345.039726 366.240321 
L 345.953151 366.615869 
L 346.866575 366.701259 
L 350.520274 366.630783 
L 351.433699 366.647058 
L 352.347123 366.810856 
L 353.260548 366.693129 
L 356.000822 367.042914 
L 356.914247 366.556159 
L 357.827671 366.875708 
L 358.741096 366.751345 
L 359.654521 366.376665 
L 362.394795 366.927004 
L 363.308219 366.462403 
L 364.221644 366.222573 
L 365.135068 368.009715 
L 366.048493 367.621723 
L 368.788767 368.049429 
L 369.702192 368.611788 
L 370.615616 368.858962 
L 371.529041 369.328147 
L 372.442466 369.929447 
L 375.18274 369.702293 
L 376.096164 368.994519 
L 377.009589 368.847215 
L 377.923014 369.053078 
L 378.836438 369.474224 
L 381.576712 369.933295 
L 383.403562 369.392825 
L 384.316986 368.838081 
L 385.230411 368.882448 
L 387.970685 368.841598 
L 388.88411 369.394119 
L 389.797534 369.40963 
L 390.710959 369.066085 
L 391.624384 368.368814 
L 395.278082 368.391183 
L 396.191507 368.903313 
L 397.104932 368.995823 
L 398.018356 370.130183 
L 400.75863 370.096228 
L 401.672055 370.388693 
L 402.585479 370.190145 
L 403.498904 371.353666 
L 404.412329 371.014147 
L 407.152603 370.262773 
L 408.066027 370.948768 
L 408.979452 371.178528 
L 410.806301 371.002837 
L 414.46 371.545692 
L 416.286849 372.104303 
L 417.200274 372.626877 
L 419.940548 372.296232 
L 420.853973 371.769309 
L 421.767397 372.313426 
L 426.334521 373.205036 
L 427.247945 373.085286 
L 428.16137 372.681795 
L 429.988219 372.52422 
L 432.728493 372.942212 
L 433.641918 371.895626 
L 434.555342 371.975983 
L 435.468767 371.926549 
L 436.382192 372.07225 
L 439.122466 371.992039 
L 440.03589 371.641456 
L 440.949315 371.656364 
L 441.86274 371.921604 
L 442.776164 372.30348 
L 445.516438 373.018641 
L 446.429863 372.578016 
L 447.343288 371.794097 
L 448.256712 371.307429 
L 449.170137 371.776743 
L 451.910411 372.471598 
L 452.823836 372.543785 
L 453.73726 372.746398 
L 454.650685 372.79633 
L 455.56411 371.546931 
L 458.304384 371.119604 
L 459.217808 371.231123 
L 460.131233 371.590481 
L 461.044658 371.709765 
L 461.958082 370.89717 
L 464.698356 370.946256 
L 465.611781 370.801387 
L 466.525205 370.179945 
L 467.43863 370.421717 
L 468.352055 371.130891 
L 471.092329 371.462227 
L 472.919178 369.826887 
L 473.832603 369.961465 
L 474.746027 369.010138 
L 477.486301 368.2265 
L 479.313151 369.02576 
L 480.226575 368.808045 
L 481.14 368.918956 
L 483.880274 369.110276 
L 484.793699 368.733804 
L 485.707123 368.14794 
L 486.620548 368.102343 
L 487.533973 368.756687 
L 491.187671 368.928086 
L 492.101096 368.922872 
L 493.014521 369.119367 
L 493.927945 368.759694 
L 496.668219 368.687754 
L 497.581644 369.075183 
L 498.495068 369.020556 
L 499.408493 368.153885 
L 500.321918 365.784002 
L 503.062192 364.729184 
L 503.975616 365.852739 
L 504.889041 363.890136 
L 505.802466 365.264482 
L 506.71589 360.246875 
L 509.456164 359.838489 
L 510.369589 359.518992 
L 511.283014 360.248385 
L 512.196438 359.180983 
L 515.850137 359.180983 
L 516.763562 358.455987 
L 517.676986 361.042237 
L 518.590411 361.594852 
L 519.503836 361.438313 
L 522.24411 361.38802 
L 523.157534 360.311664 
L 524.984384 361.02586 
L 525.897808 361.473795 
L 529.551507 360.402106 
L 530.464932 360.97672 
L 531.378356 360.725918 
L 532.291781 361.889115 
L 535.032055 362.171743 
L 535.945479 363.777845 
L 536.858904 362.998862 
L 537.772329 363.25802 
L 538.685753 362.298717 
L 542.339452 362.355559 
L 543.252877 361.137708 
L 544.166301 360.893236 
L 545.079726 361.385057 
L 548.733425 360.1956 
L 549.646849 361.219083 
L 550.560274 361.999101 
L 551.473699 360.429016 
L 554.213973 360.474092 
L 555.127397 359.515946 
L 556.040822 360.567148 
L 556.954247 359.82483 
L 557.867671 360.018812 
L 562.434795 360.421499 
L 563.348219 359.89007 
L 564.261644 358.448228 
L 567.915342 359.17484 
L 568.828767 359.657641 
L 569.742192 359.990063 
L 570.655616 359.584545 
L 573.39589 359.791428 
L 574.309315 359.001283 
L 575.22274 357.847962 
L 576.136164 357.625122 
L 577.049589 357.177061 
L 579.789863 356.757692 
L 580.703288 355.870188 
L 581.616712 355.541279 
L 582.530137 355.672715 
L 583.443562 356.092815 
L 586.183836 356.083158 
L 587.09726 356.583735 
L 588.010685 356.377238 
L 588.92411 355.904115 
L 589.837534 356.513378 
L 592.577808 356.524572 
L 593.491233 356.697093 
L 594.404658 357.260911 
L 595.318082 357.181808 
L 596.231507 357.491347 
L 598.971781 357.222956 
L 599.885205 356.73123 
L 600.79863 356.017081 
L 601.712055 355.761334 
L 602.625479 356.216707 
L 605.365753 356.297018 
L 606.279178 357.525998 
L 607.192603 357.898075 
L 608.106027 359.098109 
L 609.019452 359.203978 
L 611.759726 357.669119 
L 612.673151 358.151148 
L 614.5 357.9888 
L 615.413425 357.932503 
L 618.153699 358.21037 
L 619.067123 358.881202 
L 619.980548 358.002867 
L 620.893973 357.780565 
L 621.807397 358.218149 
L 624.547671 358.074706 
L 626.374521 358.257078 
L 627.287945 357.689539 
L 628.20137 358.396996 
L 630.941644 357.393593 
L 631.855068 358.007552 
L 633.681918 357.273567 
L 634.595342 357.287794 
L 638.249041 357.059782 
L 639.162466 357.869891 
L 640.07589 357.636122 
L 640.989315 357.844833 
L 643.729589 356.905732 
L 644.643014 355.884732 
L 645.556438 356.606097 
L 646.469863 356.824591 
L 647.383288 356.390061 
L 650.123562 356.510174 
L 651.036986 356.182936 
L 651.950411 354.760097 
L 652.863836 355.158403 
L 653.77726 355.836234 
L 656.517534 356.434933 
L 657.430959 355.81683 
L 658.344384 355.66137 
L 659.257808 356.182936 
L 660.171233 357.042336 
L 664.738356 356.430121 
L 666.565205 356.561355 
L 669.305479 356.588526 
L 670.218904 356.223135 
L 672.959178 358.007552 
L 675.699452 357.403063 
L 676.612877 357.713096 
L 677.526301 357.278307 
L 679.353151 355.726193 
L 682.093425 356.010632 
L 683.006849 355.81845 
L 683.920274 356.510174 
L 685.747123 356.25045 
L 688.487397 356.406092 
L 690.314247 355.887958 
L 691.227671 357.004241 
L 692.141096 357.287794 
L 694.88137 357.808788 
L 695.794795 358.313086 
L 696.708219 358.654258 
L 697.621644 358.561396 
L 698.535068 357.965346 
L 701.275342 358.151148 
L 702.188767 357.84953 
L 703.102192 357.088328 
L 704.015616 356.689115 
L 704.929041 355.959007 
L 707.669315 356.121798 
L 708.58274 356.436527 
L 709.496164 357.067714 
L 710.409589 357.890246 
L 711.323014 357.899642 
L 714.063288 358.396996 
L 715.890137 358.289753 
L 716.803562 357.587375 
L 717.716986 357.761745 
L 720.45726 357.56378 
L 721.370685 357.761745 
L 722.28411 357.488201 
L 723.197534 356.997891 
L 724.110959 357.632983 
L 726.851233 357.800948 
L 727.764658 358.080642 
L 728.678082 357.965346 
L 729.591507 356.937531 
L 730.504932 356.203848 
L 734.15863 356.399682 
L 735.072055 356.269722 
L 735.985479 356.269722 
L 736.898904 356.078319 
L 739.639178 356.370825 
L 741.466027 355.012811 
L 743.292877 355.111001 
L 746.033151 355.305308 
L 746.946575 355.217205 
L 747.86 355.705133 
L 747.86 355.705133 
" clip-path="url(#p0af33ac2b4)" style="fill: none; stroke-dasharray: 5.55,2.4; stroke-dashoffset: 0; stroke: #d62728; stroke-width: 1.5"/>
   </g>
   <g id="patch_3">
    <path d="M 47.72 390.04 
L 47.72 26.88 
" style="fill: none; stroke: #000000; stroke-width: 0.8; stroke-linejoin: miter; stroke-linecap: square"/>
   </g>
   <g id="patch_4">
    <path d="M 781.2 390.04 
L 781.2 26.88 
" style="fill: none; stroke: #000000; stroke-width: 0.8; stroke-linejoin: miter; stroke-linecap: square"/>
   </g>
   <g id="patch_5">
    <path d="M 47.72 390.04 
L 781.2 390.04 
" style="fill: none; stroke: #000000; stroke-width: 0.8; stroke-linejoin: miter; stroke-linecap: square"/>
   </g>
   <g id="patch_6">
    <path d="M 47.72 26.88 
L 781.2 26.88 
" style="fill: none; stroke: #000000; stroke-width: 0.8; stroke-linejoin: miter; stroke-linecap: square"/>
   </g>
   <g id="text_18">
    <!-- Backtest portfolio values -->
    <g transform="translate(339.955 20.88) scale(0.12 -0.12)">
     <defs>
      <path id="DejaVuSans-42" d="M 1259 2228 
L 1259 519 
L 2272 519 
Q 2781 519 3026 730 
Q 3272 941 3272 1375 
Q 3272 1813 3026 2020 
Q 2781 2228 2272 2228 
L 1259 2228 
z
M 1259 4147 
L 1259 2741 
L 2194 2741 
Q 2656 2741 2882 2914 
Q 3109 3088 3109 3444 
Q 3109 3797 2882 3972 
Q 2656 4147 2194 4147 
L 1259 4147 
z
M 628 4666 
L 2241 4666 
Q 2963 4666 3353 4366 
Q 3744 4066 3744 3513 
Q 3744 3084 3544 2831 
Q 3344 2578 2956 2516 
Q 3422 2416 3680 2098 
Q 3938 1781 3938 1306 
Q 3938 681 3513 340 
Q 3088 0 2303 0 
L 628 0 
L 628 4666 
z
" transform="scale(0.015625)"/>
      <path id="DejaVuSans-63" d="M 3122 3366 
L 3122 2828 
Q 2878 2963 2633 3030 
Q 2388 3097 2138 3097 
Q 1578 3097 1268 2742 
Q 959 2388 959 1747 
Q 959 1106 1268 751 
Q 1578 397 2138 397 
Q 2388 397 2633 464 
Q 2878 531 3122 666 
L 3122 134 
Q 2881 22 2623 -34 
Q 2366 -91 2075 -91 
Q 1284 -91 818 406 
Q 353 903 353 1747 
Q 353 2603 823 3093 
Q 1294 3584 2113 3584 
Q 2378 3584 2631 3529 
Q 2884 3475 3122 3366 
z
" transform="scale(0.015625)"/>
      <path id="DejaVuSans-6b" d="M 581 4863 
L 1159 4863 
L 1159 1991 
L 2875 3500 
L 3609 3500 
L 1753 1863 
L 3688 0 
L 2938 0 
L 1159 1709 
L 1159 0 
L 581 0 
L 581 4863 
z
" transform="scale(0.015625)"/>
      <path id="DejaVuSans-73" d="M 2834 3397 
L 2834 2853 
Q 2591 2978 2328 3040 
Q 2066 3103 1784 3103 
Q 1356 3103 1142 2972 
Q 928 2841 928 2578 
Q 928 2378 1081 2264 
Q 1234 2150 1697 2047 
L 1894 2003 
Q 2506 1872 2764 1633 
Q 3022 1394 3022 966 
Q 3022 478 2636 193 
Q 2250 -91 1575 -91 
Q 1294 -91 989 -36 
Q 684 19 347 128 
L 347 722 
Q 666 556 975 473 
Q 1284 391 1588 391 
Q 1994 391 2212 530 
Q 2431 669 2431 922 
Q 2431 1156 2273 1281 
Q 2116 1406 1581 1522 
L 1381 1569 
Q 847 1681 609 1914 
Q 372 2147 372 2553 
Q 372 3047 722 3315 
Q 1072 3584 1716 3584 
Q 2034 3584 2315 3537 
Q 2597 3491 2834 3397 
z
" transform="scale(0.015625)"/>
      <path id="DejaVuSans-70" d="M 1159 525 
L 1159 -1331 
L 581 -1331 
L 581 3500 
L 1159 3500 
L 1159 2969 
Q 1341 3281 1617 3432 
Q 1894 3584 2278 3584 
Q 2916 3584 3314 3078 
Q 3713 2572 3713 1747 
Q 3713 922 3314 415 
Q 2916 -91 2278 -91 
Q 1894 -91 1617 61 
Q 1341 213 1159 525 
z
M 3116 1747 
Q 3116 2381 2855 2742 
Q 2594 3103 2138 3103 
Q 1681 3103 1420 2742 
Q 1159 2381 1159 1747 
Q 1159 1113 1420 752 
Q 1681 391 2138 391 
Q 2594 391 2855 752 
Q 3116 1113 3116 1747 
z
" transform="scale(0.015625)"/>
     </defs>
     <use xlink:href="#DejaVuSans-42"/>
     <use xlink:href="#DejaVuSans-61" transform="translate(68.603516 0)"/>
     <use xlink:href="#DejaVuSans-63" transform="translate(129.882812 0)"/>
     <use xlink:href="#DejaVuSans-6b" transform="translate(184.863281 0)"/>
     <use xlink:href="#DejaVuSans-74" transform="translate(242.773438 0)"/>
     <use xlink:href="#DejaVuSans-65" transform="translate(281.982422 0)"/>
     <use xlink:href="#DejaVuSans-73" transform="translate(343.505859 0)"/>
     <use xlink:href="#DejaVuSans-74" transform="translate(395.605469 0)"/>
     <use xlink:href="#DejaVuSans-20" transform="translate(434.814453 0)"/>
     <use xlink:href="#DejaVuSans-70" transform="translate(466.601562 0)"/>
     <use xlink:href="#DejaVuSans-6f" transform="translate(530.078125 0)"/>
     <use xlink:href="#DejaVuSans-72" transform="translate(591.259766 0)"/>
     <use xlink:href="#DejaVuSans-74" transform="translate(632.373047 0)"/>
     <use xlink:href="#DejaVuSans-66" transform="translate(671.582031 0)"/>
     <use xlink:href="#DejaVuSans-6f" transform="translate(706.787109 0)"/>
     <use xlink:href="#DejaVuSans-6c" transform="translate(767.96875 0)"/>
     <use xlink:href="#DejaVuSans-69" transform="translate(795.751953 0)"/>
     <use xlink:href="#DejaVuSans-6f" transform="translate(823.535156 0)"/>
     <use xlink:href="#DejaVuSans-20" transform="translate(884.716797 0)"/>
     <use xlink:href="#DejaVuSans-76" transform="translate(916.503906 0)"/>
     <use xlink:href="#DejaVuSans-61" transform="translate(975.683594 0)"/>
     <use xlink:href="#DejaVuSans-6c" transform="translate(1036.962891 0)"/>
     <use xlink:href="#DejaVuSans-75" transform="translate(1064.746094 0)"/>
     <use xlink:href="#DejaVuSans-65" transform="translate(1128.125 0)"/>
     <use xlink:href="#DejaVuSans-73" transform="translate(1189.648438 0)"/>
    </g>
   </g>
   <g id="legend_1">
    <g id="patch_7">
     <path d="M 54.72 94.426875 
L 239.629375 94.426875 
Q 241.629375 94.426875 241.629375 92.426875 
L 241.629375 33.88 
Q 241.629375 31.88 239.629375 31.88 
L 54.72 31.88 
Q 52.72 31.88 52.72 33.88 
L 52.72 92.426875 
Q 52.72 94.426875 54.72 94.426875 
z
" style="fill: #ffffff; opacity: 0.8; stroke: #cccccc; stroke-linejoin: miter"/>
    </g>
    <g id="line2d_20">
     <path d="M 56.72 39.978437 
L 66.72 39.978437 
L 76.72 39.978437 
" style="fill: none; stroke: #1f77b4; stroke-width: 1.5; stroke-linecap: square"/>
    </g>
    <g id="text_19">
     <!-- HTGNN:full_rebalancing -->
     <g transform="translate(84.72 43.478437) scale(0.1 -0.1)">
      <defs>
       <path id="DejaVuSans-48" d="M 628 4666 
L 1259 4666 
L 1259 2753 
L 3553 2753 
L 3553 4666 
L 4184 4666 
L 4184 0 
L 3553 0 
L 3553 2222 
L 1259 2222 
L 1259 0 
L 628 0 
L 628 4666 
z
" transform="scale(0.015625)"/>
       <path id="DejaVuSans-54" d="M -19 4666 
L 3928 4666 
L 3928 4134 
L 2272 4134 
L 2272 0 
L 1638 0 
L 1638 4134 
L -19 4134 
L -19 4666 
z
" transform="scale(0.015625)"/>
       <path id="DejaVuSans-47" d="M 3809 666 
L 3809 1919 
L 2778 1919 
L 2778 2438 
L 4434 2438 
L 4434 434 
Q 4069 175 3628 42 
Q 3188 -91 2688 -91 
Q 1594 -91 976 548 
Q 359 1188 359 2328 
Q 359 3472 976 4111 
Q 1594 4750 2688 4750 
Q 3144 4750 3555 4637 
Q 3966 4525 4313 4306 
L 4313 3634 
Q 3963 3931 3569 4081 
Q 3175 4231 2741 4231 
Q 1884 4231 1454 3753 
Q 1025 3275 1025 2328 
Q 1025 1384 1454 906 
Q 1884 428 2741 428 
Q 3075 428 3337 486 
Q 3600 544 3809 666 
z
" transform="scale(0.015625)"/>
       <path id="DejaVuSans-4e" d="M 628 4666 
L 1478 4666 
L 3547 763 
L 3547 4666 
L 4159 4666 
L 4159 0 
L 3309 0 
L 1241 3903 
L 1241 0 
L 628 0 
L 628 4666 
z
" transform="scale(0.015625)"/>
       <path id="DejaVuSans-3a" d="M 750 794 
L 1409 794 
L 1409 0 
L 750 0 
L 750 794 
z
M 750 3309 
L 1409 3309 
L 1409 2516 
L 750 2516 
L 750 3309 
z
" transform="scale(0.015625)"/>
       <path id="DejaVuSans-5f" d="M 3263 -1063 
L 3263 -1509 
L -63 -1509 
L -63 -1063 
L 3263 -1063 
z
" transform="scale(0.015625)"/>
       <path id="DejaVuSans-62" d="M 3116 1747 
Q 3116 2381 2855 2742 
Q 2594 3103 2138 3103 
Q 1681 3103 1420 2742 
Q 1159 2381 1159 1747 
Q 1159 1113 1420 752 
Q 1681 391 2138 391 
Q 2594 391 2855 752 
Q 3116 1113 3116 1747 
z
M 1159 2969 
Q 1341 3281 1617 3432 
Q 1894 3584 2278 3584 
Q 2916 3584 3314 3078 
Q 3713 2572 3713 1747 
Q 3713 922 3314 415 
Q 2916 -91 2278 -91 
Q 1894 -91 1617 61 
Q 1341 213 1159 525 
L 1159 0 
L 581 0 
L 581 4863 
L 1159 4863 
L 1159 2969 
z
" transform="scale(0.015625)"/>
       <path id="DejaVuSans-6e" d="M 3513 2113 
L 3513 0 
L 2938 0 
L 2938 2094 
Q 2938 2591 2744 2837 
Q 2550 3084 2163 3084 
Q 1697 3084 1428 2787 
Q 1159 2491 1159 1978 
L 1159 0 
L 581 0 
L 581 3500 
L 1159 3500 
L 1159 2956 
Q 1366 3272 1645 3428 
Q 1925 3584 2291 3584 
Q 2894 3584 3203 3211 
Q 3513 2838 3513 2113 
z
" transform="scale(0.015625)"/>
       <path id="DejaVuSans-67" d="M 2906 1791 
Q 2906 2416 2648 2759 
Q 2391 3103 1925 3103 
Q 1463 3103 1205 2759 
Q 947 2416 947 1791 
Q 947 1169 1205 825 
Q 1463 481 1925 481 
Q 2391 481 2648 825 
Q 2906 1169 2906 1791 
z
M 3481 434 
Q 3481 -459 3084 -895 
Q 2688 -1331 1869 -1331 
Q 1566 -1331 1297 -1286 
Q 1028 -1241 775 -1147 
L 775 -588 
Q 1028 -725 1275 -790 
Q 1522 -856 1778 -856 
Q 2344 -856 2625 -561 
Q 2906 -266 2906 331 
L 2906 616 
Q 2728 306 2450 153 
Q 2172 0 1784 0 
Q 1141 0 747 490 
Q 353 981 353 1791 
Q 353 2603 747 3093 
Q 1141 3584 1784 3584 
Q 2172 3584 2450 3431 
Q 2728 3278 2906 2969 
L 2906 3500 
L 3481 3500 
L 3481 434 
z
" transform="scale(0.015625)"/>
      </defs>
      <use xlink:href="#DejaVuSans-48"/>
      <use xlink:href="#DejaVuSans-54" transform="translate(75.195312 0)"/>
      <use xlink:href="#DejaVuSans-47" transform="translate(136.279297 0)"/>
      <use xlink:href="#DejaVuSans-4e" transform="translate(213.769531 0)"/>
      <use xlink:href="#DejaVuSans-4e" transform="translate(288.574219 0)"/>
      <use xlink:href="#DejaVuSans-3a" transform="translate(363.378906 0)"/>
      <use xlink:href="#DejaVuSans-66" transform="translate(397.070312 0)"/>
      <use xlink:href="#DejaVuSans-75" transform="translate(432.275391 0)"/>
      <use xlink:href="#DejaVuSans-6c" transform="translate(495.654297 0)"/>
      <use xlink:href="#DejaVuSans-6c" transform="translate(523.4375 0)"/>
      <use xlink:href="#DejaVuSans-5f" transform="translate(551.220703 0)"/>
      <use xlink:href="#DejaVuSans-72" transform="translate(601.220703 0)"/>
      <use xlink:href="#DejaVuSans-65" transform="translate(640.083984 0)"/>
      <use xlink:href="#DejaVuSans-62" transform="translate(701.607422 0)"/>
      <use xlink:href="#DejaVuSans-61" transform="translate(765.083984 0)"/>
      <use xlink:href="#DejaVuSans-6c" transform="translate(826.363281 0)"/>
      <use xlink:href="#DejaVuSans-61" transform="translate(854.146484 0)"/>
      <use xlink:href="#DejaVuSans-6e" transform="translate(915.425781 0)"/>
      <use xlink:href="#DejaVuSans-63" transform="translate(978.804688 0)"/>
      <use xlink:href="#DejaVuSans-69" transform="translate(1033.785156 0)"/>
      <use xlink:href="#DejaVuSans-6e" transform="translate(1061.568359 0)"/>
      <use xlink:href="#DejaVuSans-67" transform="translate(1124.947266 0)"/>
     </g>
    </g>
    <g id="line2d_21">
     <path d="M 56.72 54.934687 
L 66.72 54.934687 
L 76.72 54.934687 
" style="fill: none; stroke: #ff7f0e; stroke-width: 1.5; stroke-linecap: square"/>
    </g>
    <g id="text_20">
     <!-- NN:full_rebalancing -->
     <g transform="translate(84.72 58.434687) scale(0.1 -0.1)">
      <use xlink:href="#DejaVuSans-4e"/>
      <use xlink:href="#DejaVuSans-4e" transform="translate(74.804688 0)"/>
      <use xlink:href="#DejaVuSans-3a" transform="translate(149.609375 0)"/>
      <use xlink:href="#DejaVuSans-66" transform="translate(183.300781 0)"/>
      <use xlink:href="#DejaVuSans-75" transform="translate(218.505859 0)"/>
      <use xlink:href="#DejaVuSans-6c" transform="translate(281.884766 0)"/>
      <use xlink:href="#DejaVuSans-6c" transform="translate(309.667969 0)"/>
      <use xlink:href="#DejaVuSans-5f" transform="translate(337.451172 0)"/>
      <use xlink:href="#DejaVuSans-72" transform="translate(387.451172 0)"/>
      <use xlink:href="#DejaVuSans-65" transform="translate(426.314453 0)"/>
      <use xlink:href="#DejaVuSans-62" transform="translate(487.837891 0)"/>
      <use xlink:href="#DejaVuSans-61" transform="translate(551.314453 0)"/>
      <use xlink:href="#DejaVuSans-6c" transform="translate(612.59375 0)"/>
      <use xlink:href="#DejaVuSans-61" transform="translate(640.376953 0)"/>
      <use xlink:href="#DejaVuSans-6e" transform="translate(701.65625 0)"/>
      <use xlink:href="#DejaVuSans-63" transform="translate(765.035156 0)"/>
      <use xlink:href="#DejaVuSans-69" transform="translate(820.015625 0)"/>
      <use xlink:href="#DejaVuSans-6e" transform="translate(847.798828 0)"/>
      <use xlink:href="#DejaVuSans-67" transform="translate(911.177734 0)"/>
     </g>
    </g>
    <g id="line2d_22">
     <path d="M 56.72 69.890938 
L 66.72 69.890938 
L 76.72 69.890938 
" style="fill: none; stroke-dasharray: 5.55,2.4; stroke-dashoffset: 0; stroke: #2ca02c; stroke-width: 1.5"/>
    </g>
    <g id="text_21">
     <!-- benchmark:USD -->
     <g transform="translate(84.72 73.390938) scale(0.1 -0.1)">
      <defs>
       <path id="DejaVuSans-68" d="M 3513 2113 
L 3513 0 
L 2938 0 
L 2938 2094 
Q 2938 2591 2744 2837 
Q 2550 3084 2163 3084 
Q 1697 3084 1428 2787 
Q 1159 2491 1159 1978 
L 1159 0 
L 581 0 
L 581 4863 
L 1159 4863 
L 1159 2956 
Q 1366 3272 1645 3428 
Q 1925 3584 2291 3584 
Q 2894 3584 3203 3211 
Q 3513 2838 3513 2113 
z
" transform="scale(0.015625)"/>
       <path id="DejaVuSans-6d" d="M 3328 2828 
Q 3544 3216 3844 3400 
Q 4144 3584 4550 3584 
Q 5097 3584 5394 3201 
Q 5691 2819 5691 2113 
L 5691 0 
L 5113 0 
L 5113 2094 
Q 5113 2597 4934 2840 
Q 4756 3084 4391 3084 
Q 3944 3084 3684 2787 
Q 3425 2491 3425 1978 
L 3425 0 
L 2847 0 
L 2847 2094 
Q 2847 2600 2669 2842 
Q 2491 3084 2119 3084 
Q 1678 3084 1418 2786 
Q 1159 2488 1159 1978 
L 1159 0 
L 581 0 
L 581 3500 
L 1159 3500 
L 1159 2956 
Q 1356 3278 1631 3431 
Q 1906 3584 2284 3584 
Q 2666 3584 2933 3390 
Q 3200 3197 3328 2828 
z
" transform="scale(0.015625)"/>
      </defs>
      <use xlink:href="#DejaVuSans-62"/>
      <use xlink:href="#DejaVuSans-65" transform="translate(63.476562 0)"/>
      <use xlink:href="#DejaVuSans-6e" transform="translate(125 0)"/>
      <use xlink:href="#DejaVuSans-63" transform="translate(188.378906 0)"/>
      <use xlink:href="#DejaVuSans-68" transform="translate(243.359375 0)"/>
      <use xlink:href="#DejaVuSans-6d" transform="translate(306.738281 0)"/>
      <use xlink:href="#DejaVuSans-61" transform="translate(404.150391 0)"/>
      <use xlink:href="#DejaVuSans-72" transform="translate(465.429688 0)"/>
      <use xlink:href="#DejaVuSans-6b" transform="translate(506.542969 0)"/>
      <use xlink:href="#DejaVuSans-3a" transform="translate(564.453125 0)"/>
      <use xlink:href="#DejaVuSans-55" transform="translate(598.144531 0)"/>
      <use xlink:href="#DejaVuSans-53" transform="translate(671.337891 0)"/>
      <use xlink:href="#DejaVuSans-44" transform="translate(734.814453 0)"/>
     </g>
    </g>
    <g id="line2d_23">
     <path d="M 56.72 84.569062 
L 66.72 84.569062 
L 76.72 84.569062 
" style="fill: none; stroke-dasharray: 5.55,2.4; stroke-dashoffset: 0; stroke: #d62728; stroke-width: 1.5"/>
    </g>
    <g id="text_22">
     <!-- benchmark:best_currency:CHF -->
     <g transform="translate(84.72 88.069062) scale(0.1 -0.1)">
      <defs>
       <path id="DejaVuSans-79" d="M 2059 -325 
Q 1816 -950 1584 -1140 
Q 1353 -1331 966 -1331 
L 506 -1331 
L 506 -850 
L 844 -850 
Q 1081 -850 1212 -737 
Q 1344 -625 1503 -206 
L 1606 56 
L 191 3500 
L 800 3500 
L 1894 763 
L 2988 3500 
L 3597 3500 
L 2059 -325 
z
" transform="scale(0.015625)"/>
       <path id="DejaVuSans-43" d="M 4122 4306 
L 4122 3641 
Q 3803 3938 3442 4084 
Q 3081 4231 2675 4231 
Q 1875 4231 1450 3742 
Q 1025 3253 1025 2328 
Q 1025 1406 1450 917 
Q 1875 428 2675 428 
Q 3081 428 3442 575 
Q 3803 722 4122 1019 
L 4122 359 
Q 3791 134 3420 21 
Q 3050 -91 2638 -91 
Q 1578 -91 968 557 
Q 359 1206 359 2328 
Q 359 3453 968 4101 
Q 1578 4750 2638 4750 
Q 3056 4750 3426 4639 
Q 3797 4528 4122 4306 
z
" transform="scale(0.015625)"/>
       <path id="DejaVuSans-46" d="M 628 4666 
L 3309 4666 
L 3309 4134 
L 1259 4134 
L 1259 2759 
L 3109 2759 
L 3109 2228 
L 1259 2228 
L 1259 0 
L 628 0 
L 628 4666 
z
" transform="scale(0.015625)"/>
      </defs>
      <use xlink:href="#DejaVuSans-62"/>
      <use xlink:href="#DejaVuSans-65" transform="translate(63.476562 0)"/>
      <use xlink:href="#DejaVuSans-6e" transform="translate(125 0)"/>
      <use xlink:href="#DejaVuSans-63" transform="translate(188.378906 0)"/>
      <use xlink:href="#DejaVuSans-68" transform="translate(243.359375 0)"/>
      <use xlink:href="#DejaVuSans-6d" transform="translate(306.738281 0)"/>
      <use xlink:href="#DejaVuSans-61" transform="translate(404.150391 0)"/>
      <use xlink:href="#DejaVuSans-72" transform="translate(465.429688 0)"/>
      <use xlink:href="#DejaVuSans-6b" transform="translate(506.542969 0)"/>
      <use xlink:href="#DejaVuSans-3a" transform="translate(564.453125 0)"/>
      <use xlink:href="#DejaVuSans-62" transform="translate(598.144531 0)"/>
      <use xlink:href="#DejaVuSans-65" transform="translate(661.621094 0)"/>
      <use xlink:href="#DejaVuSans-73" transform="translate(723.144531 0)"/>
      <use xlink:href="#DejaVuSans-74" transform="translate(775.244141 0)"/>
      <use xlink:href="#DejaVuSans-5f" transform="translate(814.453125 0)"/>
      <use xlink:href="#DejaVuSans-63" transform="translate(864.453125 0)"/>
      <use xlink:href="#DejaVuSans-75" transform="translate(919.433594 0)"/>
      <use xlink:href="#DejaVuSans-72" transform="translate(982.8125 0)"/>
      <use xlink:href="#DejaVuSans-72" transform="translate(1022.175781 0)"/>
      <use xlink:href="#DejaVuSans-65" transform="translate(1061.039062 0)"/>
      <use xlink:href="#DejaVuSans-6e" transform="translate(1122.5625 0)"/>
      <use xlink:href="#DejaVuSans-63" transform="translate(1185.941406 0)"/>
      <use xlink:href="#DejaVuSans-79" transform="translate(1240.921875 0)"/>
      <use xlink:href="#DejaVuSans-3a" transform="translate(1292.851562 0)"/>
      <use xlink:href="#DejaVuSans-43" transform="translate(1326.542969 0)"/>
      <use xlink:href="#DejaVuSans-48" transform="translate(1396.367188 0)"/>
      <use xlink:href="#DejaVuSans-46" transform="translate(1471.5625 0)"/>
     </g>
    </g>
   </g>
  </g>
 </g>
 <defs>
  <clipPath id="p0af33ac2b4">
   <rect x="47.72" y="26.88" width="733.48" height="363.16"/>
  </clipPath>
 </defs>
</svg>
