<?xml version="1.0" encoding="utf-8" standalone="no"?>
<!DOCTYPE svg PUBLIC "-//W3C//DTD SVG 1.1//EN"
  "http://www.w3.org/Graphics/SVG/1.1/DTD/svg11.dtd">
<svg xmlns:xlink="http://www.w3.org/1999/xlink" width="792pt" height="432pt" viewBox="0 0 792 432" xmlns="http://www.w3.org/2000/svg" version="1.1">
 <metadata>
  <rdf:RDF xmlns:dc="http://purl.org/dc/elements/1.1/" xmlns:cc="http://creativecommons.org/ns#" xmlns:rdf="http://www.w3.org/1999/02/22-rdf-syntax-ns#">
   <cc:Work>
    <dc:type rdf:resource="http://purl.org/dc/dcmitype/StillImage"/>
    <dc:date>2026-05-07T17:41:46.324044</dc:date>
    <dc:format>image/svg+xml</dc:format>
    <dc:creator>
     <cc:Agent>
      <dc:title>Matplotlib v3.10.9, https://matplotlib.org/</dc:title>
     </cc:Agent>
    </dc:creator>
   </cc:Work>
  </rdf:RDF>
 </metadata>
 <defs>
  <style type="text/css">*{stroke-linejoin: round; stroke-linecap: butt}</style>
 </defs>
 <g id="figure_1">
  <g id="patch_1">
   <path d="M 0 432 
L 792 432 
L 792 0 
L 0 0 
z
" style="fill: #ffffff"/>
  </g>
  <g id="axes_1">
   <g id="patch_2">
    <path d="M 47.72 390.04 
L 781.2 390.04 
L 781.2 26.88 
L 47.72 26.88 
z
" style="fill: #ffffff"/>
   </g>
   <g id="matplotlib.axis_1">
    <g id="xtick_1">
     <g id="line2d_1">
      <defs>
       <path id="m990bc52baa" d="M 0 0 
L 0 3.5 
" style="stroke: #000000; stroke-width: 0.8"/>
      </defs>
      <g>
       <use xlink:href="#m990bc52baa" x="81.06" y="390.04" style="stroke: #000000; stroke-width: 0.8"/>
      </g>
     </g>
     <g id="text_1">
      <!-- 2024-01 -->
      <g transform="translate(60.168594 404.638438) scale(0.1 -0.1)">
       <defs>
        <path id="DejaVuSans-32" d="M 1228 531 
L 3431 531 
L 3431 0 
L 469 0 
L 469 531 
Q 828 903 1448 1529 
Q 2069 2156 2228 2338 
Q 2531 2678 2651 2914 
Q 2772 3150 2772 3378 
Q 2772 3750 2511 3984 
Q 2250 4219 1831 4219 
Q 1534 4219 1204 4116 
Q 875 4013 500 3803 
L 500 4441 
Q 881 4594 1212 4672 
Q 1544 4750 1819 4750 
Q 2544 4750 2975 4387 
Q 3406 4025 3406 3419 
Q 3406 3131 3298 2873 
Q 3191 2616 2906 2266 
Q 2828 2175 2409 1742 
Q 1991 1309 1228 531 
z
" transform="scale(0.015625)"/>
        <path id="DejaVuSans-30" d="M 2034 4250 
Q 1547 4250 1301 3770 
Q 1056 3291 1056 2328 
Q 1056 1369 1301 889 
Q 1547 409 2034 409 
Q 2525 409 2770 889 
Q 3016 1369 3016 2328 
Q 3016 3291 2770 3770 
Q 2525 4250 2034 4250 
z
M 2034 4750 
Q 2819 4750 3233 4129 
Q 3647 3509 3647 2328 
Q 3647 1150 3233 529 
Q 2819 -91 2034 -91 
Q 1250 -91 836 529 
Q 422 1150 422 2328 
Q 422 3509 836 4129 
Q 1250 4750 2034 4750 
z
" transform="scale(0.015625)"/>
        <path id="DejaVuSans-34" d="M 2419 4116 
L 825 1625 
L 2419 1625 
L 2419 4116 
z
M 2253 4666 
L 3047 4666 
L 3047 1625 
L 3713 1625 
L 3713 1100 
L 3047 1100 
L 3047 0 
L 2419 0 
L 2419 1100 
L 313 1100 
L 313 1709 
L 2253 4666 
z
" transform="scale(0.015625)"/>
        <path id="DejaVuSans-2d" d="M 313 2009 
L 1997 2009 
L 1997 1497 
L 313 1497 
L 313 2009 
z
" transform="scale(0.015625)"/>
        <path id="DejaVuSans-31" d="M 794 531 
L 1825 531 
L 1825 4091 
L 703 3866 
L 703 4441 
L 1819 4666 
L 2450 4666 
L 2450 531 
L 3481 531 
L 3481 0 
L 794 0 
L 794 531 
z
" transform="scale(0.015625)"/>
       </defs>
       <use xlink:href="#DejaVuSans-32"/>
       <use xlink:href="#DejaVuSans-30" transform="translate(63.623047 0)"/>
       <use xlink:href="#DejaVuSans-32" transform="translate(127.246094 0)"/>
       <use xlink:href="#DejaVuSans-34" transform="translate(190.869141 0)"/>
       <use xlink:href="#DejaVuSans-2d" transform="translate(254.492188 0)"/>
       <use xlink:href="#DejaVuSans-30" transform="translate(290.576172 0)"/>
       <use xlink:href="#DejaVuSans-31" transform="translate(354.199219 0)"/>
      </g>
     </g>
    </g>
    <g id="xtick_2">
     <g id="line2d_2">
      <g>
       <use xlink:href="#m990bc52baa" x="164.181644" y="390.04" style="stroke: #000000; stroke-width: 0.8"/>
      </g>
     </g>
     <g id="text_2">
      <!-- 2024-04 -->
      <g transform="translate(143.290238 404.638438) scale(0.1 -0.1)">
       <use xlink:href="#DejaVuSans-32"/>
       <use xlink:href="#DejaVuSans-30" transform="translate(63.623047 0)"/>
       <use xlink:href="#DejaVuSans-32" transform="translate(127.246094 0)"/>
       <use xlink:href="#DejaVuSans-34" transform="translate(190.869141 0)"/>
       <use xlink:href="#DejaVuSans-2d" transform="translate(254.492188 0)"/>
       <use xlink:href="#DejaVuSans-30" transform="translate(290.576172 0)"/>
       <use xlink:href="#DejaVuSans-34" transform="translate(354.199219 0)"/>
      </g>
     </g>
    </g>
    <g id="xtick_3">
     <g id="line2d_3">
      <g>
       <use xlink:href="#m990bc52baa" x="247.303288" y="390.04" style="stroke: #000000; stroke-width: 0.8"/>
      </g>
     </g>
     <g id="text_3">
      <!-- 2024-07 -->
      <g transform="translate(226.411881 404.638438) scale(0.1 -0.1)">
       <defs>
        <path id="DejaVuSans-37" d="M 525 4666 
L 3525 4666 
L 3525 4397 
L 1831 0 
L 1172 0 
L 2766 4134 
L 525 4134 
L 525 4666 
z
" transform="scale(0.015625)"/>
       </defs>
       <use xlink:href="#DejaVuSans-32"/>
       <use xlink:href="#DejaVuSans-30" transform="translate(63.623047 0)"/>
       <use xlink:href="#DejaVuSans-32" transform="translate(127.246094 0)"/>
       <use xlink:href="#DejaVuSans-34" transform="translate(190.869141 0)"/>
       <use xlink:href="#DejaVuSans-2d" transform="translate(254.492188 0)"/>
       <use xlink:href="#DejaVuSans-30" transform="translate(290.576172 0)"/>
       <use xlink:href="#DejaVuSans-37" transform="translate(354.199219 0)"/>
      </g>
     </g>
    </g>
    <g id="xtick_4">
     <g id="line2d_4">
      <g>
       <use xlink:href="#m990bc52baa" x="331.338356" y="390.04" style="stroke: #000000; stroke-width: 0.8"/>
      </g>
     </g>
     <g id="text_4">
      <!-- 2024-10 -->
      <g transform="translate(310.44695 404.638438) scale(0.1 -0.1)">
       <use xlink:href="#DejaVuSans-32"/>
       <use xlink:href="#DejaVuSans-30" transform="translate(63.623047 0)"/>
       <use xlink:href="#DejaVuSans-32" transform="translate(127.246094 0)"/>
       <use xlink:href="#DejaVuSans-34" transform="translate(190.869141 0)"/>
       <use xlink:href="#DejaVuSans-2d" transform="translate(254.492188 0)"/>
       <use xlink:href="#DejaVuSans-31" transform="translate(290.576172 0)"/>
       <use xlink:href="#DejaVuSans-30" transform="translate(354.199219 0)"/>
      </g>
     </g>
    </g>
    <g id="xtick_5">
     <g id="line2d_5">
      <g>
       <use xlink:href="#m990bc52baa" x="415.373425" y="390.04" style="stroke: #000000; stroke-width: 0.8"/>
      </g>
     </g>
     <g id="text_5">
      <!-- 2025-01 -->
      <g transform="translate(394.482018 404.638438) scale(0.1 -0.1)">
       <defs>
        <path id="DejaVuSans-35" d="M 691 4666 
L 3169 4666 
L 3169 4134 
L 1269 4134 
L 1269 2991 
Q 1406 3038 1543 3061 
Q 1681 3084 1819 3084 
Q 2600 3084 3056 2656 
Q 3513 2228 3513 1497 
Q 3513 744 3044 326 
Q 2575 -91 1722 -91 
Q 1428 -91 1123 -41 
Q 819 9 494 109 
L 494 744 
Q 775 591 1075 516 
Q 1375 441 1709 441 
Q 2250 441 2565 725 
Q 2881 1009 2881 1497 
Q 2881 1984 2565 2268 
Q 2250 2553 1709 2553 
Q 1456 2553 1204 2497 
Q 953 2441 691 2322 
L 691 4666 
z
" transform="scale(0.015625)"/>
       </defs>
       <use xlink:href="#DejaVuSans-32"/>
       <use xlink:href="#DejaVuSans-30" transform="translate(63.623047 0)"/>
       <use xlink:href="#DejaVuSans-32" transform="translate(127.246094 0)"/>
       <use xlink:href="#DejaVuSans-35" transform="translate(190.869141 0)"/>
       <use xlink:href="#DejaVuSans-2d" transform="translate(254.492188 0)"/>
       <use xlink:href="#DejaVuSans-30" transform="translate(290.576172 0)"/>
       <use xlink:href="#DejaVuSans-31" transform="translate(354.199219 0)"/>
      </g>
     </g>
    </g>
    <g id="xtick_6">
     <g id="line2d_6">
      <g>
       <use xlink:href="#m990bc52baa" x="497.581644" y="390.04" style="stroke: #000000; stroke-width: 0.8"/>
      </g>
     </g>
     <g id="text_6">
      <!-- 2025-04 -->
      <g transform="translate(476.690238 404.638438) scale(0.1 -0.1)">
       <use xlink:href="#DejaVuSans-32"/>
       <use xlink:href="#DejaVuSans-30" transform="translate(63.623047 0)"/>
       <use xlink:href="#DejaVuSans-32" transform="translate(127.246094 0)"/>
       <use xlink:href="#DejaVuSans-35" transform="translate(190.869141 0)"/>
       <use xlink:href="#DejaVuSans-2d" transform="translate(254.492188 0)"/>
       <use xlink:href="#DejaVuSans-30" transform="translate(290.576172 0)"/>
       <use xlink:href="#DejaVuSans-34" transform="translate(354.199219 0)"/>
      </g>
     </g>
    </g>
    <g id="xtick_7">
     <g id="line2d_7">
      <g>
       <use xlink:href="#m990bc52baa" x="580.703288" y="390.04" style="stroke: #000000; stroke-width: 0.8"/>
      </g>
     </g>
     <g id="text_7">
      <!-- 2025-07 -->
      <g transform="translate(559.811881 404.638438) scale(0.1 -0.1)">
       <use xlink:href="#DejaVuSans-32"/>
       <use xlink:href="#DejaVuSans-30" transform="translate(63.623047 0)"/>
       <use xlink:href="#DejaVuSans-32" transform="translate(127.246094 0)"/>
       <use xlink:href="#DejaVuSans-35" transform="translate(190.869141 0)"/>
       <use xlink:href="#DejaVuSans-2d" transform="translate(254.492188 0)"/>
       <use xlink:href="#DejaVuSans-30" transform="translate(290.576172 0)"/>
       <use xlink:href="#DejaVuSans-37" transform="translate(354.199219 0)"/>
      </g>
     </g>
    </g>
    <g id="xtick_8">
     <g id="line2d_8">
      <g>
       <use xlink:href="#m990bc52baa" x="664.738356" y="390.04" style="stroke: #000000; stroke-width: 0.8"/>
      </g>
     </g>
     <g id="text_8">
      <!-- 2025-10 -->
      <g transform="translate(643.84695 404.638438) scale(0.1 -0.1)">
       <use xlink:href="#DejaVuSans-32"/>
       <use xlink:href="#DejaVuSans-30" transform="translate(63.623047 0)"/>
       <use xlink:href="#DejaVuSans-32" transform="translate(127.246094 0)"/>
       <use xlink:href="#DejaVuSans-35" transform="translate(190.869141 0)"/>
       <use xlink:href="#DejaVuSans-2d" transform="translate(254.492188 0)"/>
       <use xlink:href="#DejaVuSans-31" transform="translate(290.576172 0)"/>
       <use xlink:href="#DejaVuSans-30" transform="translate(354.199219 0)"/>
      </g>
     </g>
    </g>
    <g id="xtick_9">
     <g id="line2d_9">
      <g>
       <use xlink:href="#m990bc52baa" x="748.773425" y="390.04" style="stroke: #000000; stroke-width: 0.8"/>
      </g>
     </g>
     <g id="text_9">
      <!-- 2026-01 -->
      <g transform="translate(727.882018 404.638438) scale(0.1 -0.1)">
       <defs>
        <path id="DejaVuSans-36" d="M 2113 2584 
Q 1688 2584 1439 2293 
Q 1191 2003 1191 1497 
Q 1191 994 1439 701 
Q 1688 409 2113 409 
Q 2538 409 2786 701 
Q 3034 994 3034 1497 
Q 3034 2003 2786 2293 
Q 2538 2584 2113 2584 
z
M 3366 4563 
L 3366 3988 
Q 3128 4100 2886 4159 
Q 2644 4219 2406 4219 
Q 1781 4219 1451 3797 
Q 1122 3375 1075 2522 
Q 1259 2794 1537 2939 
Q 1816 3084 2150 3084 
Q 2853 3084 3261 2657 
Q 3669 2231 3669 1497 
Q 3669 778 3244 343 
Q 2819 -91 2113 -91 
Q 1303 -91 875 529 
Q 447 1150 447 2328 
Q 447 3434 972 4092 
Q 1497 4750 2381 4750 
Q 2619 4750 2861 4703 
Q 3103 4656 3366 4563 
z
" transform="scale(0.015625)"/>
       </defs>
       <use xlink:href="#DejaVuSans-32"/>
       <use xlink:href="#DejaVuSans-30" transform="translate(63.623047 0)"/>
       <use xlink:href="#DejaVuSans-32" transform="translate(127.246094 0)"/>
       <use xlink:href="#DejaVuSans-36" transform="translate(190.869141 0)"/>
       <use xlink:href="#DejaVuSans-2d" transform="translate(254.492188 0)"/>
       <use xlink:href="#DejaVuSans-30" transform="translate(290.576172 0)"/>
       <use xlink:href="#DejaVuSans-31" transform="translate(354.199219 0)"/>
      </g>
     </g>
    </g>
    <g id="text_10">
     <!-- Date -->
     <g transform="translate(402.509219 418.316562) scale(0.1 -0.1)">
      <defs>
       <path id="DejaVuSans-44" d="M 1259 4147 
L 1259 519 
L 2022 519 
Q 2988 519 3436 956 
Q 3884 1394 3884 2338 
Q 3884 3275 3436 3711 
Q 2988 4147 2022 4147 
L 1259 4147 
z
M 628 4666 
L 1925 4666 
Q 3281 4666 3915 4102 
Q 4550 3538 4550 2338 
Q 4550 1131 3912 565 
Q 3275 0 1925 0 
L 628 0 
L 628 4666 
z
" transform="scale(0.015625)"/>
       <path id="DejaVuSans-61" d="M 2194 1759 
Q 1497 1759 1228 1600 
Q 959 1441 959 1056 
Q 959 750 1161 570 
Q 1363 391 1709 391 
Q 2188 391 2477 730 
Q 2766 1069 2766 1631 
L 2766 1759 
L 2194 1759 
z
M 3341 1997 
L 3341 0 
L 2766 0 
L 2766 531 
Q 2569 213 2275 61 
Q 1981 -91 1556 -91 
Q 1019 -91 701 211 
Q 384 513 384 1019 
Q 384 1609 779 1909 
Q 1175 2209 1959 2209 
L 2766 2209 
L 2766 2266 
Q 2766 2663 2505 2880 
Q 2244 3097 1772 3097 
Q 1472 3097 1187 3025 
Q 903 2953 641 2809 
L 641 3341 
Q 956 3463 1253 3523 
Q 1550 3584 1831 3584 
Q 2591 3584 2966 3190 
Q 3341 2797 3341 1997 
z
" transform="scale(0.015625)"/>
       <path id="DejaVuSans-74" d="M 1172 4494 
L 1172 3500 
L 2356 3500 
L 2356 3053 
L 1172 3053 
L 1172 1153 
Q 1172 725 1289 603 
Q 1406 481 1766 481 
L 2356 481 
L 2356 0 
L 1766 0 
Q 1100 0 847 248 
Q 594 497 594 1153 
L 594 3053 
L 172 3053 
L 172 3500 
L 594 3500 
L 594 4494 
L 1172 4494 
z
" transform="scale(0.015625)"/>
       <path id="DejaVuSans-65" d="M 3597 1894 
L 3597 1613 
L 953 1613 
Q 991 1019 1311 708 
Q 1631 397 2203 397 
Q 2534 397 2845 478 
Q 3156 559 3463 722 
L 3463 178 
Q 3153 47 2828 -22 
Q 2503 -91 2169 -91 
Q 1331 -91 842 396 
Q 353 884 353 1716 
Q 353 2575 817 3079 
Q 1281 3584 2069 3584 
Q 2775 3584 3186 3129 
Q 3597 2675 3597 1894 
z
M 3022 2063 
Q 3016 2534 2758 2815 
Q 2500 3097 2075 3097 
Q 1594 3097 1305 2825 
Q 1016 2553 972 2059 
L 3022 2063 
z
" transform="scale(0.015625)"/>
      </defs>
      <use xlink:href="#DejaVuSans-44"/>
      <use xlink:href="#DejaVuSans-61" transform="translate(77.001953 0)"/>
      <use xlink:href="#DejaVuSans-74" transform="translate(138.28125 0)"/>
      <use xlink:href="#DejaVuSans-65" transform="translate(177.490234 0)"/>
     </g>
    </g>
   </g>
   <g id="matplotlib.axis_2">
    <g id="ytick_1">
     <g id="line2d_10">
      <defs>
       <path id="m144b2ed91d" d="M 0 0 
L -3.5 0 
" style="stroke: #000000; stroke-width: 0.8"/>
      </defs>
      <g>
       <use xlink:href="#m144b2ed91d" x="47.72" y="365.554931" style="stroke: #000000; stroke-width: 0.8"/>
      </g>
     </g>
     <g id="text_11">
      <!-- 1.0 -->
      <g transform="translate(24.816875 369.354149) scale(0.1 -0.1)">
       <defs>
        <path id="DejaVuSans-2e" d="M 684 794 
L 1344 794 
L 1344 0 
L 684 0 
L 684 794 
z
" transform="scale(0.015625)"/>
       </defs>
       <use xlink:href="#DejaVuSans-31"/>
       <use xlink:href="#DejaVuSans-2e" transform="translate(63.623047 0)"/>
       <use xlink:href="#DejaVuSans-30" transform="translate(95.410156 0)"/>
      </g>
     </g>
    </g>
    <g id="ytick_2">
     <g id="line2d_11">
      <g>
       <use xlink:href="#m144b2ed91d" x="47.72" y="304.971393" style="stroke: #000000; stroke-width: 0.8"/>
      </g>
     </g>
     <g id="text_12">
      <!-- 1.5 -->
      <g transform="translate(24.816875 308.770611) scale(0.1 -0.1)">
       <use xlink:href="#DejaVuSans-31"/>
       <use xlink:href="#DejaVuSans-2e" transform="translate(63.623047 0)"/>
       <use xlink:href="#DejaVuSans-35" transform="translate(95.410156 0)"/>
      </g>
     </g>
    </g>
    <g id="ytick_3">
     <g id="line2d_12">
      <g>
       <use xlink:href="#m144b2ed91d" x="47.72" y="244.387854" style="stroke: #000000; stroke-width: 0.8"/>
      </g>
     </g>
     <g id="text_13">
      <!-- 2.0 -->
      <g transform="translate(24.816875 248.187073) scale(0.1 -0.1)">
       <use xlink:href="#DejaVuSans-32"/>
       <use xlink:href="#DejaVuSans-2e" transform="translate(63.623047 0)"/>
       <use xlink:href="#DejaVuSans-30" transform="translate(95.410156 0)"/>
      </g>
     </g>
    </g>
    <g id="ytick_4">
     <g id="line2d_13">
      <g>
       <use xlink:href="#m144b2ed91d" x="47.72" y="183.804316" style="stroke: #000000; stroke-width: 0.8"/>
      </g>
     </g>
     <g id="text_14">
      <!-- 2.5 -->
      <g transform="translate(24.816875 187.603535) scale(0.1 -0.1)">
       <use xlink:href="#DejaVuSans-32"/>
       <use xlink:href="#DejaVuSans-2e" transform="translate(63.623047 0)"/>
       <use xlink:href="#DejaVuSans-35" transform="translate(95.410156 0)"/>
      </g>
     </g>
    </g>
    <g id="ytick_5">
     <g id="line2d_14">
      <g>
       <use xlink:href="#m144b2ed91d" x="47.72" y="123.220778" style="stroke: #000000; stroke-width: 0.8"/>
      </g>
     </g>
     <g id="text_15">
      <!-- 3.0 -->
      <g transform="translate(24.816875 127.019997) scale(0.1 -0.1)">
       <defs>
        <path id="DejaVuSans-33" d="M 2597 2516 
Q 3050 2419 3304 2112 
Q 3559 1806 3559 1356 
Q 3559 666 3084 287 
Q 2609 -91 1734 -91 
Q 1441 -91 1130 -33 
Q 819 25 488 141 
L 488 750 
Q 750 597 1062 519 
Q 1375 441 1716 441 
Q 2309 441 2620 675 
Q 2931 909 2931 1356 
Q 2931 1769 2642 2001 
Q 2353 2234 1838 2234 
L 1294 2234 
L 1294 2753 
L 1863 2753 
Q 2328 2753 2575 2939 
Q 2822 3125 2822 3475 
Q 2822 3834 2567 4026 
Q 2313 4219 1838 4219 
Q 1578 4219 1281 4162 
Q 984 4106 628 3988 
L 628 4550 
Q 988 4650 1302 4700 
Q 1616 4750 1894 4750 
Q 2613 4750 3031 4423 
Q 3450 4097 3450 3541 
Q 3450 3153 3228 2886 
Q 3006 2619 2597 2516 
z
" transform="scale(0.015625)"/>
       </defs>
       <use xlink:href="#DejaVuSans-33"/>
       <use xlink:href="#DejaVuSans-2e" transform="translate(63.623047 0)"/>
       <use xlink:href="#DejaVuSans-30" transform="translate(95.410156 0)"/>
      </g>
     </g>
    </g>
    <g id="ytick_6">
     <g id="line2d_15">
      <g>
       <use xlink:href="#m144b2ed91d" x="47.72" y="62.63724" style="stroke: #000000; stroke-width: 0.8"/>
      </g>
     </g>
     <g id="text_16">
      <!-- 3.5 -->
      <g transform="translate(24.816875 66.436459) scale(0.1 -0.1)">
       <use xlink:href="#DejaVuSans-33"/>
       <use xlink:href="#DejaVuSans-2e" transform="translate(63.623047 0)"/>
       <use xlink:href="#DejaVuSans-35" transform="translate(95.410156 0)"/>
      </g>
     </g>
    </g>
    <g id="text_17">
     <!-- Portfolio value (USD) -->
     <g transform="translate(18.737188 260.446719) rotate(-90) scale(0.1 -0.1)">
      <defs>
       <path id="DejaVuSans-50" d="M 1259 4147 
L 1259 2394 
L 2053 2394 
Q 2494 2394 2734 2622 
Q 2975 2850 2975 3272 
Q 2975 3691 2734 3919 
Q 2494 4147 2053 4147 
L 1259 4147 
z
M 628 4666 
L 2053 4666 
Q 2838 4666 3239 4311 
Q 3641 3956 3641 3272 
Q 3641 2581 3239 2228 
Q 2838 1875 2053 1875 
L 1259 1875 
L 1259 0 
L 628 0 
L 628 4666 
z
" transform="scale(0.015625)"/>
       <path id="DejaVuSans-6f" d="M 1959 3097 
Q 1497 3097 1228 2736 
Q 959 2375 959 1747 
Q 959 1119 1226 758 
Q 1494 397 1959 397 
Q 2419 397 2687 759 
Q 2956 1122 2956 1747 
Q 2956 2369 2687 2733 
Q 2419 3097 1959 3097 
z
M 1959 3584 
Q 2709 3584 3137 3096 
Q 3566 2609 3566 1747 
Q 3566 888 3137 398 
Q 2709 -91 1959 -91 
Q 1206 -91 779 398 
Q 353 888 353 1747 
Q 353 2609 779 3096 
Q 1206 3584 1959 3584 
z
" transform="scale(0.015625)"/>
       <path id="DejaVuSans-72" d="M 2631 2963 
Q 2534 3019 2420 3045 
Q 2306 3072 2169 3072 
Q 1681 3072 1420 2755 
Q 1159 2438 1159 1844 
L 1159 0 
L 581 0 
L 581 3500 
L 1159 3500 
L 1159 2956 
Q 1341 3275 1631 3429 
Q 1922 3584 2338 3584 
Q 2397 3584 2469 3576 
Q 2541 3569 2628 3553 
L 2631 2963 
z
" transform="scale(0.015625)"/>
       <path id="DejaVuSans-66" d="M 2375 4863 
L 2375 4384 
L 1825 4384 
Q 1516 4384 1395 4259 
Q 1275 4134 1275 3809 
L 1275 3500 
L 2222 3500 
L 2222 3053 
L 1275 3053 
L 1275 0 
L 697 0 
L 697 3053 
L 147 3053 
L 147 3500 
L 697 3500 
L 697 3744 
Q 697 4328 969 4595 
Q 1241 4863 1831 4863 
L 2375 4863 
z
" transform="scale(0.015625)"/>
       <path id="DejaVuSans-6c" d="M 603 4863 
L 1178 4863 
L 1178 0 
L 603 0 
L 603 4863 
z
" transform="scale(0.015625)"/>
       <path id="DejaVuSans-69" d="M 603 3500 
L 1178 3500 
L 1178 0 
L 603 0 
L 603 3500 
z
M 603 4863 
L 1178 4863 
L 1178 4134 
L 603 4134 
L 603 4863 
z
" transform="scale(0.015625)"/>
       <path id="DejaVuSans-20" transform="scale(0.015625)"/>
       <path id="DejaVuSans-76" d="M 191 3500 
L 800 3500 
L 1894 563 
L 2988 3500 
L 3597 3500 
L 2284 0 
L 1503 0 
L 191 3500 
z
" transform="scale(0.015625)"/>
       <path id="DejaVuSans-75" d="M 544 1381 
L 544 3500 
L 1119 3500 
L 1119 1403 
Q 1119 906 1312 657 
Q 1506 409 1894 409 
Q 2359 409 2629 706 
Q 2900 1003 2900 1516 
L 2900 3500 
L 3475 3500 
L 3475 0 
L 2900 0 
L 2900 538 
Q 2691 219 2414 64 
Q 2138 -91 1772 -91 
Q 1169 -91 856 284 
Q 544 659 544 1381 
z
M 1991 3584 
L 1991 3584 
z
" transform="scale(0.015625)"/>
       <path id="DejaVuSans-28" d="M 1984 4856 
Q 1566 4138 1362 3434 
Q 1159 2731 1159 2009 
Q 1159 1288 1364 580 
Q 1569 -128 1984 -844 
L 1484 -844 
Q 1016 -109 783 600 
Q 550 1309 550 2009 
Q 550 2706 781 3412 
Q 1013 4119 1484 4856 
L 1984 4856 
z
" transform="scale(0.015625)"/>
       <path id="DejaVuSans-55" d="M 556 4666 
L 1191 4666 
L 1191 1831 
Q 1191 1081 1462 751 
Q 1734 422 2344 422 
Q 2950 422 3222 751 
Q 3494 1081 3494 1831 
L 3494 4666 
L 4128 4666 
L 4128 1753 
Q 4128 841 3676 375 
Q 3225 -91 2344 -91 
Q 1459 -91 1007 375 
Q 556 841 556 1753 
L 556 4666 
z
" transform="scale(0.015625)"/>
       <path id="DejaVuSans-53" d="M 3425 4513 
L 3425 3897 
Q 3066 4069 2747 4153 
Q 2428 4238 2131 4238 
Q 1616 4238 1336 4038 
Q 1056 3838 1056 3469 
Q 1056 3159 1242 3001 
Q 1428 2844 1947 2747 
L 2328 2669 
Q 3034 2534 3370 2195 
Q 3706 1856 3706 1288 
Q 3706 609 3251 259 
Q 2797 -91 1919 -91 
Q 1588 -91 1214 -16 
Q 841 59 441 206 
L 441 856 
Q 825 641 1194 531 
Q 1563 422 1919 422 
Q 2459 422 2753 634 
Q 3047 847 3047 1241 
Q 3047 1584 2836 1778 
Q 2625 1972 2144 2069 
L 1759 2144 
Q 1053 2284 737 2584 
Q 422 2884 422 3419 
Q 422 4038 858 4394 
Q 1294 4750 2059 4750 
Q 2388 4750 2728 4690 
Q 3069 4631 3425 4513 
z
" transform="scale(0.015625)"/>
       <path id="DejaVuSans-29" d="M 513 4856 
L 1013 4856 
Q 1481 4119 1714 3412 
Q 1947 2706 1947 2009 
Q 1947 1309 1714 600 
Q 1481 -109 1013 -844 
L 513 -844 
Q 928 -128 1133 580 
Q 1338 1288 1338 2009 
Q 1338 2731 1133 3434 
Q 928 4138 513 4856 
z
" transform="scale(0.015625)"/>
      </defs>
      <use xlink:href="#DejaVuSans-50"/>
      <use xlink:href="#DejaVuSans-6f" transform="translate(56.677734 0)"/>
      <use xlink:href="#DejaVuSans-72" transform="translate(117.859375 0)"/>
      <use xlink:href="#DejaVuSans-74" transform="translate(158.972656 0)"/>
      <use xlink:href="#DejaVuSans-66" transform="translate(198.181641 0)"/>
      <use xlink:href="#DejaVuSans-6f" transform="translate(233.386719 0)"/>
      <use xlink:href="#DejaVuSans-6c" transform="translate(294.568359 0)"/>
      <use xlink:href="#DejaVuSans-69" transform="translate(322.351562 0)"/>
      <use xlink:href="#DejaVuSans-6f" transform="translate(350.134766 0)"/>
      <use xlink:href="#DejaVuSans-20" transform="translate(411.316406 0)"/>
      <use xlink:href="#DejaVuSans-76" transform="translate(443.103516 0)"/>
      <use xlink:href="#DejaVuSans-61" transform="translate(502.283203 0)"/>
      <use xlink:href="#DejaVuSans-6c" transform="translate(563.5625 0)"/>
      <use xlink:href="#DejaVuSans-75" transform="translate(591.345703 0)"/>
      <use xlink:href="#DejaVuSans-65" transform="translate(654.724609 0)"/>
      <use xlink:href="#DejaVuSans-20" transform="translate(716.248047 0)"/>
      <use xlink:href="#DejaVuSans-28" transform="translate(748.035156 0)"/>
      <use xlink:href="#DejaVuSans-55" transform="translate(787.048828 0)"/>
      <use xlink:href="#DejaVuSans-53" transform="translate(860.242188 0)"/>
      <use xlink:href="#DejaVuSans-44" transform="translate(923.71875 0)"/>
      <use xlink:href="#DejaVuSans-29" transform="translate(1000.720703 0)"/>
     </g>
    </g>
   </g>
   <g id="line2d_16">
    <path d="M 81.06 365.554931 
L 81.06 365.344197 
L 82.886849 365.402309 
L 84.713699 365.377757 
L 90.194247 365.264292 
L 91.107671 364.360649 
L 93.847945 364.447486 
L 94.76137 365.143431 
L 97.501644 365.147731 
L 100.241918 364.915866 
L 101.155342 365.10215 
L 102.982192 364.577471 
L 103.895616 364.47592 
L 106.63589 364.40984 
L 107.549315 363.801509 
L 108.46274 363.866706 
L 109.376164 363.555868 
L 110.289589 362.958746 
L 113.943288 362.959655 
L 114.856712 362.018448 
L 116.683562 362.011231 
L 119.423836 361.475375 
L 121.250685 361.469493 
L 122.16411 360.59588 
L 123.077534 360.053477 
L 125.817808 359.964424 
L 126.731233 360.343132 
L 127.644658 360.064223 
L 129.471507 359.787932 
L 133.125205 359.615335 
L 134.03863 359.562012 
L 134.952055 359.623061 
L 135.865479 359.148229 
L 138.605753 358.571981 
L 139.519178 358.583512 
L 141.346027 357.80238 
L 142.259452 356.581298 
L 144.999726 355.611739 
L 145.913151 355.590211 
L 146.826575 355.693596 
L 147.74 355.311628 
L 152.307123 355.384822 
L 153.220548 355.679935 
L 154.133973 354.256619 
L 157.787671 354.255655 
L 158.701096 353.936367 
L 159.614521 353.98571 
L 160.527945 354.171562 
L 161.44137 353.93493 
L 165.095068 353.880814 
L 166.008493 353.35201 
L 166.921918 352.237317 
L 167.835342 351.981526 
L 170.575616 352.244825 
L 172.402466 351.252464 
L 173.31589 351.252656 
L 174.229315 350.61927 
L 176.969589 350.621187 
L 178.796438 350.969041 
L 179.709863 350.59146 
L 180.623288 350.721752 
L 183.363562 350.822747 
L 185.190411 349.586987 
L 186.103836 349.694679 
L 187.01726 349.308218 
L 189.757534 349.144375 
L 190.670959 347.464469 
L 191.584384 347.464588 
L 192.497808 346.347616 
L 193.411233 344.023275 
L 197.064932 342.921541 
L 198.891781 342.954131 
L 199.805205 341.990975 
L 202.545479 342.063974 
L 204.372329 341.538409 
L 205.285753 339.467758 
L 206.199178 339.78782 
L 208.939452 339.491557 
L 210.766301 339.72263 
L 212.593151 339.724082 
L 215.333425 339.305839 
L 216.246849 339.045783 
L 217.160274 339.172774 
L 218.073699 339.175186 
L 218.987123 338.226485 
L 221.727397 337.790372 
L 223.554247 335.970886 
L 224.467671 336.018956 
L 225.381096 335.818355 
L 229.948219 335.738204 
L 230.861644 334.478546 
L 231.775068 334.487515 
L 234.515342 334.710749 
L 235.428767 334.434729 
L 236.342192 333.71417 
L 238.169041 333.667821 
L 240.909315 333.668847 
L 241.82274 333.256731 
L 243.649589 333.607799 
L 244.563014 333.524532 
L 247.303288 333.405647 
L 248.216712 333.624992 
L 249.130137 333.216007 
L 250.043562 332.238503 
L 250.956986 332.0919 
L 253.69726 331.464497 
L 255.52411 331.642166 
L 256.437534 331.39857 
L 257.350959 328.055235 
L 260.091233 327.985585 
L 261.004658 328.157675 
L 261.918082 328.074794 
L 262.831507 325.360526 
L 263.744932 325.36053 
L 267.39863 325.612947 
L 268.312055 324.451821 
L 269.225479 322.475104 
L 270.138904 322.33274 
L 272.879178 322.331719 
L 273.792603 322.549354 
L 274.706027 321.299634 
L 275.619452 318.072375 
L 276.532877 318.40585 
L 279.273151 315.548719 
L 280.186575 315.467264 
L 281.1 316.089874 
L 282.013425 316.111698 
L 282.926849 314.124677 
L 285.667123 314.131654 
L 286.580548 313.8384 
L 287.493973 312.99898 
L 288.407397 312.757363 
L 289.320822 312.75599 
L 292.061096 311.190045 
L 292.974521 310.037459 
L 293.887945 308.394343 
L 294.80137 307.976595 
L 295.714795 307.977035 
L 298.455068 305.859902 
L 299.368493 305.862764 
L 300.281918 305.150597 
L 301.195342 305.151021 
L 302.108767 304.686552 
L 304.849041 304.686324 
L 305.762466 304.50249 
L 306.67589 302.786934 
L 307.589315 300.196349 
L 308.50274 299.591456 
L 311.243014 298.993321 
L 312.156438 299.474247 
L 313.069863 298.233175 
L 313.983288 298.091284 
L 314.896712 296.683001 
L 317.636986 295.751759 
L 318.550411 294.809348 
L 319.463836 294.971097 
L 320.37726 295.009242 
L 321.290685 294.237167 
L 324.030959 294.11828 
L 324.944384 293.451669 
L 325.857808 292.232985 
L 326.771233 292.23318 
L 327.684658 290.241151 
L 330.424932 287.086703 
L 331.338356 287.087645 
L 333.165205 287.62014 
L 336.818904 287.613405 
L 337.732329 286.708417 
L 338.645753 287.153787 
L 339.559178 287.157267 
L 340.472603 286.464487 
L 344.126301 286.768829 
L 345.039726 286.003707 
L 345.953151 286.400096 
L 346.866575 285.379969 
L 349.606849 284.707122 
L 350.520274 285.325616 
L 351.433699 284.341217 
L 352.347123 284.83823 
L 353.260548 283.528566 
L 356.000822 283.932303 
L 356.914247 283.681812 
L 357.827671 283.676929 
L 358.741096 283.381407 
L 359.654521 281.744088 
L 362.394795 281.744784 
L 363.308219 281.362951 
L 364.221644 279.788316 
L 365.135068 279.788738 
L 366.048493 276.336982 
L 372.442466 276.338947 
L 375.18274 273.885751 
L 377.009589 271.665525 
L 377.923014 271.76245 
L 378.836438 270.263067 
L 381.576712 270.269732 
L 382.490137 270.900395 
L 384.316986 267.127817 
L 385.230411 267.029335 
L 387.970685 265.160158 
L 388.88411 265.162107 
L 389.797534 265.39222 
L 390.710959 265.012445 
L 391.624384 264.101858 
L 394.364658 263.875156 
L 395.278082 262.574705 
L 396.191507 262.319284 
L 398.018356 262.349658 
L 400.75863 262.576292 
L 401.672055 262.390782 
L 402.585479 261.640182 
L 403.498904 261.640588 
L 404.412329 261.060715 
L 407.152603 259.48014 
L 408.066027 259.564717 
L 409.892877 259.346329 
L 410.806301 259.792915 
L 413.546575 259.622194 
L 414.46 258.353557 
L 416.286849 258.964843 
L 417.200274 258.947502 
L 419.940548 258.479992 
L 420.853973 257.749225 
L 422.680822 258.146814 
L 423.594247 258.906147 
L 426.334521 258.696478 
L 427.247945 257.645263 
L 428.16137 257.656641 
L 429.074795 255.029816 
L 429.988219 253.689647 
L 432.728493 253.647816 
L 433.641918 251.941387 
L 435.468767 252.472445 
L 436.382192 252.500604 
L 439.122466 251.597689 
L 440.03589 250.337637 
L 440.949315 250.475822 
L 441.86274 247.894173 
L 442.776164 246.232087 
L 445.516438 246.647561 
L 446.429863 246.516846 
L 447.343288 245.214876 
L 448.256712 242.801621 
L 449.170137 240.740695 
L 452.823836 240.786057 
L 453.73726 239.69974 
L 454.650685 240.002525 
L 455.56411 238.184199 
L 458.304384 236.812358 
L 459.217808 236.572237 
L 460.131233 236.573359 
L 461.044658 235.398637 
L 461.958082 232.97817 
L 464.698356 232.977488 
L 465.611781 233.364833 
L 466.525205 232.602263 
L 467.43863 232.903511 
L 471.092329 232.828124 
L 472.005753 231.401363 
L 472.919178 229.424154 
L 473.832603 226.658178 
L 474.746027 225.101018 
L 477.486301 224.359793 
L 478.399726 224.774887 
L 479.313151 224.025102 
L 480.226575 222.945139 
L 481.14 222.357094 
L 483.880274 220.738347 
L 484.793699 218.619006 
L 485.707123 218.069764 
L 486.620548 217.67894 
L 491.187671 217.658576 
L 492.101096 216.221167 
L 493.014521 216.221348 
L 496.668219 213.208022 
L 497.581644 213.770527 
L 499.408493 213.149377 
L 500.321918 209.23588 
L 503.975616 209.170072 
L 504.889041 205.473041 
L 505.802466 197.065191 
L 506.71589 189.708056 
L 509.456164 189.080442 
L 510.369589 188.117466 
L 511.283014 188.036598 
L 512.196438 185.401787 
L 515.850137 185.401787 
L 516.763562 183.246664 
L 517.676986 183.247284 
L 518.590411 182.871521 
L 519.503836 181.057044 
L 522.24411 181.530882 
L 523.157534 177.967241 
L 525.897808 177.955329 
L 528.638082 175.143209 
L 529.551507 173.039813 
L 530.464932 171.715614 
L 532.291781 171.746225 
L 535.032055 171.380976 
L 535.945479 171.381236 
L 536.858904 166.791418 
L 537.772329 166.247529 
L 538.685753 164.016075 
L 541.426027 164.116998 
L 542.339452 162.8441 
L 544.166301 161.415934 
L 545.079726 161.868828 
L 547.82 159.163402 
L 548.733425 158.649827 
L 549.646849 159.433501 
L 550.560274 160.688587 
L 551.473699 156.363598 
L 554.213973 156.390267 
L 555.127397 153.641682 
L 556.040822 153.64194 
L 556.954247 151.775481 
L 557.867671 150.887627 
L 560.607945 150.955831 
L 561.52137 150.126066 
L 562.434795 149.695073 
L 563.348219 148.237747 
L 564.261644 145.719058 
L 567.001918 146.550305 
L 567.915342 145.975925 
L 568.828767 145.979087 
L 569.742192 144.97837 
L 570.655616 144.425761 
L 573.39589 145.037782 
L 574.309315 143.123988 
L 575.22274 141.942115 
L 577.049589 139.842264 
L 579.789863 139.845051 
L 580.703288 137.466492 
L 581.616712 137.207161 
L 582.530137 137.159393 
L 583.443562 136.964041 
L 586.183836 136.583379 
L 587.09726 136.696587 
L 588.010685 135.711673 
L 588.92411 135.0997 
L 589.837534 131.981082 
L 592.577808 131.97939 
L 593.491233 132.702348 
L 594.404658 132.702554 
L 595.318082 130.889754 
L 596.231507 131.044344 
L 598.971781 130.841411 
L 599.885205 128.374901 
L 600.79863 126.8315 
L 601.712055 124.262571 
L 602.625479 124.611083 
L 606.279178 124.615825 
L 607.192603 125.095959 
L 608.106027 125.096433 
L 609.019452 125.985063 
L 611.759726 117.591251 
L 613.586575 117.651758 
L 614.5 116.741487 
L 615.413425 115.994585 
L 618.153699 116.441303 
L 619.067123 116.746581 
L 620.893973 114.399138 
L 621.807397 114.399778 
L 624.547671 113.852423 
L 625.461096 114.311445 
L 626.374521 113.845307 
L 627.287945 112.796323 
L 628.20137 113.553986 
L 630.941644 110.115115 
L 632.768493 108.648797 
L 633.681918 107.745733 
L 634.595342 107.490147 
L 637.335616 107.082586 
L 638.249041 106.503802 
L 639.162466 106.506671 
L 640.07589 104.986175 
L 640.989315 105.27298 
L 643.729589 105.083196 
L 644.643014 102.496331 
L 645.556438 102.494487 
L 646.469863 102.369894 
L 647.383288 100.166329 
L 650.123562 100.545582 
L 651.036986 99.236716 
L 651.950411 96.555411 
L 652.863836 96.298374 
L 656.517534 96.308521 
L 657.430959 95.207141 
L 658.344384 94.973822 
L 659.257808 95.713755 
L 660.171233 95.865227 
L 662.911507 94.529873 
L 663.824932 92.408926 
L 665.651781 88.947703 
L 666.565205 89.087484 
L 669.305479 89.289666 
L 670.218904 88.855102 
L 671.132329 89.658071 
L 672.045753 90.046693 
L 672.959178 90.047475 
L 675.699452 88.451762 
L 676.612877 89.434665 
L 678.439726 85.683488 
L 679.353151 83.452154 
L 682.093425 82.771581 
L 683.006849 81.870829 
L 684.833699 81.789365 
L 685.747123 80.439999 
L 688.487397 80.320853 
L 690.314247 77.591215 
L 691.227671 77.591445 
L 692.141096 78.622752 
L 694.88137 79.523665 
L 695.794795 80.084619 
L 697.621644 76.982446 
L 698.535068 74.25901 
L 701.275342 73.641678 
L 702.188767 71.582722 
L 703.102192 70.853 
L 704.015616 70.790119 
L 704.929041 69.88597 
L 709.496164 69.519764 
L 711.323014 69.619962 
L 714.063288 67.808353 
L 714.976712 67.600813 
L 715.890137 66.655663 
L 716.803562 63.119457 
L 717.716986 62.980779 
L 720.45726 61.976386 
L 721.370685 61.048353 
L 723.197534 57.077302 
L 724.110959 56.992063 
L 726.851233 55.085572 
L 727.764658 55.36709 
L 728.678082 54.684752 
L 729.591507 52.502197 
L 730.504932 51.405399 
L 733.245205 51.684955 
L 734.15863 49.285931 
L 735.072055 48.62818 
L 735.985479 49.683506 
L 736.898904 48.94312 
L 739.639178 49.244017 
L 740.552603 46.065821 
L 741.466027 43.821147 
L 746.033151 43.897338 
L 746.946575 43.387273 
L 747.86 43.623315 
L 747.86 43.623315 
" clip-path="url(#p4cbf1b64ab)" style="fill: none; stroke: #1f77b4; stroke-width: 1.5; stroke-linecap: square"/>
   </g>
   <g id="line2d_17">
    <path d="M 81.06 365.554931 
L 81.06 365.406075 
L 81.973425 365.505016 
L 82.886849 366.291178 
L 83.800274 366.375193 
L 84.713699 366.633816 
L 87.453973 366.537128 
L 88.367397 366.33034 
L 89.280822 366.671892 
L 90.194247 366.76519 
L 91.107671 366.497921 
L 93.847945 366.645186 
L 94.76137 366.905638 
L 95.674795 367.576241 
L 96.588219 367.632494 
L 100.241918 367.503319 
L 101.155342 367.800246 
L 102.068767 367.571556 
L 102.982192 367.481008 
L 103.895616 367.532406 
L 106.63589 367.536328 
L 107.549315 367.252263 
L 109.376164 367.472426 
L 110.289589 367.044196 
L 113.943288 368.39396 
L 114.856712 368.032536 
L 115.770137 368.11165 
L 116.683562 368.325464 
L 120.33726 368.460018 
L 121.250685 369.249478 
L 122.16411 369.117485 
L 123.077534 368.701576 
L 125.817808 368.588231 
L 126.731233 368.874453 
L 127.644658 368.696077 
L 129.471507 368.618646 
L 134.03863 368.711923 
L 134.952055 368.99363 
L 135.865479 369.096376 
L 138.605753 368.84899 
L 139.519178 368.943678 
L 140.432603 368.925545 
L 141.346027 368.523461 
L 142.259452 367.888545 
L 145.913151 367.875446 
L 146.826575 368.025318 
L 147.74 367.955176 
L 148.653425 368.487606 
L 152.307123 368.750252 
L 153.220548 369.141072 
L 154.133973 368.587202 
L 155.047397 369.314295 
L 157.787671 369.716935 
L 158.701096 369.556835 
L 160.527945 369.820776 
L 161.44137 369.735279 
L 164.181644 369.652924 
L 165.095068 370.084227 
L 166.008493 369.983106 
L 166.921918 369.546663 
L 167.835342 369.522689 
L 170.575616 369.723205 
L 172.402466 369.432819 
L 173.31589 370.442823 
L 174.229315 370.297704 
L 178.796438 371.181771 
L 179.709863 370.890792 
L 180.623288 371.025125 
L 183.363562 371.068968 
L 184.276986 370.963319 
L 185.190411 370.633905 
L 186.103836 370.767117 
L 187.01726 370.537812 
L 189.757534 370.836165 
L 190.670959 370.48813 
L 191.584384 371.265317 
L 193.411233 370.12122 
L 197.064932 369.885808 
L 197.978356 370.178629 
L 198.891781 370.296996 
L 199.805205 370.019784 
L 203.458904 370.109345 
L 204.372329 369.999845 
L 205.285753 369.166106 
L 206.199178 369.470764 
L 208.939452 369.464007 
L 209.852877 369.700248 
L 210.766301 369.767057 
L 211.679726 370.127796 
L 212.593151 370.293833 
L 215.333425 370.061967 
L 216.246849 369.849691 
L 217.160274 369.951633 
L 218.073699 370.269775 
L 218.987123 369.834958 
L 221.727397 369.685597 
L 222.640822 369.227527 
L 223.554247 369.205658 
L 224.467671 369.310369 
L 225.381096 369.158189 
L 228.12137 369.904291 
L 229.948219 369.923294 
L 230.861644 369.519844 
L 231.775068 369.797503 
L 234.515342 369.990635 
L 236.342192 369.689808 
L 237.255616 369.611576 
L 238.169041 369.972851 
L 240.909315 370.225129 
L 241.82274 369.987372 
L 242.736164 370.081989 
L 243.649589 370.297463 
L 247.303288 370.168767 
L 248.216712 370.380345 
L 249.130137 370.239543 
L 250.043562 369.910008 
L 250.956986 369.78756 
L 253.69726 369.544143 
L 256.437534 369.602406 
L 257.350959 369.030187 
L 261.918082 369.102078 
L 262.831507 368.579013 
L 263.744932 368.987541 
L 266.485205 369.089833 
L 267.39863 369.390024 
L 268.312055 369.490465 
L 270.138904 369.452067 
L 273.792603 369.63599 
L 274.706027 369.424109 
L 275.619452 368.924077 
L 276.532877 369.127588 
L 279.273151 368.033054 
L 280.186575 367.794247 
L 281.1 367.872098 
L 282.013425 368.231876 
L 282.926849 368.353252 
L 286.580548 368.270423 
L 287.493973 367.83938 
L 288.407397 367.946871 
L 289.320822 368.369634 
L 292.061096 367.755558 
L 292.974521 367.125004 
L 293.887945 366.650975 
L 294.80137 366.458884 
L 295.714795 366.779949 
L 298.455068 365.790253 
L 299.368493 365.889715 
L 300.281918 365.546403 
L 302.108767 365.872158 
L 305.762466 366.258644 
L 306.67589 366.327207 
L 307.589315 365.842869 
L 308.50274 365.600453 
L 311.243014 365.822723 
L 312.156438 366.219425 
L 313.069863 366.166263 
L 313.983288 366.268297 
L 314.896712 365.759506 
L 317.636986 365.585743 
L 318.550411 365.339155 
L 319.463836 365.550651 
L 320.37726 365.638321 
L 321.290685 365.336697 
L 324.030959 365.478611 
L 324.944384 365.267766 
L 325.857808 364.569351 
L 326.771233 365.424631 
L 327.684658 365.010664 
L 330.424932 364.69907 
L 333.165205 365.784418 
L 334.07863 366.246834 
L 338.645753 367.089413 
L 339.559178 367.4961 
L 340.472603 367.375159 
L 344.126301 367.700797 
L 345.039726 367.788009 
L 345.953151 368.099535 
L 346.866575 368.122657 
L 349.606849 367.878455 
L 350.520274 368.32099 
L 351.433699 368.167721 
L 352.347123 368.585254 
L 353.260548 368.37868 
L 357.827671 368.926734 
L 359.654521 368.797322 
L 363.308219 368.72353 
L 364.221644 368.215541 
L 365.135068 369.587116 
L 366.048493 368.73386 
L 368.788767 369.268228 
L 369.702192 369.602265 
L 371.529041 370.4956 
L 372.442466 370.92237 
L 375.18274 370.751872 
L 376.096164 370.372722 
L 377.009589 370.118279 
L 377.923014 370.412621 
L 378.836438 370.538795 
L 381.576712 370.495878 
L 382.490137 370.956446 
L 383.403562 370.633694 
L 384.316986 370.072008 
L 385.230411 369.987378 
L 387.970685 369.910779 
L 388.88411 370.163419 
L 389.797534 370.149878 
L 390.710959 370.299618 
L 391.624384 369.921629 
L 395.278082 370.398602 
L 396.191507 370.61637 
L 397.104932 370.655693 
L 398.018356 371.047365 
L 402.585479 371.386991 
L 403.498904 372.470761 
L 404.412329 372.718918 
L 407.152603 372.27087 
L 408.066027 372.524939 
L 414.46 372.552624 
L 417.200274 373.107833 
L 419.940548 372.972184 
L 420.853973 372.545518 
L 423.594247 373.214562 
L 426.334521 373.532727 
L 427.247945 373.214153 
L 428.16137 373.183395 
L 429.074795 372.846345 
L 429.988219 372.885133 
L 432.728493 373.210778 
L 433.641918 372.207254 
L 435.468767 372.392334 
L 440.03589 371.84587 
L 440.949315 371.96806 
L 441.86274 371.843355 
L 442.776164 372.033139 
L 445.516438 372.989045 
L 446.429863 372.170804 
L 447.343288 371.626693 
L 448.256712 371.408051 
L 449.170137 371.410266 
L 452.823836 371.842426 
L 453.73726 371.655738 
L 454.650685 371.877497 
L 455.56411 371.064154 
L 459.217808 370.598139 
L 461.044658 370.912628 
L 461.958082 370.161502 
L 464.698356 370.327067 
L 465.611781 370.585783 
L 466.525205 370.292131 
L 467.43863 370.492526 
L 468.352055 371.240079 
L 471.092329 371.358727 
L 472.005753 371.024411 
L 473.832603 369.749009 
L 474.746027 369.53896 
L 477.486301 369.39347 
L 478.399726 369.651486 
L 479.313151 369.554201 
L 480.226575 369.278864 
L 481.14 369.53221 
L 483.880274 369.514501 
L 484.793699 369.158766 
L 486.620548 369.043848 
L 487.533973 369.457228 
L 491.187671 369.861622 
L 492.101096 369.65409 
L 493.014521 369.924664 
L 493.927945 369.785064 
L 496.668219 369.782947 
L 497.581644 370.042779 
L 498.495068 369.832724 
L 499.408493 369.219325 
L 500.321918 368.26114 
L 503.062192 369.211141 
L 503.975616 370.125435 
L 504.889041 369.645045 
L 505.802466 369.431545 
L 506.71589 367.338236 
L 510.369589 366.629014 
L 511.283014 366.612461 
L 512.196438 365.989177 
L 515.850137 365.989177 
L 516.763562 365.257953 
L 517.676986 366.27396 
L 518.590411 366.417305 
L 519.503836 366.120847 
L 522.24411 366.369448 
L 523.157534 365.655366 
L 524.984384 366.032479 
L 525.897808 366.641515 
L 529.551507 366.06241 
L 530.464932 365.638305 
L 531.378356 366.077133 
L 532.291781 366.878096 
L 535.032055 366.761526 
L 535.945479 367.63682 
L 536.858904 366.938131 
L 537.772329 367.090298 
L 538.685753 366.786595 
L 541.426027 366.768323 
L 544.166301 366.08086 
L 545.079726 366.232065 
L 547.82 365.348661 
L 548.733425 365.311251 
L 550.560274 366.420285 
L 551.473699 365.623722 
L 554.213973 365.645447 
L 555.127397 364.959782 
L 556.040822 365.440682 
L 556.954247 365.06731 
L 557.867671 364.979223 
L 560.607945 365.262198 
L 561.52137 365.163168 
L 562.434795 365.256518 
L 563.348219 365.019382 
L 564.261644 364.415679 
L 567.915342 364.8275 
L 568.828767 365.435662 
L 569.742192 365.401759 
L 570.655616 365.233155 
L 573.39589 365.591515 
L 575.22274 364.670629 
L 577.049589 364.089845 
L 579.789863 364.11587 
L 580.703288 363.566942 
L 581.616712 363.469401 
L 582.530137 363.511003 
L 583.443562 363.718319 
L 586.183836 363.833922 
L 587.09726 364.292041 
L 588.010685 364.344801 
L 589.837534 363.970166 
L 592.577808 364.251847 
L 594.404658 364.898353 
L 595.318082 364.71705 
L 596.231507 364.917502 
L 598.971781 364.868331 
L 600.79863 364.049914 
L 601.712055 363.72218 
L 602.625479 363.995896 
L 605.365753 364.290152 
L 606.279178 365.021331 
L 607.192603 365.200304 
L 608.106027 365.983315 
L 609.019452 366.397472 
L 611.759726 365.341912 
L 612.673151 365.252169 
L 613.586575 365.341199 
L 615.413425 364.796226 
L 618.153699 364.992068 
L 619.067123 365.195018 
L 620.893973 364.490227 
L 621.807397 364.95818 
L 624.547671 364.775301 
L 626.374521 365.203116 
L 627.287945 365.194425 
L 628.20137 365.511784 
L 630.941644 364.768208 
L 631.855068 365.066674 
L 634.595342 364.452778 
L 637.335616 364.345256 
L 638.249041 364.185123 
L 639.162466 364.809635 
L 640.07589 364.607978 
L 640.989315 364.753393 
L 643.729589 364.435909 
L 644.643014 363.92036 
L 645.556438 364.187994 
L 646.469863 364.085371 
L 647.383288 363.706792 
L 650.123562 363.87444 
L 651.036986 363.559658 
L 651.950411 363.003901 
L 652.863836 363.360996 
L 653.77726 363.861174 
L 656.517534 364.138206 
L 657.430959 363.888702 
L 658.344384 363.857639 
L 659.257808 364.334042 
L 660.171233 364.956915 
L 662.911507 364.625997 
L 663.824932 364.349891 
L 665.651781 364.059756 
L 666.565205 364.195221 
L 669.305479 364.380901 
L 670.218904 364.229007 
L 671.132329 364.710392 
L 672.045753 364.899399 
L 672.959178 365.325251 
L 675.699452 365.201048 
L 676.612877 365.35149 
L 677.526301 365.369168 
L 678.439726 365.005023 
L 679.353151 364.788101 
L 683.006849 364.808276 
L 683.920274 365.171491 
L 685.747123 365.204187 
L 688.487397 365.192075 
L 690.314247 364.736512 
L 692.141096 365.474086 
L 694.88137 365.724478 
L 696.708219 366.187296 
L 697.621644 366.121605 
L 698.535068 365.685966 
L 701.275342 365.672893 
L 703.102192 365.42622 
L 707.669315 365.205289 
L 708.58274 365.482744 
L 709.496164 365.49771 
L 710.409589 366.023667 
L 711.323014 366.161805 
L 714.976712 366.148015 
L 715.890137 365.901932 
L 716.803562 365.408604 
L 721.370685 365.264798 
L 722.28411 365.077497 
L 723.197534 364.645123 
L 724.110959 364.789074 
L 726.851233 364.608301 
L 728.678082 364.873044 
L 729.591507 364.320215 
L 730.504932 364.175307 
L 733.245205 364.307159 
L 735.072055 364.081362 
L 735.985479 364.329191 
L 736.898904 364.277246 
L 739.639178 364.61008 
L 741.466027 363.573781 
L 746.946575 363.668304 
L 747.86 363.833732 
L 747.86 363.833732 
" clip-path="url(#p4cbf1b64ab)" style="fill: none; stroke: #ff7f0e; stroke-width: 1.5; stroke-linecap: square"/>
   </g>
   <g id="line2d_18">
    <path d="M 81.06 365.554931 
L 747.86 365.554931 
L 747.86 365.554931 
" clip-path="url(#p4cbf1b64ab)" style="fill: none; stroke-dasharray: 5.55,2.4; stroke-dashoffset: 0; stroke: #2ca02c; stroke-width: 1.5"/>
   </g>
   <g id="patch_3">
    <path d="M 47.72 390.04 
L 47.72 26.88 
" style="fill: none; stroke: #000000; stroke-width: 0.8; stroke-linejoin: miter; stroke-linecap: square"/>
   </g>
   <g id="patch_4">
    <path d="M 781.2 390.04 
L 781.2 26.88 
" style="fill: none; stroke: #000000; stroke-width: 0.8; stroke-linejoin: miter; stroke-linecap: square"/>
   </g>
   <g id="patch_5">
    <path d="M 47.72 390.04 
L 781.2 390.04 
" style="fill: none; stroke: #000000; stroke-width: 0.8; stroke-linejoin: miter; stroke-linecap: square"/>
   </g>
   <g id="patch_6">
    <path d="M 47.72 26.88 
L 781.2 26.88 
" style="fill: none; stroke: #000000; stroke-width: 0.8; stroke-linejoin: miter; stroke-linecap: square"/>
   </g>
   <g id="text_18">
    <!-- Backtest portfolio values -->
    <g transform="translate(339.955 20.88) scale(0.12 -0.12)">
     <defs>
      <path id="DejaVuSans-42" d="M 1259 2228 
L 1259 519 
L 2272 519 
Q 2781 519 3026 730 
Q 3272 941 3272 1375 
Q 3272 1813 3026 2020 
Q 2781 2228 2272 2228 
L 1259 2228 
z
M 1259 4147 
L 1259 2741 
L 2194 2741 
Q 2656 2741 2882 2914 
Q 3109 3088 3109 3444 
Q 3109 3797 2882 3972 
Q 2656 4147 2194 4147 
L 1259 4147 
z
M 628 4666 
L 2241 4666 
Q 2963 4666 3353 4366 
Q 3744 4066 3744 3513 
Q 3744 3084 3544 2831 
Q 3344 2578 2956 2516 
Q 3422 2416 3680 2098 
Q 3938 1781 3938 1306 
Q 3938 681 3513 340 
Q 3088 0 2303 0 
L 628 0 
L 628 4666 
z
" transform="scale(0.015625)"/>
      <path id="DejaVuSans-63" d="M 3122 3366 
L 3122 2828 
Q 2878 2963 2633 3030 
Q 2388 3097 2138 3097 
Q 1578 3097 1268 2742 
Q 959 2388 959 1747 
Q 959 1106 1268 751 
Q 1578 397 2138 397 
Q 2388 397 2633 464 
Q 2878 531 3122 666 
L 3122 134 
Q 2881 22 2623 -34 
Q 2366 -91 2075 -91 
Q 1284 -91 818 406 
Q 353 903 353 1747 
Q 353 2603 823 3093 
Q 1294 3584 2113 3584 
Q 2378 3584 2631 3529 
Q 2884 3475 3122 3366 
z
" transform="scale(0.015625)"/>
      <path id="DejaVuSans-6b" d="M 581 4863 
L 1159 4863 
L 1159 1991 
L 2875 3500 
L 3609 3500 
L 1753 1863 
L 3688 0 
L 2938 0 
L 1159 1709 
L 1159 0 
L 581 0 
L 581 4863 
z
" transform="scale(0.015625)"/>
      <path id="DejaVuSans-73" d="M 2834 3397 
L 2834 2853 
Q 2591 2978 2328 3040 
Q 2066 3103 1784 3103 
Q 1356 3103 1142 2972 
Q 928 2841 928 2578 
Q 928 2378 1081 2264 
Q 1234 2150 1697 2047 
L 1894 2003 
Q 2506 1872 2764 1633 
Q 3022 1394 3022 966 
Q 3022 478 2636 193 
Q 2250 -91 1575 -91 
Q 1294 -91 989 -36 
Q 684 19 347 128 
L 347 722 
Q 666 556 975 473 
Q 1284 391 1588 391 
Q 1994 391 2212 530 
Q 2431 669 2431 922 
Q 2431 1156 2273 1281 
Q 2116 1406 1581 1522 
L 1381 1569 
Q 847 1681 609 1914 
Q 372 2147 372 2553 
Q 372 3047 722 3315 
Q 1072 3584 1716 3584 
Q 2034 3584 2315 3537 
Q 2597 3491 2834 3397 
z
" transform="scale(0.015625)"/>
      <path id="DejaVuSans-70" d="M 1159 525 
L 1159 -1331 
L 581 -1331 
L 581 3500 
L 1159 3500 
L 1159 2969 
Q 1341 3281 1617 3432 
Q 1894 3584 2278 3584 
Q 2916 3584 3314 3078 
Q 3713 2572 3713 1747 
Q 3713 922 3314 415 
Q 2916 -91 2278 -91 
Q 1894 -91 1617 61 
Q 1341 213 1159 525 
z
M 3116 1747 
Q 3116 2381 2855 2742 
Q 2594 3103 2138 3103 
Q 1681 3103 1420 2742 
Q 1159 2381 1159 1747 
Q 1159 1113 1420 752 
Q 1681 391 2138 391 
Q 2594 391 2855 752 
Q 3116 1113 3116 1747 
z
" transform="scale(0.015625)"/>
     </defs>
     <use xlink:href="#DejaVuSans-42"/>
     <use xlink:href="#DejaVuSans-61" transform="translate(68.603516 0)"/>
     <use xlink:href="#DejaVuSans-63" transform="translate(129.882812 0)"/>
     <use xlink:href="#DejaVuSans-6b" transform="translate(184.863281 0)"/>
     <use xlink:href="#DejaVuSans-74" transform="translate(242.773438 0)"/>
     <use xlink:href="#DejaVuSans-65" transform="translate(281.982422 0)"/>
     <use xlink:href="#DejaVuSans-73" transform="translate(343.505859 0)"/>
     <use xlink:href="#DejaVuSans-74" transform="translate(395.605469 0)"/>
     <use xlink:href="#DejaVuSans-20" transform="translate(434.814453 0)"/>
     <use xlink:href="#DejaVuSans-70" transform="translate(466.601562 0)"/>
     <use xlink:href="#DejaVuSans-6f" transform="translate(530.078125 0)"/>
     <use xlink:href="#DejaVuSans-72" transform="translate(591.259766 0)"/>
     <use xlink:href="#DejaVuSans-74" transform="translate(632.373047 0)"/>
     <use xlink:href="#DejaVuSans-66" transform="translate(671.582031 0)"/>
     <use xlink:href="#DejaVuSans-6f" transform="translate(706.787109 0)"/>
     <use xlink:href="#DejaVuSans-6c" transform="translate(767.96875 0)"/>
     <use xlink:href="#DejaVuSans-69" transform="translate(795.751953 0)"/>
     <use xlink:href="#DejaVuSans-6f" transform="translate(823.535156 0)"/>
     <use xlink:href="#DejaVuSans-20" transform="translate(884.716797 0)"/>
     <use xlink:href="#DejaVuSans-76" transform="translate(916.503906 0)"/>
     <use xlink:href="#DejaVuSans-61" transform="translate(975.683594 0)"/>
     <use xlink:href="#DejaVuSans-6c" transform="translate(1036.962891 0)"/>
     <use xlink:href="#DejaVuSans-75" transform="translate(1064.746094 0)"/>
     <use xlink:href="#DejaVuSans-65" transform="translate(1128.125 0)"/>
     <use xlink:href="#DejaVuSans-73" transform="translate(1189.648438 0)"/>
    </g>
   </g>
   <g id="legend_1">
    <g id="patch_7">
     <path d="M 54.72 79.470625 
L 205.56375 79.470625 
Q 207.56375 79.470625 207.56375 77.470625 
L 207.56375 33.88 
Q 207.56375 31.88 205.56375 31.88 
L 54.72 31.88 
Q 52.72 31.88 52.72 33.88 
L 52.72 77.470625 
Q 52.72 79.470625 54.72 79.470625 
z
" style="fill: #ffffff; opacity: 0.8; stroke: #cccccc; stroke-linejoin: miter"/>
    </g>
    <g id="line2d_19">
     <path d="M 56.72 39.978437 
L 66.72 39.978437 
L 76.72 39.978437 
" style="fill: none; stroke: #1f77b4; stroke-width: 1.5; stroke-linecap: square"/>
    </g>
    <g id="text_19">
     <!-- HTGNN:full_rebalancing -->
     <g transform="translate(84.72 43.478437) scale(0.1 -0.1)">
      <defs>
       <path id="DejaVuSans-48" d="M 628 4666 
L 1259 4666 
L 1259 2753 
L 3553 2753 
L 3553 4666 
L 4184 4666 
L 4184 0 
L 3553 0 
L 3553 2222 
L 1259 2222 
L 1259 0 
L 628 0 
L 628 4666 
z
" transform="scale(0.015625)"/>
       <path id="DejaVuSans-54" d="M -19 4666 
L 3928 4666 
L 3928 4134 
L 2272 4134 
L 2272 0 
L 1638 0 
L 1638 4134 
L -19 4134 
L -19 4666 
z
" transform="scale(0.015625)"/>
       <path id="DejaVuSans-47" d="M 3809 666 
L 3809 1919 
L 2778 1919 
L 2778 2438 
L 4434 2438 
L 4434 434 
Q 4069 175 3628 42 
Q 3188 -91 2688 -91 
Q 1594 -91 976 548 
Q 359 1188 359 2328 
Q 359 3472 976 4111 
Q 1594 4750 2688 4750 
Q 3144 4750 3555 4637 
Q 3966 4525 4313 4306 
L 4313 3634 
Q 3963 3931 3569 4081 
Q 3175 4231 2741 4231 
Q 1884 4231 1454 3753 
Q 1025 3275 1025 2328 
Q 1025 1384 1454 906 
Q 1884 428 2741 428 
Q 3075 428 3337 486 
Q 3600 544 3809 666 
z
" transform="scale(0.015625)"/>
       <path id="DejaVuSans-4e" d="M 628 4666 
L 1478 4666 
L 3547 763 
L 3547 4666 
L 4159 4666 
L 4159 0 
L 3309 0 
L 1241 3903 
L 1241 0 
L 628 0 
L 628 4666 
z
" transform="scale(0.015625)"/>
       <path id="DejaVuSans-3a" d="M 750 794 
L 1409 794 
L 1409 0 
L 750 0 
L 750 794 
z
M 750 3309 
L 1409 3309 
L 1409 2516 
L 750 2516 
L 750 3309 
z
" transform="scale(0.015625)"/>
       <path id="DejaVuSans-5f" d="M 3263 -1063 
L 3263 -1509 
L -63 -1509 
L -63 -1063 
L 3263 -1063 
z
" transform="scale(0.015625)"/>
       <path id="DejaVuSans-62" d="M 3116 1747 
Q 3116 2381 2855 2742 
Q 2594 3103 2138 3103 
Q 1681 3103 1420 2742 
Q 1159 2381 1159 1747 
Q 1159 1113 1420 752 
Q 1681 391 2138 391 
Q 2594 391 2855 752 
Q 3116 1113 3116 1747 
z
M 1159 2969 
Q 1341 3281 1617 3432 
Q 1894 3584 2278 3584 
Q 2916 3584 3314 3078 
Q 3713 2572 3713 1747 
Q 3713 922 3314 415 
Q 2916 -91 2278 -91 
Q 1894 -91 1617 61 
Q 1341 213 1159 525 
L 1159 0 
L 581 0 
L 581 4863 
L 1159 4863 
L 1159 2969 
z
" transform="scale(0.015625)"/>
       <path id="DejaVuSans-6e" d="M 3513 2113 
L 3513 0 
L 2938 0 
L 2938 2094 
Q 2938 2591 2744 2837 
Q 2550 3084 2163 3084 
Q 1697 3084 1428 2787 
Q 1159 2491 1159 1978 
L 1159 0 
L 581 0 
L 581 3500 
L 1159 3500 
L 1159 2956 
Q 1366 3272 1645 3428 
Q 1925 3584 2291 3584 
Q 2894 3584 3203 3211 
Q 3513 2838 3513 2113 
z
" transform="scale(0.015625)"/>
       <path id="DejaVuSans-67" d="M 2906 1791 
Q 2906 2416 2648 2759 
Q 2391 3103 1925 3103 
Q 1463 3103 1205 2759 
Q 947 2416 947 1791 
Q 947 1169 1205 825 
Q 1463 481 1925 481 
Q 2391 481 2648 825 
Q 2906 1169 2906 1791 
z
M 3481 434 
Q 3481 -459 3084 -895 
Q 2688 -1331 1869 -1331 
Q 1566 -1331 1297 -1286 
Q 1028 -1241 775 -1147 
L 775 -588 
Q 1028 -725 1275 -790 
Q 1522 -856 1778 -856 
Q 2344 -856 2625 -561 
Q 2906 -266 2906 331 
L 2906 616 
Q 2728 306 2450 153 
Q 2172 0 1784 0 
Q 1141 0 747 490 
Q 353 981 353 1791 
Q 353 2603 747 3093 
Q 1141 3584 1784 3584 
Q 2172 3584 2450 3431 
Q 2728 3278 2906 2969 
L 2906 3500 
L 3481 3500 
L 3481 434 
z
" transform="scale(0.015625)"/>
      </defs>
      <use xlink:href="#DejaVuSans-48"/>
      <use xlink:href="#DejaVuSans-54" transform="translate(75.195312 0)"/>
      <use xlink:href="#DejaVuSans-47" transform="translate(136.279297 0)"/>
      <use xlink:href="#DejaVuSans-4e" transform="translate(213.769531 0)"/>
      <use xlink:href="#DejaVuSans-4e" transform="translate(288.574219 0)"/>
      <use xlink:href="#DejaVuSans-3a" transform="translate(363.378906 0)"/>
      <use xlink:href="#DejaVuSans-66" transform="translate(397.070312 0)"/>
      <use xlink:href="#DejaVuSans-75" transform="translate(432.275391 0)"/>
      <use xlink:href="#DejaVuSans-6c" transform="translate(495.654297 0)"/>
      <use xlink:href="#DejaVuSans-6c" transform="translate(523.4375 0)"/>
      <use xlink:href="#DejaVuSans-5f" transform="translate(551.220703 0)"/>
      <use xlink:href="#DejaVuSans-72" transform="translate(601.220703 0)"/>
      <use xlink:href="#DejaVuSans-65" transform="translate(640.083984 0)"/>
      <use xlink:href="#DejaVuSans-62" transform="translate(701.607422 0)"/>
      <use xlink:href="#DejaVuSans-61" transform="translate(765.083984 0)"/>
      <use xlink:href="#DejaVuSans-6c" transform="translate(826.363281 0)"/>
      <use xlink:href="#DejaVuSans-61" transform="translate(854.146484 0)"/>
      <use xlink:href="#DejaVuSans-6e" transform="translate(915.425781 0)"/>
      <use xlink:href="#DejaVuSans-63" transform="translate(978.804688 0)"/>
      <use xlink:href="#DejaVuSans-69" transform="translate(1033.785156 0)"/>
      <use xlink:href="#DejaVuSans-6e" transform="translate(1061.568359 0)"/>
      <use xlink:href="#DejaVuSans-67" transform="translate(1124.947266 0)"/>
     </g>
    </g>
    <g id="line2d_20">
     <path d="M 56.72 54.934687 
L 66.72 54.934687 
L 76.72 54.934687 
" style="fill: none; stroke: #ff7f0e; stroke-width: 1.5; stroke-linecap: square"/>
    </g>
    <g id="text_20">
     <!-- NN:full_rebalancing -->
     <g transform="translate(84.72 58.434687) scale(0.1 -0.1)">
      <use xlink:href="#DejaVuSans-4e"/>
      <use xlink:href="#DejaVuSans-4e" transform="translate(74.804688 0)"/>
      <use xlink:href="#DejaVuSans-3a" transform="translate(149.609375 0)"/>
      <use xlink:href="#DejaVuSans-66" transform="translate(183.300781 0)"/>
      <use xlink:href="#DejaVuSans-75" transform="translate(218.505859 0)"/>
      <use xlink:href="#DejaVuSans-6c" transform="translate(281.884766 0)"/>
      <use xlink:href="#DejaVuSans-6c" transform="translate(309.667969 0)"/>
      <use xlink:href="#DejaVuSans-5f" transform="translate(337.451172 0)"/>
      <use xlink:href="#DejaVuSans-72" transform="translate(387.451172 0)"/>
      <use xlink:href="#DejaVuSans-65" transform="translate(426.314453 0)"/>
      <use xlink:href="#DejaVuSans-62" transform="translate(487.837891 0)"/>
      <use xlink:href="#DejaVuSans-61" transform="translate(551.314453 0)"/>
      <use xlink:href="#DejaVuSans-6c" transform="translate(612.59375 0)"/>
      <use xlink:href="#DejaVuSans-61" transform="translate(640.376953 0)"/>
      <use xlink:href="#DejaVuSans-6e" transform="translate(701.65625 0)"/>
      <use xlink:href="#DejaVuSans-63" transform="translate(765.035156 0)"/>
      <use xlink:href="#DejaVuSans-69" transform="translate(820.015625 0)"/>
      <use xlink:href="#DejaVuSans-6e" transform="translate(847.798828 0)"/>
      <use xlink:href="#DejaVuSans-67" transform="translate(911.177734 0)"/>
     </g>
    </g>
    <g id="line2d_21">
     <path d="M 56.72 69.890938 
L 66.72 69.890938 
L 76.72 69.890938 
" style="fill: none; stroke-dasharray: 5.55,2.4; stroke-dashoffset: 0; stroke: #2ca02c; stroke-width: 1.5"/>
    </g>
    <g id="text_21">
     <!-- benchmark:USD -->
     <g transform="translate(84.72 73.390938) scale(0.1 -0.1)">
      <defs>
       <path id="DejaVuSans-68" d="M 3513 2113 
L 3513 0 
L 2938 0 
L 2938 2094 
Q 2938 2591 2744 2837 
Q 2550 3084 2163 3084 
Q 1697 3084 1428 2787 
Q 1159 2491 1159 1978 
L 1159 0 
L 581 0 
L 581 4863 
L 1159 4863 
L 1159 2956 
Q 1366 3272 1645 3428 
Q 1925 3584 2291 3584 
Q 2894 3584 3203 3211 
Q 3513 2838 3513 2113 
z
" transform="scale(0.015625)"/>
       <path id="DejaVuSans-6d" d="M 3328 2828 
Q 3544 3216 3844 3400 
Q 4144 3584 4550 3584 
Q 5097 3584 5394 3201 
Q 5691 2819 5691 2113 
L 5691 0 
L 5113 0 
L 5113 2094 
Q 5113 2597 4934 2840 
Q 4756 3084 4391 3084 
Q 3944 3084 3684 2787 
Q 3425 2491 3425 1978 
L 3425 0 
L 2847 0 
L 2847 2094 
Q 2847 2600 2669 2842 
Q 2491 3084 2119 3084 
Q 1678 3084 1418 2786 
Q 1159 2488 1159 1978 
L 1159 0 
L 581 0 
L 581 3500 
L 1159 3500 
L 1159 2956 
Q 1356 3278 1631 3431 
Q 1906 3584 2284 3584 
Q 2666 3584 2933 3390 
Q 3200 3197 3328 2828 
z
" transform="scale(0.015625)"/>
      </defs>
      <use xlink:href="#DejaVuSans-62"/>
      <use xlink:href="#DejaVuSans-65" transform="translate(63.476562 0)"/>
      <use xlink:href="#DejaVuSans-6e" transform="translate(125 0)"/>
      <use xlink:href="#DejaVuSans-63" transform="translate(188.378906 0)"/>
      <use xlink:href="#DejaVuSans-68" transform="translate(243.359375 0)"/>
      <use xlink:href="#DejaVuSans-6d" transform="translate(306.738281 0)"/>
      <use xlink:href="#DejaVuSans-61" transform="translate(404.150391 0)"/>
      <use xlink:href="#DejaVuSans-72" transform="translate(465.429688 0)"/>
      <use xlink:href="#DejaVuSans-6b" transform="translate(506.542969 0)"/>
      <use xlink:href="#DejaVuSans-3a" transform="translate(564.453125 0)"/>
      <use xlink:href="#DejaVuSans-55" transform="translate(598.144531 0)"/>
      <use xlink:href="#DejaVuSans-53" transform="translate(671.337891 0)"/>
      <use xlink:href="#DejaVuSans-44" transform="translate(734.814453 0)"/>
     </g>
    </g>
   </g>
  </g>
 </g>
 <defs>
  <clipPath id="p4cbf1b64ab">
   <rect x="47.72" y="26.88" width="733.48" height="363.16"/>
  </clipPath>
 </defs>
</svg>
