<?xml version="1.0" encoding="utf-8" standalone="no"?>
<!DOCTYPE svg PUBLIC "-//W3C//DTD SVG 1.1//EN"
  "http://www.w3.org/Graphics/SVG/1.1/DTD/svg11.dtd">
<svg xmlns:xlink="http://www.w3.org/1999/xlink" width="604.46125pt" height="366.194219pt" viewBox="0 0 604.46125 366.194219" xmlns="http://www.w3.org/2000/svg" version="1.1">
 <metadata>
  <rdf:RDF xmlns:dc="http://purl.org/dc/elements/1.1/" xmlns:cc="http://creativecommons.org/ns#" xmlns:rdf="http://www.w3.org/1999/02/22-rdf-syntax-ns#">
   <cc:Work>
    <dc:type rdf:resource="http://purl.org/dc/dcmitype/StillImage"/>
    <dc:date>2026-06-05T05:07:39.870429</dc:date>
    <dc:format>image/svg+xml</dc:format>
    <dc:creator>
     <cc:Agent>
      <dc:title>Matplotlib v3.10.9, https://matplotlib.org/</dc:title>
     </cc:Agent>
    </dc:creator>
   </cc:Work>
  </rdf:RDF>
 </metadata>
 <defs>
  <style type="text/css">*{stroke-linejoin: round; stroke-linecap: butt}</style>
 </defs>
 <g id="figure_1">
  <g id="patch_1">
   <path d="M 0 366.194219 
L 604.46125 366.194219 
L 604.46125 0 
L 0 0 
z
" style="fill: #ffffff"/>
  </g>
  <g id="axes_1">
   <g id="patch_2">
    <path d="M 43.78125 328.637969 
L 597.26125 328.637969 
L 597.26125 23.077969 
L 43.78125 23.077969 
z
" style="fill: #ffffff"/>
   </g>
   <g id="matplotlib.axis_1">
    <g id="xtick_1">
     <g id="line2d_1">
      <path d="M 68.939432 328.637969 
L 68.939432 23.077969 
" clip-path="url(#pd267ea7e4e)" style="fill: none; stroke: #e2e8f0; stroke-width: 0.8; stroke-linecap: square"/>
     </g>
     <g id="line2d_2">
      <defs>
       <path id="ma157d0bc94" d="M 0 0 
L 0 3.5 
" style="stroke: #000000; stroke-width: 0.8"/>
      </defs>
      <g>
       <use xlink:href="#ma157d0bc94" x="68.939432" y="328.637969" style="stroke: #000000; stroke-width: 0.8"/>
      </g>
     </g>
     <g id="text_1">
      <!-- 0 -->
      <g transform="translate(65.758182 343.236406) scale(0.1 -0.1)">
       <defs>
        <path id="DejaVuSans-30" d="M 2034 4250 
Q 1547 4250 1301 3770 
Q 1056 3291 1056 2328 
Q 1056 1369 1301 889 
Q 1547 409 2034 409 
Q 2525 409 2770 889 
Q 3016 1369 3016 2328 
Q 3016 3291 2770 3770 
Q 2525 4250 2034 4250 
z
M 2034 4750 
Q 2819 4750 3233 4129 
Q 3647 3509 3647 2328 
Q 3647 1150 3233 529 
Q 2819 -91 2034 -91 
Q 1250 -91 836 529 
Q 422 1150 422 2328 
Q 422 3509 836 4129 
Q 1250 4750 2034 4750 
z
" transform="scale(0.015625)"/>
       </defs>
       <use xlink:href="#DejaVuSans-30"/>
      </g>
     </g>
    </g>
    <g id="xtick_2">
     <g id="line2d_3">
      <path d="M 169.572159 328.637969 
L 169.572159 23.077969 
" clip-path="url(#pd267ea7e4e)" style="fill: none; stroke: #e2e8f0; stroke-width: 0.8; stroke-linecap: square"/>
     </g>
     <g id="line2d_4">
      <g>
       <use xlink:href="#ma157d0bc94" x="169.572159" y="328.637969" style="stroke: #000000; stroke-width: 0.8"/>
      </g>
     </g>
     <g id="text_2">
      <!-- 1 -->
      <g transform="translate(166.390909 343.236406) scale(0.1 -0.1)">
       <defs>
        <path id="DejaVuSans-31" d="M 794 531 
L 1825 531 
L 1825 4091 
L 703 3866 
L 703 4441 
L 1819 4666 
L 2450 4666 
L 2450 531 
L 3481 531 
L 3481 0 
L 794 0 
L 794 531 
z
" transform="scale(0.015625)"/>
       </defs>
       <use xlink:href="#DejaVuSans-31"/>
      </g>
     </g>
    </g>
    <g id="xtick_3">
     <g id="line2d_5">
      <path d="M 270.204886 328.637969 
L 270.204886 23.077969 
" clip-path="url(#pd267ea7e4e)" style="fill: none; stroke: #e2e8f0; stroke-width: 0.8; stroke-linecap: square"/>
     </g>
     <g id="line2d_6">
      <g>
       <use xlink:href="#ma157d0bc94" x="270.204886" y="328.637969" style="stroke: #000000; stroke-width: 0.8"/>
      </g>
     </g>
     <g id="text_3">
      <!-- 2 -->
      <g transform="translate(267.023636 343.236406) scale(0.1 -0.1)">
       <defs>
        <path id="DejaVuSans-32" d="M 1228 531 
L 3431 531 
L 3431 0 
L 469 0 
L 469 531 
Q 828 903 1448 1529 
Q 2069 2156 2228 2338 
Q 2531 2678 2651 2914 
Q 2772 3150 2772 3378 
Q 2772 3750 2511 3984 
Q 2250 4219 1831 4219 
Q 1534 4219 1204 4116 
Q 875 4013 500 3803 
L 500 4441 
Q 881 4594 1212 4672 
Q 1544 4750 1819 4750 
Q 2544 4750 2975 4387 
Q 3406 4025 3406 3419 
Q 3406 3131 3298 2873 
Q 3191 2616 2906 2266 
Q 2828 2175 2409 1742 
Q 1991 1309 1228 531 
z
" transform="scale(0.015625)"/>
       </defs>
       <use xlink:href="#DejaVuSans-32"/>
      </g>
     </g>
    </g>
    <g id="xtick_4">
     <g id="line2d_7">
      <path d="M 370.837614 328.637969 
L 370.837614 23.077969 
" clip-path="url(#pd267ea7e4e)" style="fill: none; stroke: #e2e8f0; stroke-width: 0.8; stroke-linecap: square"/>
     </g>
     <g id="line2d_8">
      <g>
       <use xlink:href="#ma157d0bc94" x="370.837614" y="328.637969" style="stroke: #000000; stroke-width: 0.8"/>
      </g>
     </g>
     <g id="text_4">
      <!-- 3 -->
      <g transform="translate(367.656364 343.236406) scale(0.1 -0.1)">
       <defs>
        <path id="DejaVuSans-33" d="M 2597 2516 
Q 3050 2419 3304 2112 
Q 3559 1806 3559 1356 
Q 3559 666 3084 287 
Q 2609 -91 1734 -91 
Q 1441 -91 1130 -33 
Q 819 25 488 141 
L 488 750 
Q 750 597 1062 519 
Q 1375 441 1716 441 
Q 2309 441 2620 675 
Q 2931 909 2931 1356 
Q 2931 1769 2642 2001 
Q 2353 2234 1838 2234 
L 1294 2234 
L 1294 2753 
L 1863 2753 
Q 2328 2753 2575 2939 
Q 2822 3125 2822 3475 
Q 2822 3834 2567 4026 
Q 2313 4219 1838 4219 
Q 1578 4219 1281 4162 
Q 984 4106 628 3988 
L 628 4550 
Q 988 4650 1302 4700 
Q 1616 4750 1894 4750 
Q 2613 4750 3031 4423 
Q 3450 4097 3450 3541 
Q 3450 3153 3228 2886 
Q 3006 2619 2597 2516 
z
" transform="scale(0.015625)"/>
       </defs>
       <use xlink:href="#DejaVuSans-33"/>
      </g>
     </g>
    </g>
    <g id="xtick_5">
     <g id="line2d_9">
      <path d="M 471.470341 328.637969 
L 471.470341 23.077969 
" clip-path="url(#pd267ea7e4e)" style="fill: none; stroke: #e2e8f0; stroke-width: 0.8; stroke-linecap: square"/>
     </g>
     <g id="line2d_10">
      <g>
       <use xlink:href="#ma157d0bc94" x="471.470341" y="328.637969" style="stroke: #000000; stroke-width: 0.8"/>
      </g>
     </g>
     <g id="text_5">
      <!-- 4 -->
      <g transform="translate(468.289091 343.236406) scale(0.1 -0.1)">
       <defs>
        <path id="DejaVuSans-34" d="M 2419 4116 
L 825 1625 
L 2419 1625 
L 2419 4116 
z
M 2253 4666 
L 3047 4666 
L 3047 1625 
L 3713 1625 
L 3713 1100 
L 3047 1100 
L 3047 0 
L 2419 0 
L 2419 1100 
L 313 1100 
L 313 1709 
L 2253 4666 
z
" transform="scale(0.015625)"/>
       </defs>
       <use xlink:href="#DejaVuSans-34"/>
      </g>
     </g>
    </g>
    <g id="xtick_6">
     <g id="line2d_11">
      <path d="M 572.103068 328.637969 
L 572.103068 23.077969 
" clip-path="url(#pd267ea7e4e)" style="fill: none; stroke: #e2e8f0; stroke-width: 0.8; stroke-linecap: square"/>
     </g>
     <g id="line2d_12">
      <g>
       <use xlink:href="#ma157d0bc94" x="572.103068" y="328.637969" style="stroke: #000000; stroke-width: 0.8"/>
      </g>
     </g>
     <g id="text_6">
      <!-- 5 -->
      <g transform="translate(568.921818 343.236406) scale(0.1 -0.1)">
       <defs>
        <path id="DejaVuSans-35" d="M 691 4666 
L 3169 4666 
L 3169 4134 
L 1269 4134 
L 1269 2991 
Q 1406 3038 1543 3061 
Q 1681 3084 1819 3084 
Q 2600 3084 3056 2656 
Q 3513 2228 3513 1497 
Q 3513 744 3044 326 
Q 2575 -91 1722 -91 
Q 1428 -91 1123 -41 
Q 819 9 494 109 
L 494 744 
Q 775 591 1075 516 
Q 1375 441 1709 441 
Q 2250 441 2565 725 
Q 2881 1009 2881 1497 
Q 2881 1984 2565 2268 
Q 2250 2553 1709 2553 
Q 1456 2553 1204 2497 
Q 953 2441 691 2322 
L 691 4666 
z
" transform="scale(0.015625)"/>
       </defs>
       <use xlink:href="#DejaVuSans-35"/>
      </g>
     </g>
    </g>
    <g id="text_7">
     <!-- Number of top groups perturbed/restored -->
     <g transform="translate(216.504062 356.914531) scale(0.1 -0.1)">
      <defs>
       <path id="DejaVuSans-4e" d="M 628 4666 
L 1478 4666 
L 3547 763 
L 3547 4666 
L 4159 4666 
L 4159 0 
L 3309 0 
L 1241 3903 
L 1241 0 
L 628 0 
L 628 4666 
z
" transform="scale(0.015625)"/>
       <path id="DejaVuSans-75" d="M 544 1381 
L 544 3500 
L 1119 3500 
L 1119 1403 
Q 1119 906 1312 657 
Q 1506 409 1894 409 
Q 2359 409 2629 706 
Q 2900 1003 2900 1516 
L 2900 3500 
L 3475 3500 
L 3475 0 
L 2900 0 
L 2900 538 
Q 2691 219 2414 64 
Q 2138 -91 1772 -91 
Q 1169 -91 856 284 
Q 544 659 544 1381 
z
M 1991 3584 
L 1991 3584 
z
" transform="scale(0.015625)"/>
       <path id="DejaVuSans-6d" d="M 3328 2828 
Q 3544 3216 3844 3400 
Q 4144 3584 4550 3584 
Q 5097 3584 5394 3201 
Q 5691 2819 5691 2113 
L 5691 0 
L 5113 0 
L 5113 2094 
Q 5113 2597 4934 2840 
Q 4756 3084 4391 3084 
Q 3944 3084 3684 2787 
Q 3425 2491 3425 1978 
L 3425 0 
L 2847 0 
L 2847 2094 
Q 2847 2600 2669 2842 
Q 2491 3084 2119 3084 
Q 1678 3084 1418 2786 
Q 1159 2488 1159 1978 
L 1159 0 
L 581 0 
L 581 3500 
L 1159 3500 
L 1159 2956 
Q 1356 3278 1631 3431 
Q 1906 3584 2284 3584 
Q 2666 3584 2933 3390 
Q 3200 3197 3328 2828 
z
" transform="scale(0.015625)"/>
       <path id="DejaVuSans-62" d="M 3116 1747 
Q 3116 2381 2855 2742 
Q 2594 3103 2138 3103 
Q 1681 3103 1420 2742 
Q 1159 2381 1159 1747 
Q 1159 1113 1420 752 
Q 1681 391 2138 391 
Q 2594 391 2855 752 
Q 3116 1113 3116 1747 
z
M 1159 2969 
Q 1341 3281 1617 3432 
Q 1894 3584 2278 3584 
Q 2916 3584 3314 3078 
Q 3713 2572 3713 1747 
Q 3713 922 3314 415 
Q 2916 -91 2278 -91 
Q 1894 -91 1617 61 
Q 1341 213 1159 525 
L 1159 0 
L 581 0 
L 581 4863 
L 1159 4863 
L 1159 2969 
z
" transform="scale(0.015625)"/>
       <path id="DejaVuSans-65" d="M 3597 1894 
L 3597 1613 
L 953 1613 
Q 991 1019 1311 708 
Q 1631 397 2203 397 
Q 2534 397 2845 478 
Q 3156 559 3463 722 
L 3463 178 
Q 3153 47 2828 -22 
Q 2503 -91 2169 -91 
Q 1331 -91 842 396 
Q 353 884 353 1716 
Q 353 2575 817 3079 
Q 1281 3584 2069 3584 
Q 2775 3584 3186 3129 
Q 3597 2675 3597 1894 
z
M 3022 2063 
Q 3016 2534 2758 2815 
Q 2500 3097 2075 3097 
Q 1594 3097 1305 2825 
Q 1016 2553 972 2059 
L 3022 2063 
z
" transform="scale(0.015625)"/>
       <path id="DejaVuSans-72" d="M 2631 2963 
Q 2534 3019 2420 3045 
Q 2306 3072 2169 3072 
Q 1681 3072 1420 2755 
Q 1159 2438 1159 1844 
L 1159 0 
L 581 0 
L 581 3500 
L 1159 3500 
L 1159 2956 
Q 1341 3275 1631 3429 
Q 1922 3584 2338 3584 
Q 2397 3584 2469 3576 
Q 2541 3569 2628 3553 
L 2631 2963 
z
" transform="scale(0.015625)"/>
       <path id="DejaVuSans-20" transform="scale(0.015625)"/>
       <path id="DejaVuSans-6f" d="M 1959 3097 
Q 1497 3097 1228 2736 
Q 959 2375 959 1747 
Q 959 1119 1226 758 
Q 1494 397 1959 397 
Q 2419 397 2687 759 
Q 2956 1122 2956 1747 
Q 2956 2369 2687 2733 
Q 2419 3097 1959 3097 
z
M 1959 3584 
Q 2709 3584 3137 3096 
Q 3566 2609 3566 1747 
Q 3566 888 3137 398 
Q 2709 -91 1959 -91 
Q 1206 -91 779 398 
Q 353 888 353 1747 
Q 353 2609 779 3096 
Q 1206 3584 1959 3584 
z
" transform="scale(0.015625)"/>
       <path id="DejaVuSans-66" d="M 2375 4863 
L 2375 4384 
L 1825 4384 
Q 1516 4384 1395 4259 
Q 1275 4134 1275 3809 
L 1275 3500 
L 2222 3500 
L 2222 3053 
L 1275 3053 
L 1275 0 
L 697 0 
L 697 3053 
L 147 3053 
L 147 3500 
L 697 3500 
L 697 3744 
Q 697 4328 969 4595 
Q 1241 4863 1831 4863 
L 2375 4863 
z
" transform="scale(0.015625)"/>
       <path id="DejaVuSans-74" d="M 1172 4494 
L 1172 3500 
L 2356 3500 
L 2356 3053 
L 1172 3053 
L 1172 1153 
Q 1172 725 1289 603 
Q 1406 481 1766 481 
L 2356 481 
L 2356 0 
L 1766 0 
Q 1100 0 847 248 
Q 594 497 594 1153 
L 594 3053 
L 172 3053 
L 172 3500 
L 594 3500 
L 594 4494 
L 1172 4494 
z
" transform="scale(0.015625)"/>
       <path id="DejaVuSans-70" d="M 1159 525 
L 1159 -1331 
L 581 -1331 
L 581 3500 
L 1159 3500 
L 1159 2969 
Q 1341 3281 1617 3432 
Q 1894 3584 2278 3584 
Q 2916 3584 3314 3078 
Q 3713 2572 3713 1747 
Q 3713 922 3314 415 
Q 2916 -91 2278 -91 
Q 1894 -91 1617 61 
Q 1341 213 1159 525 
z
M 3116 1747 
Q 3116 2381 2855 2742 
Q 2594 3103 2138 3103 
Q 1681 3103 1420 2742 
Q 1159 2381 1159 1747 
Q 1159 1113 1420 752 
Q 1681 391 2138 391 
Q 2594 391 2855 752 
Q 3116 1113 3116 1747 
z
" transform="scale(0.015625)"/>
       <path id="DejaVuSans-67" d="M 2906 1791 
Q 2906 2416 2648 2759 
Q 2391 3103 1925 3103 
Q 1463 3103 1205 2759 
Q 947 2416 947 1791 
Q 947 1169 1205 825 
Q 1463 481 1925 481 
Q 2391 481 2648 825 
Q 2906 1169 2906 1791 
z
M 3481 434 
Q 3481 -459 3084 -895 
Q 2688 -1331 1869 -1331 
Q 1566 -1331 1297 -1286 
Q 1028 -1241 775 -1147 
L 775 -588 
Q 1028 -725 1275 -790 
Q 1522 -856 1778 -856 
Q 2344 -856 2625 -561 
Q 2906 -266 2906 331 
L 2906 616 
Q 2728 306 2450 153 
Q 2172 0 1784 0 
Q 1141 0 747 490 
Q 353 981 353 1791 
Q 353 2603 747 3093 
Q 1141 3584 1784 3584 
Q 2172 3584 2450 3431 
Q 2728 3278 2906 2969 
L 2906 3500 
L 3481 3500 
L 3481 434 
z
" transform="scale(0.015625)"/>
       <path id="DejaVuSans-73" d="M 2834 3397 
L 2834 2853 
Q 2591 2978 2328 3040 
Q 2066 3103 1784 3103 
Q 1356 3103 1142 2972 
Q 928 2841 928 2578 
Q 928 2378 1081 2264 
Q 1234 2150 1697 2047 
L 1894 2003 
Q 2506 1872 2764 1633 
Q 3022 1394 3022 966 
Q 3022 478 2636 193 
Q 2250 -91 1575 -91 
Q 1294 -91 989 -36 
Q 684 19 347 128 
L 347 722 
Q 666 556 975 473 
Q 1284 391 1588 391 
Q 1994 391 2212 530 
Q 2431 669 2431 922 
Q 2431 1156 2273 1281 
Q 2116 1406 1581 1522 
L 1381 1569 
Q 847 1681 609 1914 
Q 372 2147 372 2553 
Q 372 3047 722 3315 
Q 1072 3584 1716 3584 
Q 2034 3584 2315 3537 
Q 2597 3491 2834 3397 
z
" transform="scale(0.015625)"/>
       <path id="DejaVuSans-64" d="M 2906 2969 
L 2906 4863 
L 3481 4863 
L 3481 0 
L 2906 0 
L 2906 525 
Q 2725 213 2448 61 
Q 2172 -91 1784 -91 
Q 1150 -91 751 415 
Q 353 922 353 1747 
Q 353 2572 751 3078 
Q 1150 3584 1784 3584 
Q 2172 3584 2448 3432 
Q 2725 3281 2906 2969 
z
M 947 1747 
Q 947 1113 1208 752 
Q 1469 391 1925 391 
Q 2381 391 2643 752 
Q 2906 1113 2906 1747 
Q 2906 2381 2643 2742 
Q 2381 3103 1925 3103 
Q 1469 3103 1208 2742 
Q 947 2381 947 1747 
z
" transform="scale(0.015625)"/>
       <path id="DejaVuSans-2f" d="M 1625 4666 
L 2156 4666 
L 531 -594 
L 0 -594 
L 1625 4666 
z
" transform="scale(0.015625)"/>
      </defs>
      <use xlink:href="#DejaVuSans-4e"/>
      <use xlink:href="#DejaVuSans-75" transform="translate(74.804688 0)"/>
      <use xlink:href="#DejaVuSans-6d" transform="translate(138.183594 0)"/>
      <use xlink:href="#DejaVuSans-62" transform="translate(235.595703 0)"/>
      <use xlink:href="#DejaVuSans-65" transform="translate(299.072266 0)"/>
      <use xlink:href="#DejaVuSans-72" transform="translate(360.595703 0)"/>
      <use xlink:href="#DejaVuSans-20" transform="translate(401.708984 0)"/>
      <use xlink:href="#DejaVuSans-6f" transform="translate(433.496094 0)"/>
      <use xlink:href="#DejaVuSans-66" transform="translate(494.677734 0)"/>
      <use xlink:href="#DejaVuSans-20" transform="translate(529.882812 0)"/>
      <use xlink:href="#DejaVuSans-74" transform="translate(561.669922 0)"/>
      <use xlink:href="#DejaVuSans-6f" transform="translate(600.878906 0)"/>
      <use xlink:href="#DejaVuSans-70" transform="translate(662.060547 0)"/>
      <use xlink:href="#DejaVuSans-20" transform="translate(725.537109 0)"/>
      <use xlink:href="#DejaVuSans-67" transform="translate(757.324219 0)"/>
      <use xlink:href="#DejaVuSans-72" transform="translate(820.800781 0)"/>
      <use xlink:href="#DejaVuSans-6f" transform="translate(859.664062 0)"/>
      <use xlink:href="#DejaVuSans-75" transform="translate(920.845703 0)"/>
      <use xlink:href="#DejaVuSans-70" transform="translate(984.224609 0)"/>
      <use xlink:href="#DejaVuSans-73" transform="translate(1047.701172 0)"/>
      <use xlink:href="#DejaVuSans-20" transform="translate(1099.800781 0)"/>
      <use xlink:href="#DejaVuSans-70" transform="translate(1131.587891 0)"/>
      <use xlink:href="#DejaVuSans-65" transform="translate(1195.064453 0)"/>
      <use xlink:href="#DejaVuSans-72" transform="translate(1256.587891 0)"/>
      <use xlink:href="#DejaVuSans-74" transform="translate(1297.701172 0)"/>
      <use xlink:href="#DejaVuSans-75" transform="translate(1336.910156 0)"/>
      <use xlink:href="#DejaVuSans-72" transform="translate(1400.289062 0)"/>
      <use xlink:href="#DejaVuSans-62" transform="translate(1441.402344 0)"/>
      <use xlink:href="#DejaVuSans-65" transform="translate(1504.878906 0)"/>
      <use xlink:href="#DejaVuSans-64" transform="translate(1566.402344 0)"/>
      <use xlink:href="#DejaVuSans-2f" transform="translate(1629.878906 0)"/>
      <use xlink:href="#DejaVuSans-72" transform="translate(1663.570312 0)"/>
      <use xlink:href="#DejaVuSans-65" transform="translate(1702.433594 0)"/>
      <use xlink:href="#DejaVuSans-73" transform="translate(1763.957031 0)"/>
      <use xlink:href="#DejaVuSans-74" transform="translate(1816.056641 0)"/>
      <use xlink:href="#DejaVuSans-6f" transform="translate(1855.265625 0)"/>
      <use xlink:href="#DejaVuSans-72" transform="translate(1916.447266 0)"/>
      <use xlink:href="#DejaVuSans-65" transform="translate(1955.310547 0)"/>
      <use xlink:href="#DejaVuSans-64" transform="translate(2016.833984 0)"/>
     </g>
    </g>
   </g>
   <g id="matplotlib.axis_2">
    <g id="ytick_1">
     <g id="line2d_13">
      <path d="M 43.78125 328.637969 
L 597.26125 328.637969 
" clip-path="url(#pd267ea7e4e)" style="fill: none; stroke: #e2e8f0; stroke-width: 0.8; stroke-linecap: square"/>
     </g>
     <g id="line2d_14">
      <defs>
       <path id="mc3d615832f" d="M 0 0 
L -3.5 0 
" style="stroke: #000000; stroke-width: 0.8"/>
      </defs>
      <g>
       <use xlink:href="#mc3d615832f" x="43.78125" y="328.637969" style="stroke: #000000; stroke-width: 0.8"/>
      </g>
     </g>
     <g id="text_8">
      <!-- 0.0 -->
      <g transform="translate(20.878125 332.437187) scale(0.1 -0.1)">
       <defs>
        <path id="DejaVuSans-2e" d="M 684 794 
L 1344 794 
L 1344 0 
L 684 0 
L 684 794 
z
" transform="scale(0.015625)"/>
       </defs>
       <use xlink:href="#DejaVuSans-30"/>
       <use xlink:href="#DejaVuSans-2e" transform="translate(63.623047 0)"/>
       <use xlink:href="#DejaVuSans-30" transform="translate(95.410156 0)"/>
      </g>
     </g>
    </g>
    <g id="ytick_2">
     <g id="line2d_15">
      <path d="M 43.78125 285.627877 
L 597.26125 285.627877 
" clip-path="url(#pd267ea7e4e)" style="fill: none; stroke: #e2e8f0; stroke-width: 0.8; stroke-linecap: square"/>
     </g>
     <g id="line2d_16">
      <g>
       <use xlink:href="#mc3d615832f" x="43.78125" y="285.627877" style="stroke: #000000; stroke-width: 0.8"/>
      </g>
     </g>
     <g id="text_9">
      <!-- 0.2 -->
      <g transform="translate(20.878125 289.427096) scale(0.1 -0.1)">
       <use xlink:href="#DejaVuSans-30"/>
       <use xlink:href="#DejaVuSans-2e" transform="translate(63.623047 0)"/>
       <use xlink:href="#DejaVuSans-32" transform="translate(95.410156 0)"/>
      </g>
     </g>
    </g>
    <g id="ytick_3">
     <g id="line2d_17">
      <path d="M 43.78125 242.617786 
L 597.26125 242.617786 
" clip-path="url(#pd267ea7e4e)" style="fill: none; stroke: #e2e8f0; stroke-width: 0.8; stroke-linecap: square"/>
     </g>
     <g id="line2d_18">
      <g>
       <use xlink:href="#mc3d615832f" x="43.78125" y="242.617786" style="stroke: #000000; stroke-width: 0.8"/>
      </g>
     </g>
     <g id="text_10">
      <!-- 0.4 -->
      <g transform="translate(20.878125 246.417005) scale(0.1 -0.1)">
       <use xlink:href="#DejaVuSans-30"/>
       <use xlink:href="#DejaVuSans-2e" transform="translate(63.623047 0)"/>
       <use xlink:href="#DejaVuSans-34" transform="translate(95.410156 0)"/>
      </g>
     </g>
    </g>
    <g id="ytick_4">
     <g id="line2d_19">
      <path d="M 43.78125 199.607695 
L 597.26125 199.607695 
" clip-path="url(#pd267ea7e4e)" style="fill: none; stroke: #e2e8f0; stroke-width: 0.8; stroke-linecap: square"/>
     </g>
     <g id="line2d_20">
      <g>
       <use xlink:href="#mc3d615832f" x="43.78125" y="199.607695" style="stroke: #000000; stroke-width: 0.8"/>
      </g>
     </g>
     <g id="text_11">
      <!-- 0.6 -->
      <g transform="translate(20.878125 203.406913) scale(0.1 -0.1)">
       <defs>
        <path id="DejaVuSans-36" d="M 2113 2584 
Q 1688 2584 1439 2293 
Q 1191 2003 1191 1497 
Q 1191 994 1439 701 
Q 1688 409 2113 409 
Q 2538 409 2786 701 
Q 3034 994 3034 1497 
Q 3034 2003 2786 2293 
Q 2538 2584 2113 2584 
z
M 3366 4563 
L 3366 3988 
Q 3128 4100 2886 4159 
Q 2644 4219 2406 4219 
Q 1781 4219 1451 3797 
Q 1122 3375 1075 2522 
Q 1259 2794 1537 2939 
Q 1816 3084 2150 3084 
Q 2853 3084 3261 2657 
Q 3669 2231 3669 1497 
Q 3669 778 3244 343 
Q 2819 -91 2113 -91 
Q 1303 -91 875 529 
Q 447 1150 447 2328 
Q 447 3434 972 4092 
Q 1497 4750 2381 4750 
Q 2619 4750 2861 4703 
Q 3103 4656 3366 4563 
z
" transform="scale(0.015625)"/>
       </defs>
       <use xlink:href="#DejaVuSans-30"/>
       <use xlink:href="#DejaVuSans-2e" transform="translate(63.623047 0)"/>
       <use xlink:href="#DejaVuSans-36" transform="translate(95.410156 0)"/>
      </g>
     </g>
    </g>
    <g id="ytick_5">
     <g id="line2d_21">
      <path d="M 43.78125 156.597603 
L 597.26125 156.597603 
" clip-path="url(#pd267ea7e4e)" style="fill: none; stroke: #e2e8f0; stroke-width: 0.8; stroke-linecap: square"/>
     </g>
     <g id="line2d_22">
      <g>
       <use xlink:href="#mc3d615832f" x="43.78125" y="156.597603" style="stroke: #000000; stroke-width: 0.8"/>
      </g>
     </g>
     <g id="text_12">
      <!-- 0.8 -->
      <g transform="translate(20.878125 160.396822) scale(0.1 -0.1)">
       <defs>
        <path id="DejaVuSans-38" d="M 2034 2216 
Q 1584 2216 1326 1975 
Q 1069 1734 1069 1313 
Q 1069 891 1326 650 
Q 1584 409 2034 409 
Q 2484 409 2743 651 
Q 3003 894 3003 1313 
Q 3003 1734 2745 1975 
Q 2488 2216 2034 2216 
z
M 1403 2484 
Q 997 2584 770 2862 
Q 544 3141 544 3541 
Q 544 4100 942 4425 
Q 1341 4750 2034 4750 
Q 2731 4750 3128 4425 
Q 3525 4100 3525 3541 
Q 3525 3141 3298 2862 
Q 3072 2584 2669 2484 
Q 3125 2378 3379 2068 
Q 3634 1759 3634 1313 
Q 3634 634 3220 271 
Q 2806 -91 2034 -91 
Q 1263 -91 848 271 
Q 434 634 434 1313 
Q 434 1759 690 2068 
Q 947 2378 1403 2484 
z
M 1172 3481 
Q 1172 3119 1398 2916 
Q 1625 2713 2034 2713 
Q 2441 2713 2670 2916 
Q 2900 3119 2900 3481 
Q 2900 3844 2670 4047 
Q 2441 4250 2034 4250 
Q 1625 4250 1398 4047 
Q 1172 3844 1172 3481 
z
" transform="scale(0.015625)"/>
       </defs>
       <use xlink:href="#DejaVuSans-30"/>
       <use xlink:href="#DejaVuSans-2e" transform="translate(63.623047 0)"/>
       <use xlink:href="#DejaVuSans-38" transform="translate(95.410156 0)"/>
      </g>
     </g>
    </g>
    <g id="ytick_6">
     <g id="line2d_23">
      <path d="M 43.78125 113.587512 
L 597.26125 113.587512 
" clip-path="url(#pd267ea7e4e)" style="fill: none; stroke: #e2e8f0; stroke-width: 0.8; stroke-linecap: square"/>
     </g>
     <g id="line2d_24">
      <g>
       <use xlink:href="#mc3d615832f" x="43.78125" y="113.587512" style="stroke: #000000; stroke-width: 0.8"/>
      </g>
     </g>
     <g id="text_13">
      <!-- 1.0 -->
      <g transform="translate(20.878125 117.386731) scale(0.1 -0.1)">
       <use xlink:href="#DejaVuSans-31"/>
       <use xlink:href="#DejaVuSans-2e" transform="translate(63.623047 0)"/>
       <use xlink:href="#DejaVuSans-30" transform="translate(95.410156 0)"/>
      </g>
     </g>
    </g>
    <g id="ytick_7">
     <g id="line2d_25">
      <path d="M 43.78125 70.57742 
L 597.26125 70.57742 
" clip-path="url(#pd267ea7e4e)" style="fill: none; stroke: #e2e8f0; stroke-width: 0.8; stroke-linecap: square"/>
     </g>
     <g id="line2d_26">
      <g>
       <use xlink:href="#mc3d615832f" x="43.78125" y="70.57742" style="stroke: #000000; stroke-width: 0.8"/>
      </g>
     </g>
     <g id="text_14">
      <!-- 1.2 -->
      <g transform="translate(20.878125 74.376639) scale(0.1 -0.1)">
       <use xlink:href="#DejaVuSans-31"/>
       <use xlink:href="#DejaVuSans-2e" transform="translate(63.623047 0)"/>
       <use xlink:href="#DejaVuSans-32" transform="translate(95.410156 0)"/>
      </g>
     </g>
    </g>
    <g id="ytick_8">
     <g id="line2d_27">
      <path d="M 43.78125 27.567329 
L 597.26125 27.567329 
" clip-path="url(#pd267ea7e4e)" style="fill: none; stroke: #e2e8f0; stroke-width: 0.8; stroke-linecap: square"/>
     </g>
     <g id="line2d_28">
      <g>
       <use xlink:href="#mc3d615832f" x="43.78125" y="27.567329" style="stroke: #000000; stroke-width: 0.8"/>
      </g>
     </g>
     <g id="text_15">
      <!-- 1.4 -->
      <g transform="translate(20.878125 31.366548) scale(0.1 -0.1)">
       <use xlink:href="#DejaVuSans-31"/>
       <use xlink:href="#DejaVuSans-2e" transform="translate(63.623047 0)"/>
       <use xlink:href="#DejaVuSans-34" transform="translate(95.410156 0)"/>
      </g>
     </g>
    </g>
    <g id="text_16">
     <!-- Annualized return ratio vs full model -->
     <g transform="translate(14.798437 267.100937) rotate(-90) scale(0.1 -0.1)">
      <defs>
       <path id="DejaVuSans-41" d="M 2188 4044 
L 1331 1722 
L 3047 1722 
L 2188 4044 
z
M 1831 4666 
L 2547 4666 
L 4325 0 
L 3669 0 
L 3244 1197 
L 1141 1197 
L 716 0 
L 50 0 
L 1831 4666 
z
" transform="scale(0.015625)"/>
       <path id="DejaVuSans-6e" d="M 3513 2113 
L 3513 0 
L 2938 0 
L 2938 2094 
Q 2938 2591 2744 2837 
Q 2550 3084 2163 3084 
Q 1697 3084 1428 2787 
Q 1159 2491 1159 1978 
L 1159 0 
L 581 0 
L 581 3500 
L 1159 3500 
L 1159 2956 
Q 1366 3272 1645 3428 
Q 1925 3584 2291 3584 
Q 2894 3584 3203 3211 
Q 3513 2838 3513 2113 
z
" transform="scale(0.015625)"/>
       <path id="DejaVuSans-61" d="M 2194 1759 
Q 1497 1759 1228 1600 
Q 959 1441 959 1056 
Q 959 750 1161 570 
Q 1363 391 1709 391 
Q 2188 391 2477 730 
Q 2766 1069 2766 1631 
L 2766 1759 
L 2194 1759 
z
M 3341 1997 
L 3341 0 
L 2766 0 
L 2766 531 
Q 2569 213 2275 61 
Q 1981 -91 1556 -91 
Q 1019 -91 701 211 
Q 384 513 384 1019 
Q 384 1609 779 1909 
Q 1175 2209 1959 2209 
L 2766 2209 
L 2766 2266 
Q 2766 2663 2505 2880 
Q 2244 3097 1772 3097 
Q 1472 3097 1187 3025 
Q 903 2953 641 2809 
L 641 3341 
Q 956 3463 1253 3523 
Q 1550 3584 1831 3584 
Q 2591 3584 2966 3190 
Q 3341 2797 3341 1997 
z
" transform="scale(0.015625)"/>
       <path id="DejaVuSans-6c" d="M 603 4863 
L 1178 4863 
L 1178 0 
L 603 0 
L 603 4863 
z
" transform="scale(0.015625)"/>
       <path id="DejaVuSans-69" d="M 603 3500 
L 1178 3500 
L 1178 0 
L 603 0 
L 603 3500 
z
M 603 4863 
L 1178 4863 
L 1178 4134 
L 603 4134 
L 603 4863 
z
" transform="scale(0.015625)"/>
       <path id="DejaVuSans-7a" d="M 353 3500 
L 3084 3500 
L 3084 2975 
L 922 459 
L 3084 459 
L 3084 0 
L 275 0 
L 275 525 
L 2438 3041 
L 353 3041 
L 353 3500 
z
" transform="scale(0.015625)"/>
       <path id="DejaVuSans-76" d="M 191 3500 
L 800 3500 
L 1894 563 
L 2988 3500 
L 3597 3500 
L 2284 0 
L 1503 0 
L 191 3500 
z
" transform="scale(0.015625)"/>
      </defs>
      <use xlink:href="#DejaVuSans-41"/>
      <use xlink:href="#DejaVuSans-6e" transform="translate(68.408203 0)"/>
      <use xlink:href="#DejaVuSans-6e" transform="translate(131.787109 0)"/>
      <use xlink:href="#DejaVuSans-75" transform="translate(195.166016 0)"/>
      <use xlink:href="#DejaVuSans-61" transform="translate(258.544922 0)"/>
      <use xlink:href="#DejaVuSans-6c" transform="translate(319.824219 0)"/>
      <use xlink:href="#DejaVuSans-69" transform="translate(347.607422 0)"/>
      <use xlink:href="#DejaVuSans-7a" transform="translate(375.390625 0)"/>
      <use xlink:href="#DejaVuSans-65" transform="translate(427.880859 0)"/>
      <use xlink:href="#DejaVuSans-64" transform="translate(489.404297 0)"/>
      <use xlink:href="#DejaVuSans-20" transform="translate(552.880859 0)"/>
      <use xlink:href="#DejaVuSans-72" transform="translate(584.667969 0)"/>
      <use xlink:href="#DejaVuSans-65" transform="translate(623.53125 0)"/>
      <use xlink:href="#DejaVuSans-74" transform="translate(685.054688 0)"/>
      <use xlink:href="#DejaVuSans-75" transform="translate(724.263672 0)"/>
      <use xlink:href="#DejaVuSans-72" transform="translate(787.642578 0)"/>
      <use xlink:href="#DejaVuSans-6e" transform="translate(827.005859 0)"/>
      <use xlink:href="#DejaVuSans-20" transform="translate(890.384766 0)"/>
      <use xlink:href="#DejaVuSans-72" transform="translate(922.171875 0)"/>
      <use xlink:href="#DejaVuSans-61" transform="translate(963.285156 0)"/>
      <use xlink:href="#DejaVuSans-74" transform="translate(1024.564453 0)"/>
      <use xlink:href="#DejaVuSans-69" transform="translate(1063.773438 0)"/>
      <use xlink:href="#DejaVuSans-6f" transform="translate(1091.556641 0)"/>
      <use xlink:href="#DejaVuSans-20" transform="translate(1152.738281 0)"/>
      <use xlink:href="#DejaVuSans-76" transform="translate(1184.525391 0)"/>
      <use xlink:href="#DejaVuSans-73" transform="translate(1243.705078 0)"/>
      <use xlink:href="#DejaVuSans-20" transform="translate(1295.804688 0)"/>
      <use xlink:href="#DejaVuSans-66" transform="translate(1327.591797 0)"/>
      <use xlink:href="#DejaVuSans-75" transform="translate(1362.796875 0)"/>
      <use xlink:href="#DejaVuSans-6c" transform="translate(1426.175781 0)"/>
      <use xlink:href="#DejaVuSans-6c" transform="translate(1453.958984 0)"/>
      <use xlink:href="#DejaVuSans-20" transform="translate(1481.742188 0)"/>
      <use xlink:href="#DejaVuSans-6d" transform="translate(1513.529297 0)"/>
      <use xlink:href="#DejaVuSans-6f" transform="translate(1610.941406 0)"/>
      <use xlink:href="#DejaVuSans-64" transform="translate(1672.123047 0)"/>
      <use xlink:href="#DejaVuSans-65" transform="translate(1735.599609 0)"/>
      <use xlink:href="#DejaVuSans-6c" transform="translate(1797.123047 0)"/>
     </g>
    </g>
   </g>
   <g id="line2d_29">
    <path d="M 68.939432 113.587512 
L 169.572159 116.300448 
L 270.204886 115.525285 
L 370.837614 125.543227 
L 471.470341 188.107591 
L 572.103068 188.610888 
" clip-path="url(#pd267ea7e4e)" style="fill: none; stroke: #1f77b4; stroke-width: 2; stroke-linecap: square"/>
    <defs>
     <path id="ma0336297a1" d="M 0 3 
C 0.795609 3 1.55874 2.683901 2.12132 2.12132 
C 2.683901 1.55874 3 0.795609 3 0 
C 3 -0.795609 2.683901 -1.55874 2.12132 -2.12132 
C 1.55874 -2.683901 0.795609 -3 0 -3 
C -0.795609 -3 -1.55874 -2.683901 -2.12132 -2.12132 
C -2.683901 -1.55874 -3 -0.795609 -3 0 
C -3 0.795609 -2.683901 1.55874 -2.12132 2.12132 
C -1.55874 2.683901 -0.795609 3 0 3 
z
" style="stroke: #1f77b4"/>
    </defs>
    <g clip-path="url(#pd267ea7e4e)">
     <use xlink:href="#ma0336297a1" x="68.939432" y="113.587512" style="fill: #1f77b4; stroke: #1f77b4"/>
     <use xlink:href="#ma0336297a1" x="169.572159" y="116.300448" style="fill: #1f77b4; stroke: #1f77b4"/>
     <use xlink:href="#ma0336297a1" x="270.204886" y="115.525285" style="fill: #1f77b4; stroke: #1f77b4"/>
     <use xlink:href="#ma0336297a1" x="370.837614" y="125.543227" style="fill: #1f77b4; stroke: #1f77b4"/>
     <use xlink:href="#ma0336297a1" x="471.470341" y="188.107591" style="fill: #1f77b4; stroke: #1f77b4"/>
     <use xlink:href="#ma0336297a1" x="572.103068" y="188.610888" style="fill: #1f77b4; stroke: #1f77b4"/>
    </g>
   </g>
   <g id="line2d_30">
    <path d="M 68.939432 188.610888 
L 169.572159 181.481644 
L 270.204886 172.027941 
L 370.837614 176.397159 
L 471.470341 113.45487 
L 572.103068 113.587512 
" clip-path="url(#pd267ea7e4e)" style="fill: none; stroke: #ff7f0e; stroke-width: 2; stroke-linecap: square"/>
    <defs>
     <path id="m505cdcca71" d="M 0 3 
C 0.795609 3 1.55874 2.683901 2.12132 2.12132 
C 2.683901 1.55874 3 0.795609 3 0 
C 3 -0.795609 2.683901 -1.55874 2.12132 -2.12132 
C 1.55874 -2.683901 0.795609 -3 0 -3 
C -0.795609 -3 -1.55874 -2.683901 -2.12132 -2.12132 
C -2.683901 -1.55874 -3 -0.795609 -3 0 
C -3 0.795609 -2.683901 1.55874 -2.12132 2.12132 
C -1.55874 2.683901 -0.795609 3 0 3 
z
" style="stroke: #ff7f0e"/>
    </defs>
    <g clip-path="url(#pd267ea7e4e)">
     <use xlink:href="#m505cdcca71" x="68.939432" y="188.610888" style="fill: #ff7f0e; stroke: #ff7f0e"/>
     <use xlink:href="#m505cdcca71" x="169.572159" y="181.481644" style="fill: #ff7f0e; stroke: #ff7f0e"/>
     <use xlink:href="#m505cdcca71" x="270.204886" y="172.027941" style="fill: #ff7f0e; stroke: #ff7f0e"/>
     <use xlink:href="#m505cdcca71" x="370.837614" y="176.397159" style="fill: #ff7f0e; stroke: #ff7f0e"/>
     <use xlink:href="#m505cdcca71" x="471.470341" y="113.45487" style="fill: #ff7f0e; stroke: #ff7f0e"/>
     <use xlink:href="#m505cdcca71" x="572.103068" y="113.587512" style="fill: #ff7f0e; stroke: #ff7f0e"/>
    </g>
   </g>
   <g id="patch_3">
    <path d="M 43.78125 328.637969 
L 43.78125 23.077969 
" style="fill: none; stroke: #000000; stroke-width: 0.8; stroke-linejoin: miter; stroke-linecap: square"/>
   </g>
   <g id="patch_4">
    <path d="M 597.26125 328.637969 
L 597.26125 23.077969 
" style="fill: none; stroke: #000000; stroke-width: 0.8; stroke-linejoin: miter; stroke-linecap: square"/>
   </g>
   <g id="patch_5">
    <path d="M 43.78125 328.637969 
L 597.26125 328.637969 
" style="fill: none; stroke: #000000; stroke-width: 0.8; stroke-linejoin: miter; stroke-linecap: square"/>
   </g>
   <g id="patch_6">
    <path d="M 43.78125 23.077969 
L 597.26125 23.077969 
" style="fill: none; stroke: #000000; stroke-width: 0.8; stroke-linejoin: miter; stroke-linecap: square"/>
   </g>
   <g id="text_17">
    <g id="patch_7">
     <path d="M 79.867429 98.421251 
L 90.576847 97.106299 
Q 91.410585 97.003929 91.308215 96.17019 
L 90.482588 89.446 
Q 90.380218 88.612262 89.546479 88.714632 
L 78.837062 90.029583 
Q 78.003323 90.131953 78.105693 90.965692 
L 78.93132 97.689882 
Q 79.03369 98.523621 79.867429 98.421251 
z
" clip-path="url(#pd267ea7e4e)" style="fill: #ffffff; opacity: 0.86"/>
    </g>
    <g clip-path="url(#pd267ea7e4e)">
     <!-- full -->
     <g style="fill: #1f77b4" transform="translate(79.587643 96.142582) rotate(-7) scale(0.07 -0.07)">
      <use xlink:href="#DejaVuSans-66"/>
      <use xlink:href="#DejaVuSans-75" transform="translate(35.205078 0)"/>
      <use xlink:href="#DejaVuSans-6c" transform="translate(98.583984 0)"/>
      <use xlink:href="#DejaVuSans-6c" transform="translate(126.367188 0)"/>
     </g>
    </g>
   </g>
   <g id="text_18">
    <g id="patch_8">
     <path d="M 180.523882 101.134187 
L 224.632789 95.718295 
Q 225.466527 95.615924 225.364157 94.782186 
L 224.514804 87.864759 
Q 224.412434 87.03102 223.578695 87.133391 
L 179.469789 92.549283 
Q 178.63605 92.651654 178.73842 93.485392 
L 179.587773 100.402819 
Q 179.690144 101.236557 180.523882 101.134187 
z
" clip-path="url(#pd267ea7e4e)" style="fill: #ffffff; opacity: 0.86"/>
    </g>
    <g clip-path="url(#pd267ea7e4e)">
     <!-- - fx_usd_pair -->
     <g style="fill: #1f77b4" transform="translate(180.220371 98.662282) rotate(-7) scale(0.07 -0.07)">
      <defs>
       <path id="DejaVuSans-2d" d="M 313 2009 
L 1997 2009 
L 1997 1497 
L 313 1497 
L 313 2009 
z
" transform="scale(0.015625)"/>
       <path id="DejaVuSans-78" d="M 3513 3500 
L 2247 1797 
L 3578 0 
L 2900 0 
L 1881 1375 
L 863 0 
L 184 0 
L 1544 1831 
L 300 3500 
L 978 3500 
L 1906 2253 
L 2834 3500 
L 3513 3500 
z
" transform="scale(0.015625)"/>
       <path id="DejaVuSans-5f" d="M 3263 -1063 
L 3263 -1509 
L -63 -1509 
L -63 -1063 
L 3263 -1063 
z
" transform="scale(0.015625)"/>
      </defs>
      <use xlink:href="#DejaVuSans-2d"/>
      <use xlink:href="#DejaVuSans-20" transform="translate(36.083984 0)"/>
      <use xlink:href="#DejaVuSans-66" transform="translate(67.871094 0)"/>
      <use xlink:href="#DejaVuSans-78" transform="translate(103.076172 0)"/>
      <use xlink:href="#DejaVuSans-5f" transform="translate(162.255859 0)"/>
      <use xlink:href="#DejaVuSans-75" transform="translate(212.255859 0)"/>
      <use xlink:href="#DejaVuSans-73" transform="translate(275.634766 0)"/>
      <use xlink:href="#DejaVuSans-64" transform="translate(327.734375 0)"/>
      <use xlink:href="#DejaVuSans-5f" transform="translate(391.210938 0)"/>
      <use xlink:href="#DejaVuSans-70" transform="translate(441.210938 0)"/>
      <use xlink:href="#DejaVuSans-61" transform="translate(504.6875 0)"/>
      <use xlink:href="#DejaVuSans-69" transform="translate(565.966797 0)"/>
      <use xlink:href="#DejaVuSans-72" transform="translate(593.75 0)"/>
     </g>
    </g>
   </g>
   <g id="text_19">
    <g id="patch_9">
     <path d="M 281.15661 100.359024 
L 354.635267 91.336979 
Q 355.469005 91.234609 355.366635 90.40087 
L 354.517282 83.483444 
Q 354.414912 82.649705 353.581173 82.752076 
L 280.102516 91.77412 
Q 279.268777 91.87649 279.371148 92.710229 
L 280.220501 99.627656 
Q 280.322871 100.461394 281.15661 100.359024 
z
" clip-path="url(#pd267ea7e4e)" style="fill: #ffffff; opacity: 0.86"/>
    </g>
    <g clip-path="url(#pd267ea7e4e)">
     <!-- - equity_index_future -->
     <g style="fill: #1f77b4" transform="translate(280.853098 97.887119) rotate(-7) scale(0.07 -0.07)">
      <defs>
       <path id="DejaVuSans-71" d="M 947 1747 
Q 947 1113 1208 752 
Q 1469 391 1925 391 
Q 2381 391 2643 752 
Q 2906 1113 2906 1747 
Q 2906 2381 2643 2742 
Q 2381 3103 1925 3103 
Q 1469 3103 1208 2742 
Q 947 2381 947 1747 
z
M 2906 525 
Q 2725 213 2448 61 
Q 2172 -91 1784 -91 
Q 1150 -91 751 415 
Q 353 922 353 1747 
Q 353 2572 751 3078 
Q 1150 3584 1784 3584 
Q 2172 3584 2448 3432 
Q 2725 3281 2906 2969 
L 2906 3500 
L 3481 3500 
L 3481 -1331 
L 2906 -1331 
L 2906 525 
z
" transform="scale(0.015625)"/>
       <path id="DejaVuSans-79" d="M 2059 -325 
Q 1816 -950 1584 -1140 
Q 1353 -1331 966 -1331 
L 506 -1331 
L 506 -850 
L 844 -850 
Q 1081 -850 1212 -737 
Q 1344 -625 1503 -206 
L 1606 56 
L 191 3500 
L 800 3500 
L 1894 763 
L 2988 3500 
L 3597 3500 
L 2059 -325 
z
" transform="scale(0.015625)"/>
      </defs>
      <use xlink:href="#DejaVuSans-2d"/>
      <use xlink:href="#DejaVuSans-20" transform="translate(36.083984 0)"/>
      <use xlink:href="#DejaVuSans-65" transform="translate(67.871094 0)"/>
      <use xlink:href="#DejaVuSans-71" transform="translate(129.394531 0)"/>
      <use xlink:href="#DejaVuSans-75" transform="translate(192.871094 0)"/>
      <use xlink:href="#DejaVuSans-69" transform="translate(256.25 0)"/>
      <use xlink:href="#DejaVuSans-74" transform="translate(284.033203 0)"/>
      <use xlink:href="#DejaVuSans-79" transform="translate(323.242188 0)"/>
      <use xlink:href="#DejaVuSans-5f" transform="translate(382.421875 0)"/>
      <use xlink:href="#DejaVuSans-69" transform="translate(432.421875 0)"/>
      <use xlink:href="#DejaVuSans-6e" transform="translate(460.205078 0)"/>
      <use xlink:href="#DejaVuSans-64" transform="translate(523.583984 0)"/>
      <use xlink:href="#DejaVuSans-65" transform="translate(587.060547 0)"/>
      <use xlink:href="#DejaVuSans-78" transform="translate(646.833984 0)"/>
      <use xlink:href="#DejaVuSans-5f" transform="translate(706.013672 0)"/>
      <use xlink:href="#DejaVuSans-66" transform="translate(756.013672 0)"/>
      <use xlink:href="#DejaVuSans-75" transform="translate(791.21875 0)"/>
      <use xlink:href="#DejaVuSans-74" transform="translate(854.597656 0)"/>
      <use xlink:href="#DejaVuSans-75" transform="translate(893.806641 0)"/>
      <use xlink:href="#DejaVuSans-72" transform="translate(957.185547 0)"/>
      <use xlink:href="#DejaVuSans-65" transform="translate(996.048828 0)"/>
     </g>
    </g>
   </g>
   <g id="text_20">
    <g id="patch_10">
     <path d="M 381.789337 110.376966 
L 439.580027 103.281161 
Q 440.413765 103.178791 440.311395 102.345052 
L 439.462042 95.427626 
Q 439.359672 94.593887 438.525933 94.696257 
L 380.735243 101.792062 
Q 379.901505 101.894432 380.003875 102.728171 
L 380.853228 109.645597 
Q 380.955598 110.479336 381.789337 110.376966 
z
" clip-path="url(#pd267ea7e4e)" style="fill: #ffffff; opacity: 0.86"/>
    </g>
    <g clip-path="url(#pd267ea7e4e)">
     <!-- - portfolio_signal -->
     <g style="fill: #1f77b4" transform="translate(381.485825 107.905061) rotate(-7) scale(0.07 -0.07)">
      <use xlink:href="#DejaVuSans-2d"/>
      <use xlink:href="#DejaVuSans-20" transform="translate(36.083984 0)"/>
      <use xlink:href="#DejaVuSans-70" transform="translate(67.871094 0)"/>
      <use xlink:href="#DejaVuSans-6f" transform="translate(131.347656 0)"/>
      <use xlink:href="#DejaVuSans-72" transform="translate(192.529297 0)"/>
      <use xlink:href="#DejaVuSans-74" transform="translate(233.642578 0)"/>
      <use xlink:href="#DejaVuSans-66" transform="translate(272.851562 0)"/>
      <use xlink:href="#DejaVuSans-6f" transform="translate(308.056641 0)"/>
      <use xlink:href="#DejaVuSans-6c" transform="translate(369.238281 0)"/>
      <use xlink:href="#DejaVuSans-69" transform="translate(397.021484 0)"/>
      <use xlink:href="#DejaVuSans-6f" transform="translate(424.804688 0)"/>
      <use xlink:href="#DejaVuSans-5f" transform="translate(485.986328 0)"/>
      <use xlink:href="#DejaVuSans-73" transform="translate(535.986328 0)"/>
      <use xlink:href="#DejaVuSans-69" transform="translate(588.085938 0)"/>
      <use xlink:href="#DejaVuSans-67" transform="translate(615.869141 0)"/>
      <use xlink:href="#DejaVuSans-6e" transform="translate(679.345703 0)"/>
      <use xlink:href="#DejaVuSans-61" transform="translate(742.724609 0)"/>
      <use xlink:href="#DejaVuSans-6c" transform="translate(804.003906 0)"/>
     </g>
    </g>
   </g>
   <g id="text_21">
    <g id="patch_11">
     <path d="M 482.422064 172.941329 
L 518.119762 168.558203 
Q 518.953501 168.455833 518.851131 167.622094 
L 518.001777 160.704668 
Q 517.899407 159.870929 517.065668 159.973299 
L 481.367971 164.356426 
Q 480.534232 164.458796 480.636602 165.292535 
L 481.485955 172.209961 
Q 481.588326 173.0437 482.422064 172.941329 
z
" clip-path="url(#pd267ea7e4e)" style="fill: #ffffff; opacity: 0.86"/>
    </g>
    <g clip-path="url(#pd267ea7e4e)">
     <!-- - fx_future -->
     <g style="fill: #1f77b4" transform="translate(482.118553 170.469424) rotate(-7) scale(0.07 -0.07)">
      <use xlink:href="#DejaVuSans-2d"/>
      <use xlink:href="#DejaVuSans-20" transform="translate(36.083984 0)"/>
      <use xlink:href="#DejaVuSans-66" transform="translate(67.871094 0)"/>
      <use xlink:href="#DejaVuSans-78" transform="translate(103.076172 0)"/>
      <use xlink:href="#DejaVuSans-5f" transform="translate(162.255859 0)"/>
      <use xlink:href="#DejaVuSans-66" transform="translate(212.255859 0)"/>
      <use xlink:href="#DejaVuSans-75" transform="translate(247.460938 0)"/>
      <use xlink:href="#DejaVuSans-74" transform="translate(310.839844 0)"/>
      <use xlink:href="#DejaVuSans-75" transform="translate(350.048828 0)"/>
      <use xlink:href="#DejaVuSans-72" transform="translate(413.427734 0)"/>
      <use xlink:href="#DejaVuSans-65" transform="translate(452.291016 0)"/>
     </g>
    </g>
   </g>
   <g id="text_22">
    <g id="patch_12">
     <path d="M 513.169006 218.38297 
L 562.205438 212.362054 
Q 563.039177 212.259683 562.936807 211.425945 
L 562.087454 204.508518 
Q 561.985084 203.674779 561.151345 203.77715 
L 512.114912 209.798067 
Q 511.281174 209.900437 511.383544 210.734176 
L 512.232897 217.651602 
Q 512.335267 218.485341 513.169006 218.38297 
z
" clip-path="url(#pd267ea7e4e)" style="fill: #ffffff; opacity: 0.86"/>
    </g>
    <g clip-path="url(#pd267ea7e4e)">
     <!-- - jpy_bond_etf -->
     <g style="fill: #1f77b4" transform="translate(512.865494 215.911065) rotate(-7) scale(0.07 -0.07)">
      <defs>
       <path id="DejaVuSans-6a" d="M 603 3500 
L 1178 3500 
L 1178 -63 
Q 1178 -731 923 -1031 
Q 669 -1331 103 -1331 
L -116 -1331 
L -116 -844 
L 38 -844 
Q 366 -844 484 -692 
Q 603 -541 603 -63 
L 603 3500 
z
M 603 4863 
L 1178 4863 
L 1178 4134 
L 603 4134 
L 603 4863 
z
" transform="scale(0.015625)"/>
      </defs>
      <use xlink:href="#DejaVuSans-2d"/>
      <use xlink:href="#DejaVuSans-20" transform="translate(36.083984 0)"/>
      <use xlink:href="#DejaVuSans-6a" transform="translate(67.871094 0)"/>
      <use xlink:href="#DejaVuSans-70" transform="translate(95.654297 0)"/>
      <use xlink:href="#DejaVuSans-79" transform="translate(159.130859 0)"/>
      <use xlink:href="#DejaVuSans-5f" transform="translate(218.310547 0)"/>
      <use xlink:href="#DejaVuSans-62" transform="translate(268.310547 0)"/>
      <use xlink:href="#DejaVuSans-6f" transform="translate(331.787109 0)"/>
      <use xlink:href="#DejaVuSans-6e" transform="translate(392.96875 0)"/>
      <use xlink:href="#DejaVuSans-64" transform="translate(456.347656 0)"/>
      <use xlink:href="#DejaVuSans-5f" transform="translate(519.824219 0)"/>
      <use xlink:href="#DejaVuSans-65" transform="translate(569.824219 0)"/>
      <use xlink:href="#DejaVuSans-74" transform="translate(631.347656 0)"/>
      <use xlink:href="#DejaVuSans-66" transform="translate(670.556641 0)"/>
     </g>
    </g>
   </g>
   <g id="text_23">
    <g id="patch_13">
     <path d="M 79.867429 214.876564 
L 101.920253 212.168817 
Q 102.753992 212.066447 102.651622 211.232708 
L 101.825995 204.508518 
Q 101.723625 203.674779 100.889886 203.77715 
L 78.837062 206.484896 
Q 78.003323 206.587266 78.105693 207.421005 
L 78.93132 214.145195 
Q 79.03369 214.978934 79.867429 214.876564 
z
" clip-path="url(#pd267ea7e4e)" style="fill: #ffffff; opacity: 0.86"/>
    </g>
    <g clip-path="url(#pd267ea7e4e)">
     <!-- full - 5 -->
     <g style="fill: #ff7f0e" transform="translate(79.587643 212.597895) rotate(-7) scale(0.07 -0.07)">
      <use xlink:href="#DejaVuSans-66"/>
      <use xlink:href="#DejaVuSans-75" transform="translate(35.205078 0)"/>
      <use xlink:href="#DejaVuSans-6c" transform="translate(98.583984 0)"/>
      <use xlink:href="#DejaVuSans-6c" transform="translate(126.367188 0)"/>
      <use xlink:href="#DejaVuSans-20" transform="translate(154.150391 0)"/>
      <use xlink:href="#DejaVuSans-2d" transform="translate(185.9375 0)"/>
      <use xlink:href="#DejaVuSans-20" transform="translate(222.021484 0)"/>
      <use xlink:href="#DejaVuSans-35" transform="translate(253.808594 0)"/>
     </g>
    </g>
   </g>
   <g id="text_24">
    <g id="patch_14">
     <path d="M 180.523882 211.055784 
L 227.948203 205.232809 
Q 228.781942 205.130439 228.679571 204.2967 
L 227.830218 197.379274 
Q 227.727848 196.545535 226.894109 196.647906 
L 179.469789 202.47088 
Q 178.63605 202.57325 178.73842 203.406989 
L 179.587773 210.324415 
Q 179.690144 211.158154 180.523882 211.055784 
z
" clip-path="url(#pd267ea7e4e)" style="fill: #ffffff; opacity: 0.86"/>
    </g>
    <g clip-path="url(#pd267ea7e4e)">
     <!-- + fx_usd_pair -->
     <g style="fill: #ff7f0e" transform="translate(180.220371 208.583879) rotate(-7) scale(0.07 -0.07)">
      <defs>
       <path id="DejaVuSans-2b" d="M 2944 4013 
L 2944 2272 
L 4684 2272 
L 4684 1741 
L 2944 1741 
L 2944 0 
L 2419 0 
L 2419 1741 
L 678 1741 
L 678 2272 
L 2419 2272 
L 2419 4013 
L 2944 4013 
z
" transform="scale(0.015625)"/>
      </defs>
      <use xlink:href="#DejaVuSans-2b"/>
      <use xlink:href="#DejaVuSans-20" transform="translate(83.789062 0)"/>
      <use xlink:href="#DejaVuSans-66" transform="translate(115.576172 0)"/>
      <use xlink:href="#DejaVuSans-78" transform="translate(150.78125 0)"/>
      <use xlink:href="#DejaVuSans-5f" transform="translate(209.960938 0)"/>
      <use xlink:href="#DejaVuSans-75" transform="translate(259.960938 0)"/>
      <use xlink:href="#DejaVuSans-73" transform="translate(323.339844 0)"/>
      <use xlink:href="#DejaVuSans-64" transform="translate(375.439453 0)"/>
      <use xlink:href="#DejaVuSans-5f" transform="translate(438.916016 0)"/>
      <use xlink:href="#DejaVuSans-70" transform="translate(488.916016 0)"/>
      <use xlink:href="#DejaVuSans-61" transform="translate(552.392578 0)"/>
      <use xlink:href="#DejaVuSans-69" transform="translate(613.671875 0)"/>
      <use xlink:href="#DejaVuSans-72" transform="translate(641.455078 0)"/>
     </g>
    </g>
   </g>
   <g id="text_25">
    <g id="patch_15">
     <path d="M 281.15661 205.208232 
L 357.950681 195.779106 
Q 358.78442 195.676735 358.682049 194.842997 
L 357.832696 187.92557 
Q 357.730326 187.091832 356.896587 187.194202 
L 280.102516 196.623328 
Q 279.268777 196.725698 279.371148 197.559437 
L 280.220501 204.476864 
Q 280.322871 205.310602 281.15661 205.208232 
z
" clip-path="url(#pd267ea7e4e)" style="fill: #ffffff; opacity: 0.86"/>
    </g>
    <g clip-path="url(#pd267ea7e4e)">
     <!-- + equity_index_future -->
     <g style="fill: #ff7f0e" transform="translate(280.853098 202.736327) rotate(-7) scale(0.07 -0.07)">
      <use xlink:href="#DejaVuSans-2b"/>
      <use xlink:href="#DejaVuSans-20" transform="translate(83.789062 0)"/>
      <use xlink:href="#DejaVuSans-65" transform="translate(115.576172 0)"/>
      <use xlink:href="#DejaVuSans-71" transform="translate(177.099609 0)"/>
      <use xlink:href="#DejaVuSans-75" transform="translate(240.576172 0)"/>
      <use xlink:href="#DejaVuSans-69" transform="translate(303.955078 0)"/>
      <use xlink:href="#DejaVuSans-74" transform="translate(331.738281 0)"/>
      <use xlink:href="#DejaVuSans-79" transform="translate(370.947266 0)"/>
      <use xlink:href="#DejaVuSans-5f" transform="translate(430.126953 0)"/>
      <use xlink:href="#DejaVuSans-69" transform="translate(480.126953 0)"/>
      <use xlink:href="#DejaVuSans-6e" transform="translate(507.910156 0)"/>
      <use xlink:href="#DejaVuSans-64" transform="translate(571.289062 0)"/>
      <use xlink:href="#DejaVuSans-65" transform="translate(634.765625 0)"/>
      <use xlink:href="#DejaVuSans-78" transform="translate(694.539062 0)"/>
      <use xlink:href="#DejaVuSans-5f" transform="translate(753.71875 0)"/>
      <use xlink:href="#DejaVuSans-66" transform="translate(803.71875 0)"/>
      <use xlink:href="#DejaVuSans-75" transform="translate(838.923828 0)"/>
      <use xlink:href="#DejaVuSans-74" transform="translate(902.302734 0)"/>
      <use xlink:href="#DejaVuSans-75" transform="translate(941.511719 0)"/>
      <use xlink:href="#DejaVuSans-72" transform="translate(1004.890625 0)"/>
      <use xlink:href="#DejaVuSans-65" transform="translate(1043.753906 0)"/>
     </g>
    </g>
   </g>
   <g id="text_26">
    <g id="patch_16">
     <path d="M 381.789337 207.65121 
L 442.895441 200.148324 
Q 443.72918 200.045953 443.626809 199.212215 
L 442.777456 192.294788 
Q 442.675086 191.46105 441.841347 191.56342 
L 380.735243 199.066306 
Q 379.901505 199.168676 380.003875 200.002415 
L 380.853228 206.919841 
Q 380.955598 207.75358 381.789337 207.65121 
z
" clip-path="url(#pd267ea7e4e)" style="fill: #ffffff; opacity: 0.86"/>
    </g>
    <g clip-path="url(#pd267ea7e4e)">
     <!-- + portfolio_signal -->
     <g style="fill: #ff7f0e" transform="translate(381.485825 205.179305) rotate(-7) scale(0.07 -0.07)">
      <use xlink:href="#DejaVuSans-2b"/>
      <use xlink:href="#DejaVuSans-20" transform="translate(83.789062 0)"/>
      <use xlink:href="#DejaVuSans-70" transform="translate(115.576172 0)"/>
      <use xlink:href="#DejaVuSans-6f" transform="translate(179.052734 0)"/>
      <use xlink:href="#DejaVuSans-72" transform="translate(240.234375 0)"/>
      <use xlink:href="#DejaVuSans-74" transform="translate(281.347656 0)"/>
      <use xlink:href="#DejaVuSans-66" transform="translate(320.556641 0)"/>
      <use xlink:href="#DejaVuSans-6f" transform="translate(355.761719 0)"/>
      <use xlink:href="#DejaVuSans-6c" transform="translate(416.943359 0)"/>
      <use xlink:href="#DejaVuSans-69" transform="translate(444.726562 0)"/>
      <use xlink:href="#DejaVuSans-6f" transform="translate(472.509766 0)"/>
      <use xlink:href="#DejaVuSans-5f" transform="translate(533.691406 0)"/>
      <use xlink:href="#DejaVuSans-73" transform="translate(583.691406 0)"/>
      <use xlink:href="#DejaVuSans-69" transform="translate(635.791016 0)"/>
      <use xlink:href="#DejaVuSans-67" transform="translate(663.574219 0)"/>
      <use xlink:href="#DejaVuSans-6e" transform="translate(727.050781 0)"/>
      <use xlink:href="#DejaVuSans-61" transform="translate(790.429688 0)"/>
      <use xlink:href="#DejaVuSans-6c" transform="translate(851.708984 0)"/>
     </g>
    </g>
   </g>
   <g id="text_27">
    <g id="patch_17">
     <path d="M 482.422064 141.996243 
L 521.435176 137.206035 
Q 522.268915 137.103665 522.166545 136.269926 
L 521.317192 129.3525 
Q 521.214822 128.518761 520.381083 128.621131 
L 481.367971 133.411339 
Q 480.534232 133.513709 480.636602 134.347448 
L 481.485955 141.264875 
Q 481.588326 142.098613 482.422064 141.996243 
z
" clip-path="url(#pd267ea7e4e)" style="fill: #ffffff; opacity: 0.86"/>
    </g>
    <g clip-path="url(#pd267ea7e4e)">
     <!-- + fx_future -->
     <g style="fill: #ff7f0e" transform="translate(482.118553 139.524338) rotate(-7) scale(0.07 -0.07)">
      <use xlink:href="#DejaVuSans-2b"/>
      <use xlink:href="#DejaVuSans-20" transform="translate(83.789062 0)"/>
      <use xlink:href="#DejaVuSans-66" transform="translate(115.576172 0)"/>
      <use xlink:href="#DejaVuSans-78" transform="translate(150.78125 0)"/>
      <use xlink:href="#DejaVuSans-5f" transform="translate(209.960938 0)"/>
      <use xlink:href="#DejaVuSans-66" transform="translate(259.960938 0)"/>
      <use xlink:href="#DejaVuSans-75" transform="translate(295.166016 0)"/>
      <use xlink:href="#DejaVuSans-74" transform="translate(358.544922 0)"/>
      <use xlink:href="#DejaVuSans-75" transform="translate(397.753906 0)"/>
      <use xlink:href="#DejaVuSans-72" transform="translate(461.132812 0)"/>
      <use xlink:href="#DejaVuSans-65" transform="translate(499.996094 0)"/>
     </g>
    </g>
   </g>
   <g id="text_28">
    <g id="patch_18">
     <path d="M 509.853592 98.421251 
L 562.205438 91.993252 
Q 563.039177 91.890882 562.936807 91.057143 
L 562.087454 84.139717 
Q 561.985084 83.305978 561.151345 83.408348 
L 508.799498 89.836347 
Q 507.965759 89.938717 508.068129 90.772456 
L 508.917483 97.689882 
Q 509.019853 98.523621 509.853592 98.421251 
z
" clip-path="url(#pd267ea7e4e)" style="fill: #ffffff; opacity: 0.86"/>
    </g>
    <g clip-path="url(#pd267ea7e4e)">
     <!-- + jpy_bond_etf -->
     <g style="fill: #ff7f0e" transform="translate(509.55008 95.949345) rotate(-7) scale(0.07 -0.07)">
      <use xlink:href="#DejaVuSans-2b"/>
      <use xlink:href="#DejaVuSans-20" transform="translate(83.789062 0)"/>
      <use xlink:href="#DejaVuSans-6a" transform="translate(115.576172 0)"/>
      <use xlink:href="#DejaVuSans-70" transform="translate(143.359375 0)"/>
      <use xlink:href="#DejaVuSans-79" transform="translate(206.835938 0)"/>
      <use xlink:href="#DejaVuSans-5f" transform="translate(266.015625 0)"/>
      <use xlink:href="#DejaVuSans-62" transform="translate(316.015625 0)"/>
      <use xlink:href="#DejaVuSans-6f" transform="translate(379.492188 0)"/>
      <use xlink:href="#DejaVuSans-6e" transform="translate(440.673828 0)"/>
      <use xlink:href="#DejaVuSans-64" transform="translate(504.052734 0)"/>
      <use xlink:href="#DejaVuSans-5f" transform="translate(567.529297 0)"/>
      <use xlink:href="#DejaVuSans-65" transform="translate(617.529297 0)"/>
      <use xlink:href="#DejaVuSans-74" transform="translate(679.052734 0)"/>
      <use xlink:href="#DejaVuSans-66" transform="translate(718.261719 0)"/>
     </g>
    </g>
   </g>
   <g id="text_29">
    <!-- Deletion/insertion sanity check vs full model -->
    <g transform="translate(157.131562 17.077969) scale(0.13 -0.13)">
     <defs>
      <path id="DejaVuSans-Bold-44" d="M 1791 3756 
L 1791 909 
L 2222 909 
Q 2959 909 3348 1275 
Q 3738 1641 3738 2338 
Q 3738 3031 3350 3393 
Q 2963 3756 2222 3756 
L 1791 3756 
z
M 588 4666 
L 1856 4666 
Q 2919 4666 3439 4514 
Q 3959 4363 4331 4000 
Q 4659 3684 4818 3271 
Q 4978 2859 4978 2338 
Q 4978 1809 4818 1395 
Q 4659 981 4331 666 
Q 3956 303 3431 151 
Q 2906 0 1856 0 
L 588 0 
L 588 4666 
z
" transform="scale(0.015625)"/>
      <path id="DejaVuSans-Bold-65" d="M 4031 1759 
L 4031 1441 
L 1416 1441 
Q 1456 1047 1700 850 
Q 1944 653 2381 653 
Q 2734 653 3104 758 
Q 3475 863 3866 1075 
L 3866 213 
Q 3469 63 3072 -14 
Q 2675 -91 2278 -91 
Q 1328 -91 801 392 
Q 275 875 275 1747 
Q 275 2603 792 3093 
Q 1309 3584 2216 3584 
Q 3041 3584 3536 3087 
Q 4031 2591 4031 1759 
z
M 2881 2131 
Q 2881 2450 2695 2645 
Q 2509 2841 2209 2841 
Q 1884 2841 1681 2658 
Q 1478 2475 1428 2131 
L 2881 2131 
z
" transform="scale(0.015625)"/>
      <path id="DejaVuSans-Bold-6c" d="M 538 4863 
L 1656 4863 
L 1656 0 
L 538 0 
L 538 4863 
z
" transform="scale(0.015625)"/>
      <path id="DejaVuSans-Bold-74" d="M 1759 4494 
L 1759 3500 
L 2913 3500 
L 2913 2700 
L 1759 2700 
L 1759 1216 
Q 1759 972 1856 886 
Q 1953 800 2241 800 
L 2816 800 
L 2816 0 
L 1856 0 
Q 1194 0 917 276 
Q 641 553 641 1216 
L 641 2700 
L 84 2700 
L 84 3500 
L 641 3500 
L 641 4494 
L 1759 4494 
z
" transform="scale(0.015625)"/>
      <path id="DejaVuSans-Bold-69" d="M 538 3500 
L 1656 3500 
L 1656 0 
L 538 0 
L 538 3500 
z
M 538 4863 
L 1656 4863 
L 1656 3950 
L 538 3950 
L 538 4863 
z
" transform="scale(0.015625)"/>
      <path id="DejaVuSans-Bold-6f" d="M 2203 2784 
Q 1831 2784 1636 2517 
Q 1441 2250 1441 1747 
Q 1441 1244 1636 976 
Q 1831 709 2203 709 
Q 2569 709 2762 976 
Q 2956 1244 2956 1747 
Q 2956 2250 2762 2517 
Q 2569 2784 2203 2784 
z
M 2203 3584 
Q 3106 3584 3614 3096 
Q 4122 2609 4122 1747 
Q 4122 884 3614 396 
Q 3106 -91 2203 -91 
Q 1297 -91 786 396 
Q 275 884 275 1747 
Q 275 2609 786 3096 
Q 1297 3584 2203 3584 
z
" transform="scale(0.015625)"/>
      <path id="DejaVuSans-Bold-6e" d="M 4056 2131 
L 4056 0 
L 2931 0 
L 2931 347 
L 2931 1631 
Q 2931 2084 2911 2256 
Q 2891 2428 2841 2509 
Q 2775 2619 2662 2680 
Q 2550 2741 2406 2741 
Q 2056 2741 1856 2470 
Q 1656 2200 1656 1722 
L 1656 0 
L 538 0 
L 538 3500 
L 1656 3500 
L 1656 2988 
Q 1909 3294 2193 3439 
Q 2478 3584 2822 3584 
Q 3428 3584 3742 3212 
Q 4056 2841 4056 2131 
z
" transform="scale(0.015625)"/>
      <path id="DejaVuSans-Bold-2f" d="M 1644 4666 
L 2338 4666 
L 691 -594 
L 0 -594 
L 1644 4666 
z
" transform="scale(0.015625)"/>
      <path id="DejaVuSans-Bold-73" d="M 3272 3391 
L 3272 2541 
Q 2913 2691 2578 2766 
Q 2244 2841 1947 2841 
Q 1628 2841 1473 2761 
Q 1319 2681 1319 2516 
Q 1319 2381 1436 2309 
Q 1553 2238 1856 2203 
L 2053 2175 
Q 2913 2066 3209 1816 
Q 3506 1566 3506 1031 
Q 3506 472 3093 190 
Q 2681 -91 1863 -91 
Q 1516 -91 1145 -36 
Q 775 19 384 128 
L 384 978 
Q 719 816 1070 734 
Q 1422 653 1784 653 
Q 2113 653 2278 743 
Q 2444 834 2444 1013 
Q 2444 1163 2330 1236 
Q 2216 1309 1875 1350 
L 1678 1375 
Q 931 1469 631 1722 
Q 331 1975 331 2491 
Q 331 3047 712 3315 
Q 1094 3584 1881 3584 
Q 2191 3584 2531 3537 
Q 2872 3491 3272 3391 
z
" transform="scale(0.015625)"/>
      <path id="DejaVuSans-Bold-72" d="M 3138 2547 
Q 2991 2616 2845 2648 
Q 2700 2681 2553 2681 
Q 2122 2681 1889 2404 
Q 1656 2128 1656 1613 
L 1656 0 
L 538 0 
L 538 3500 
L 1656 3500 
L 1656 2925 
Q 1872 3269 2151 3426 
Q 2431 3584 2822 3584 
Q 2878 3584 2943 3579 
Q 3009 3575 3134 3559 
L 3138 2547 
z
" transform="scale(0.015625)"/>
      <path id="DejaVuSans-Bold-20" transform="scale(0.015625)"/>
      <path id="DejaVuSans-Bold-61" d="M 2106 1575 
Q 1756 1575 1579 1456 
Q 1403 1338 1403 1106 
Q 1403 894 1545 773 
Q 1688 653 1941 653 
Q 2256 653 2472 879 
Q 2688 1106 2688 1447 
L 2688 1575 
L 2106 1575 
z
M 3816 1997 
L 3816 0 
L 2688 0 
L 2688 519 
Q 2463 200 2181 54 
Q 1900 -91 1497 -91 
Q 953 -91 614 226 
Q 275 544 275 1050 
Q 275 1666 698 1953 
Q 1122 2241 2028 2241 
L 2688 2241 
L 2688 2328 
Q 2688 2594 2478 2717 
Q 2269 2841 1825 2841 
Q 1466 2841 1156 2769 
Q 847 2697 581 2553 
L 581 3406 
Q 941 3494 1303 3539 
Q 1666 3584 2028 3584 
Q 2975 3584 3395 3211 
Q 3816 2838 3816 1997 
z
" transform="scale(0.015625)"/>
      <path id="DejaVuSans-Bold-79" d="M 78 3500 
L 1197 3500 
L 2138 1125 
L 2938 3500 
L 4056 3500 
L 2584 -331 
Q 2363 -916 2067 -1148 
Q 1772 -1381 1288 -1381 
L 641 -1381 
L 641 -647 
L 991 -647 
Q 1275 -647 1404 -556 
Q 1534 -466 1606 -231 
L 1638 -134 
L 78 3500 
z
" transform="scale(0.015625)"/>
      <path id="DejaVuSans-Bold-63" d="M 3366 3391 
L 3366 2478 
Q 3138 2634 2908 2709 
Q 2678 2784 2431 2784 
Q 1963 2784 1702 2511 
Q 1441 2238 1441 1747 
Q 1441 1256 1702 982 
Q 1963 709 2431 709 
Q 2694 709 2930 787 
Q 3166 866 3366 1019 
L 3366 103 
Q 3103 6 2833 -42 
Q 2563 -91 2291 -91 
Q 1344 -91 809 395 
Q 275 881 275 1747 
Q 275 2613 809 3098 
Q 1344 3584 2291 3584 
Q 2566 3584 2833 3536 
Q 3100 3488 3366 3391 
z
" transform="scale(0.015625)"/>
      <path id="DejaVuSans-Bold-68" d="M 4056 2131 
L 4056 0 
L 2931 0 
L 2931 347 
L 2931 1625 
Q 2931 2084 2911 2256 
Q 2891 2428 2841 2509 
Q 2775 2619 2662 2680 
Q 2550 2741 2406 2741 
Q 2056 2741 1856 2470 
Q 1656 2200 1656 1722 
L 1656 0 
L 538 0 
L 538 4863 
L 1656 4863 
L 1656 2988 
Q 1909 3294 2193 3439 
Q 2478 3584 2822 3584 
Q 3428 3584 3742 3212 
Q 4056 2841 4056 2131 
z
" transform="scale(0.015625)"/>
      <path id="DejaVuSans-Bold-6b" d="M 538 4863 
L 1656 4863 
L 1656 2216 
L 2944 3500 
L 4244 3500 
L 2534 1894 
L 4378 0 
L 3022 0 
L 1656 1459 
L 1656 0 
L 538 0 
L 538 4863 
z
" transform="scale(0.015625)"/>
      <path id="DejaVuSans-Bold-76" d="M 97 3500 
L 1216 3500 
L 2088 1081 
L 2956 3500 
L 4078 3500 
L 2700 0 
L 1472 0 
L 97 3500 
z
" transform="scale(0.015625)"/>
      <path id="DejaVuSans-Bold-66" d="M 2841 4863 
L 2841 4128 
L 2222 4128 
Q 1984 4128 1890 4042 
Q 1797 3956 1797 3744 
L 1797 3500 
L 2753 3500 
L 2753 2700 
L 1797 2700 
L 1797 0 
L 678 0 
L 678 2700 
L 122 2700 
L 122 3500 
L 678 3500 
L 678 3744 
Q 678 4316 997 4589 
Q 1316 4863 1984 4863 
L 2841 4863 
z
" transform="scale(0.015625)"/>
      <path id="DejaVuSans-Bold-75" d="M 500 1363 
L 500 3500 
L 1625 3500 
L 1625 3150 
Q 1625 2866 1622 2436 
Q 1619 2006 1619 1863 
Q 1619 1441 1641 1255 
Q 1663 1069 1716 984 
Q 1784 875 1895 815 
Q 2006 756 2150 756 
Q 2500 756 2700 1025 
Q 2900 1294 2900 1772 
L 2900 3500 
L 4019 3500 
L 4019 0 
L 2900 0 
L 2900 506 
Q 2647 200 2364 54 
Q 2081 -91 1741 -91 
Q 1134 -91 817 281 
Q 500 653 500 1363 
z
" transform="scale(0.015625)"/>
      <path id="DejaVuSans-Bold-6d" d="M 3781 2919 
Q 3994 3244 4286 3414 
Q 4578 3584 4928 3584 
Q 5531 3584 5847 3212 
Q 6163 2841 6163 2131 
L 6163 0 
L 5038 0 
L 5038 1825 
Q 5041 1866 5042 1909 
Q 5044 1953 5044 2034 
Q 5044 2406 4934 2573 
Q 4825 2741 4581 2741 
Q 4263 2741 4089 2478 
Q 3916 2216 3909 1719 
L 3909 0 
L 2784 0 
L 2784 1825 
Q 2784 2406 2684 2573 
Q 2584 2741 2328 2741 
Q 2006 2741 1831 2477 
Q 1656 2213 1656 1722 
L 1656 0 
L 531 0 
L 531 3500 
L 1656 3500 
L 1656 2988 
Q 1863 3284 2130 3434 
Q 2397 3584 2719 3584 
Q 3081 3584 3359 3409 
Q 3638 3234 3781 2919 
z
" transform="scale(0.015625)"/>
      <path id="DejaVuSans-Bold-64" d="M 2919 2988 
L 2919 4863 
L 4044 4863 
L 4044 0 
L 2919 0 
L 2919 506 
Q 2688 197 2409 53 
Q 2131 -91 1766 -91 
Q 1119 -91 703 423 
Q 288 938 288 1747 
Q 288 2556 703 3070 
Q 1119 3584 1766 3584 
Q 2128 3584 2408 3439 
Q 2688 3294 2919 2988 
z
M 2181 722 
Q 2541 722 2730 984 
Q 2919 1247 2919 1747 
Q 2919 2247 2730 2509 
Q 2541 2772 2181 2772 
Q 1825 2772 1636 2509 
Q 1447 2247 1447 1747 
Q 1447 1247 1636 984 
Q 1825 722 2181 722 
z
" transform="scale(0.015625)"/>
     </defs>
     <use xlink:href="#DejaVuSans-Bold-44"/>
     <use xlink:href="#DejaVuSans-Bold-65" transform="translate(83.007812 0)"/>
     <use xlink:href="#DejaVuSans-Bold-6c" transform="translate(150.830078 0)"/>
     <use xlink:href="#DejaVuSans-Bold-65" transform="translate(185.107422 0)"/>
     <use xlink:href="#DejaVuSans-Bold-74" transform="translate(252.929688 0)"/>
     <use xlink:href="#DejaVuSans-Bold-69" transform="translate(300.732422 0)"/>
     <use xlink:href="#DejaVuSans-Bold-6f" transform="translate(335.009766 0)"/>
     <use xlink:href="#DejaVuSans-Bold-6e" transform="translate(403.710938 0)"/>
     <use xlink:href="#DejaVuSans-Bold-2f" transform="translate(474.902344 0)"/>
     <use xlink:href="#DejaVuSans-Bold-69" transform="translate(511.425781 0)"/>
     <use xlink:href="#DejaVuSans-Bold-6e" transform="translate(545.703125 0)"/>
     <use xlink:href="#DejaVuSans-Bold-73" transform="translate(616.894531 0)"/>
     <use xlink:href="#DejaVuSans-Bold-65" transform="translate(676.416016 0)"/>
     <use xlink:href="#DejaVuSans-Bold-72" transform="translate(744.238281 0)"/>
     <use xlink:href="#DejaVuSans-Bold-74" transform="translate(793.554688 0)"/>
     <use xlink:href="#DejaVuSans-Bold-69" transform="translate(841.357422 0)"/>
     <use xlink:href="#DejaVuSans-Bold-6f" transform="translate(875.634766 0)"/>
     <use xlink:href="#DejaVuSans-Bold-6e" transform="translate(944.335938 0)"/>
     <use xlink:href="#DejaVuSans-Bold-20" transform="translate(1015.527344 0)"/>
     <use xlink:href="#DejaVuSans-Bold-73" transform="translate(1050.341797 0)"/>
     <use xlink:href="#DejaVuSans-Bold-61" transform="translate(1109.863281 0)"/>
     <use xlink:href="#DejaVuSans-Bold-6e" transform="translate(1177.34375 0)"/>
     <use xlink:href="#DejaVuSans-Bold-69" transform="translate(1248.535156 0)"/>
     <use xlink:href="#DejaVuSans-Bold-74" transform="translate(1282.8125 0)"/>
     <use xlink:href="#DejaVuSans-Bold-79" transform="translate(1330.615234 0)"/>
     <use xlink:href="#DejaVuSans-Bold-20" transform="translate(1395.800781 0)"/>
     <use xlink:href="#DejaVuSans-Bold-63" transform="translate(1430.615234 0)"/>
     <use xlink:href="#DejaVuSans-Bold-68" transform="translate(1489.892578 0)"/>
     <use xlink:href="#DejaVuSans-Bold-65" transform="translate(1561.083984 0)"/>
     <use xlink:href="#DejaVuSans-Bold-63" transform="translate(1628.90625 0)"/>
     <use xlink:href="#DejaVuSans-Bold-6b" transform="translate(1688.183594 0)"/>
     <use xlink:href="#DejaVuSans-Bold-20" transform="translate(1754.6875 0)"/>
     <use xlink:href="#DejaVuSans-Bold-76" transform="translate(1789.501953 0)"/>
     <use xlink:href="#DejaVuSans-Bold-73" transform="translate(1854.6875 0)"/>
     <use xlink:href="#DejaVuSans-Bold-20" transform="translate(1914.208984 0)"/>
     <use xlink:href="#DejaVuSans-Bold-66" transform="translate(1949.023438 0)"/>
     <use xlink:href="#DejaVuSans-Bold-75" transform="translate(1992.529297 0)"/>
     <use xlink:href="#DejaVuSans-Bold-6c" transform="translate(2063.720703 0)"/>
     <use xlink:href="#DejaVuSans-Bold-6c" transform="translate(2097.998047 0)"/>
     <use xlink:href="#DejaVuSans-Bold-20" transform="translate(2132.275391 0)"/>
     <use xlink:href="#DejaVuSans-Bold-6d" transform="translate(2167.089844 0)"/>
     <use xlink:href="#DejaVuSans-Bold-6f" transform="translate(2271.289062 0)"/>
     <use xlink:href="#DejaVuSans-Bold-64" transform="translate(2339.990234 0)"/>
     <use xlink:href="#DejaVuSans-Bold-65" transform="translate(2411.572266 0)"/>
     <use xlink:href="#DejaVuSans-Bold-6c" transform="translate(2479.394531 0)"/>
    </g>
   </g>
   <g id="legend_1">
    <g id="patch_19">
     <path d="M 514.5175 60.434219 
L 590.26125 60.434219 
Q 592.26125 60.434219 592.26125 58.434219 
L 592.26125 30.077969 
Q 592.26125 28.077969 590.26125 28.077969 
L 514.5175 28.077969 
Q 512.5175 28.077969 512.5175 30.077969 
L 512.5175 58.434219 
Q 512.5175 60.434219 514.5175 60.434219 
z
" style="fill: #ffffff; opacity: 0.8; stroke: #cccccc; stroke-linejoin: miter"/>
    </g>
    <g id="line2d_31">
     <path d="M 516.5175 36.176406 
L 526.5175 36.176406 
L 536.5175 36.176406 
" style="fill: none; stroke: #1f77b4; stroke-width: 2; stroke-linecap: square"/>
     <g>
      <use xlink:href="#ma0336297a1" x="526.5175" y="36.176406" style="fill: #1f77b4; stroke: #1f77b4"/>
     </g>
    </g>
    <g id="text_30">
     <!-- deletion -->
     <g transform="translate(544.5175 39.676406) scale(0.1 -0.1)">
      <use xlink:href="#DejaVuSans-64"/>
      <use xlink:href="#DejaVuSans-65" transform="translate(63.476562 0)"/>
      <use xlink:href="#DejaVuSans-6c" transform="translate(125 0)"/>
      <use xlink:href="#DejaVuSans-65" transform="translate(152.783203 0)"/>
      <use xlink:href="#DejaVuSans-74" transform="translate(214.306641 0)"/>
      <use xlink:href="#DejaVuSans-69" transform="translate(253.515625 0)"/>
      <use xlink:href="#DejaVuSans-6f" transform="translate(281.298828 0)"/>
      <use xlink:href="#DejaVuSans-6e" transform="translate(342.480469 0)"/>
     </g>
    </g>
    <g id="line2d_32">
     <path d="M 516.5175 50.854531 
L 526.5175 50.854531 
L 536.5175 50.854531 
" style="fill: none; stroke: #ff7f0e; stroke-width: 2; stroke-linecap: square"/>
     <g>
      <use xlink:href="#m505cdcca71" x="526.5175" y="50.854531" style="fill: #ff7f0e; stroke: #ff7f0e"/>
     </g>
    </g>
    <g id="text_31">
     <!-- insertion -->
     <g transform="translate(544.5175 54.354531) scale(0.1 -0.1)">
      <use xlink:href="#DejaVuSans-69"/>
      <use xlink:href="#DejaVuSans-6e" transform="translate(27.783203 0)"/>
      <use xlink:href="#DejaVuSans-73" transform="translate(91.162109 0)"/>
      <use xlink:href="#DejaVuSans-65" transform="translate(143.261719 0)"/>
      <use xlink:href="#DejaVuSans-72" transform="translate(204.785156 0)"/>
      <use xlink:href="#DejaVuSans-74" transform="translate(245.898438 0)"/>
      <use xlink:href="#DejaVuSans-69" transform="translate(285.107422 0)"/>
      <use xlink:href="#DejaVuSans-6f" transform="translate(312.890625 0)"/>
      <use xlink:href="#DejaVuSans-6e" transform="translate(374.072266 0)"/>
     </g>
    </g>
   </g>
  </g>
 </g>
 <defs>
  <clipPath id="pd267ea7e4e">
   <rect x="43.78125" y="23.077969" width="553.48" height="305.56"/>
  </clipPath>
 </defs>
</svg>
